<svg xmlns="http://www.w3.org/2000/svg" fill="none" viewBox="0 0 201 135">
  <g clip-path="url(#a)">
    <path fill="url(#b)" d="M201 0H0v135h201V0Z"/>
    <path fill="url(#c)" d="M201.25 122.062H0V135h201.25v-12.938Z"/>
    <path fill="#D1D1D1" d="M69.1 84.047c.411-.32 2.813-1.358 2.813-1.358a8.064 8.064 0 0 1 1.56-.958 22.17 22.17 0 0 1 3.593-.14 48.94 48.94 0 0 1 8.108.699h21.535a15.27 15.27 0 0 0 1.642-.72s.493 0 0 .32l-.472.42h1.827a16.42 16.42 0 0 0 2.422-1.618c.842-.779 7.001-5.692 7.001-5.692h3.059l-3.162 7.11s1.109-.14 1.458.16a.712.712 0 0 1 .225.679l1.437.24-.123.22h-1.539a1.855 1.855 0 0 1-.986.618c-.575.1-13.774 2.816-14.821 2.836l-4.948.14v.12h-.246v.28l-.246.26-.698-.28h-.842l.41.818a.687.687 0 0 1 .473-.2.602.602 0 0 1 .267 0c.18 0 .352.07.479.194a.65.65 0 0 1 .198.466.528.528 0 0 1-.185.42.613.613 0 0 1-.492.239.592.592 0 0 1-.267 0 .612.612 0 0 1-.452-.2.592.592 0 0 1-.164-.34.634.634 0 0 1-.185.34.675.675 0 0 1-.513.24h-.247a.631.631 0 0 1-.451-.2.615.615 0 0 1-.452.2.59.59 0 0 1-.267 0 .63.63 0 0 1-.492-.24.54.54 0 0 1-.185-.42.65.65 0 0 1 .198-.465.687.687 0 0 1 .48-.193.59.59 0 0 1 .266 0 .586.586 0 0 1 .37.12l.533-.8h-.923v.6a28.263 28.263 0 0 1-5.07.18 5.38 5.38 0 0 1-.268-.58l-.8.48v.898s-.883.12-2.053.18c-1.011.08-2.027.08-3.038 0a3.908 3.908 0 0 1-.514-2.117h-8.067v1.079a.45.45 0 0 1 .211.165.451.451 0 0 1-.001.502.484.484 0 0 1-.708.092.458.458 0 0 1-.139-.478.459.459 0 0 1 .147-.217.479.479 0 0 1 .243-.104v-.44h-.287v-.599h-1.499a21.891 21.891 0 0 1-3.736-1.198c-.677-.28-1.17-.52-1.19-.68v-.12a.719.719 0 0 1-.308-.435.702.702 0 0 1 .082-.523Zm40.421-.819h.124v-.24h-.124v.24Zm-.513 0h.123v-.24h-.123v.24Zm-.534 0h.124v-.24h-.124v.24Zm-.513 0h.123v-.24h-.123v.24Zm-.513 0h.226v-.24h-.226v.24Zm-8.211 0h.123v-.24h-.123v.24Zm-2.3-.24h-.225v.24h.224v-.24Zm1.766.24h.123v-.24h-.123v.24Zm-.513 0h.123v-.24h-.123v.24Zm-.534 0h.123v-.24h-.123v.24Zm-.205 0v-.24h-.124v.24h.164-.04Zm0 5.113-.329-.639v.4a.826.826 0 0 1 .431.24h-.102Zm-1.17-.12a.628.628 0 0 1 .328-.1v-.479l-.329.58Zm-.247-4.993h.329v-.24h-.329v.24Zm-.513 0h.226v-.24h-.227v.24Zm-.513 0h.41v-.24h-.226l-.184.24Zm-.534 0h.226v-.24h-.226v.24Zm-.513 0h.123v-.24h-.123v.24Zm-.513 0h.123v-.24h-.123v.24Zm-.534 0h.123v-.24h-.123v.24Zm-.514 0h.124v-.24H92.4v.24Zm-.533 0h.123v-.24h-.123v.24Zm-.513 0h.123v-.24h-.123v.24Zm-.514 0h.226v-.24h-.226v.24Zm-.533 0h.225v-.24h-.225v.24ZM72.61 82.11l-.308.42h.205l.247-.46-.144.04Zm.267 0-.267.44h.246l.144-.48-.123.04Zm.328 0v.48h.308v-.52l-.308.04Zm2.32.739h-.123v.24h.123v-.24Zm.513 0h-.123v.24h.103l.02-.24Zm.513 0h-.123v.24h.123v-.24Zm.226 0v.24h.123v-.24h-.123l.103.14-.103-.14Zm1.335 0h-.041v.24l.04-.24Zm-.822 0v.24h.144v-.24h-.144l.103.14-.103-.14Zm1.253 0h-.185v.32h.123v-.24l.164-.04-.102-.04Zm.616 0h-.124v.24h.124v-.24Zm.533 0h-.123v.24h.123v-.24Zm5.194 0h-.123v.24h.123v-.24Zm.534 0h-.123v.24h.123v-.24Zm.513 0h-.144v.24h.144v-.24Zm.513 0h-.164v.24h.123l.041-.24Zm.534 0h-.123v.24h.123v-.24Zm2.812.24h.144v-.24h-.144v.24Zm-.513 0h.123v-.24h-.123v.24Zm-.534 0h.124v-.24h-.124v.24Zm-.513 0h.308v-.24h-.205l-.103.24Zm-.534 0h.33v-.24h-.329v.24Zm-.287 0v-.24h-.225v.24h.226Zm-3.346 0h.227v-.24h-.103.041l-.164.24Zm-.534 0h.33v-.24h-.329v.24Zm-.513 0h.227v-.24h-.226v.24Zm-.513 0h.123v-.24h-.123v.24Zm-.534 0h.123v-.24h.082l-.205.24Zm-.513 0h.144v-.24h-.144v.24Zm-.513 0h.123v-.24h-.123v.24Zm-.534 0h.328v-.24h-.123l-.205.24Zm-.513 0h.225v-.24l-.225.24Z" opacity=".5"/>
    <path fill="#D3D3D3" d="M178.298 88.937 156.14 69h-9.49v1.38h-12.452l-1.492 3.169h-1.599l-1.795 7.626 1.492 1.064h20.58l1.189.814-.692 1.992-2.054 3.892-1.102 2.263-.605-.43-2.616 3.463h-.908v.588h-2.659l-1.319-1.177h-3.61v-2.263h-.886V90.25h-.995v1.267H125.4L123 94.03v5.431h13.338a2.66 2.66 0 0 0 1.384 1.313c.333.155.694.232 1.059.226.365.009.727-.069 1.059-.226a2.745 2.745 0 0 0 1.405-1.29h19.175c.3.553.762.99 1.319 1.245.694.29 1.467.29 2.161 0a2.926 2.926 0 0 0 1.341-1.245h13.878V93.6L181 91.336l-2.702-2.399Zm-31.648-16.86h-6.637l.778 1.472h-7.76l1.361-2.874h12.258v1.403Zm28.103 14.054-1.6 2.082-5.361-4.775 1.621-2.104 5.34 4.797Zm-5.47-5.001-1.621 2.105-5.469-4.843 1.643-2.263 5.447 5Zm-5.664-5.001-1.642 2.127-6.075-5.454 1.643-2.263 6.074 5.59Zm-12.473-4.051h-4.323v-1.403h4.323v1.403Zm.281 0V70.38h-4.496v-1.04h9.101l1.297 1.176-1.643 2.263-.627-.543-3.632-.158Zm9.209 21.318-2.399 3.371h-6.486v-1.991h-2.983v-.543h-.13l1.6-2.127-.584-.408 1.406-2.715 1.686-3.26.821.725.887-1.652 4.734 4.187 5.037 4.526-3.589-.113Zm18.332 0-4.994-4.526-.583-.521 1.621-2.082 2.918 2.67 2.767 2.49-1.729 1.969Z"/>
    <path fill="#D2D2D3" d="m51 63.125 119.169.1-16.373-7.59a30.751 30.751 0 0 0-13.039-2.975 31.434 31.434 0 0 0-13.986 3.235 8.285 8.285 0 0 1-3.882 1.437 8.787 8.787 0 0 1-3.622-1.624 29.07 29.07 0 0 0-6.138-2.588 26.654 26.654 0 0 0-12.938-.59 21.22 21.22 0 0 0-6.095 2.33 45.828 45.828 0 0 1-6.267 3.708c-5.031 1.927-9.99-1.437-14.835-2.444a19.953 19.953 0 0 0-13.498 2.128c-.389.201-1.438.906-3.264 1.955-2.228 1.28-4.068 2.358-5.232 2.918Z" opacity=".24"/>
    <path fill="#D3D3D3" d="M193.122 21.606h-8.252l-1.725-2.444a.698.698 0 0 0-.575-.301h-.56V16.2a.2.2 0 0 0-.187-.201.2.2 0 0 0-.201.201v2.66h-2.645a.707.707 0 0 0-.575.302l-1.725 2.443h-8.266a1.436 1.436 0 0 0-1.164 2.243l5.333 7.575a.698.698 0 0 0 .575.302h3.838v67.497h7.561V31.726h3.824a.702.702 0 0 0 .589-.302l5.319-7.575a1.437 1.437 0 0 0-1.164-2.243Z"/>
    <path fill="url(#d)" d="M55.775 0H35c25.947 6.196 109.613 26.608 92.65 20.901-21.131-7.187-73.859-17.005-53.188-15.036 20.672 1.97 38.367 10.063 52.785 12.003 14.419 1.94 57.17 11.83 52.714 9.861-4.457-1.969-50.126-12.62-48.257-12.664 1.869-.043 34.054 7.619 58.032 13.34 4.657 1.107 8.481 1.998 11.5 2.703v-1.323c-12.047-3.393-32.402-7.576-55.085-12.938-19.55-4.758-41.832-11.097-43.959-11.7l2.746.761c12.089 3.45 30.503 6.699 37.489 7.03 3.58.172 29.57 6.655 58.823 14.374V0H55.775Z" opacity=".8"/>
    <g clip-path="url(#e)" opacity=".4">
      <path fill="#8D8D8D" d="M113.236 45.75c.369 1.878.767 3.932 1.107 5.018.147.484.28.777.398.792l.886.205c.324 0 .679.147 1.003.191.325.044.856 0 .93-.088l.413-.85c.251-.514.605-1.248 1.033-2.084l.133-.264.222-.426c.398-.821.841-1.745 1.298-2.655.576-1.144 1.181-2.289 1.771-3.213a8.418 8.418 0 0 1 1.668-1.98c.274-.263.639-.41 1.019-.411a47.167 47.167 0 0 0-2.583-.69c-1.476-.337-2.952-.69-4.561-1.012l-1.8-.352c-1.476-.294-2.819-.543-3.97-.763l-3.321-.587c.221.176.487.352.753.602.443.376.822.822 1.121 1.32.505.812.916 1.678 1.225 2.582a28.63 28.63 0 0 1 .96 3.374l.177.763c.029.176.073.352.118.528Z"/>
      <path fill="#8D8D8D" d="M125.057 40.22c0-2.934-9.652-3.859-9.652-3.859l-.546 2.656a20.776 20.776 0 0 0 10.198 1.203Z"/>
      <path fill="#757575" d="m114.859 39.017-.384 1.877c8.738 2.641 10.332 1.13 10.553-.396a2.16 2.16 0 0 0 0-.278 20.78 20.78 0 0 1-10.169-1.203Z"/>
      <path fill="#989798" d="M116.586 38.899c-.207 1.232-1.048 2.127-1.874 1.995-.827-.132-1.343-1.247-1.137-2.494.207-1.247 1.033-2.127 1.875-1.995.841.132 1.328 1.247 1.136 2.494Z"/>
      <path fill="#4A4A4A" d="M114.697 40.939c-.856-.147-1.373-1.277-1.166-2.538.207-1.262 1.063-2.172 1.919-2.04.856.132 1.387 1.277 1.18 2.538-.206 1.262-1.077 2.186-1.933 2.04Zm.738-4.49c-.797-.132-1.624.749-1.816 1.966-.191 1.218.296 2.304 1.093 2.436.797.132 1.623-.749 1.83-1.966.206-1.218-.295-2.304-1.107-2.436Z"/>
      <path fill="#4A4A4A" d="M116.586 38.899c-.148.88-.753 1.467-1.358 1.467-.605 0-.959-.91-.812-1.79.148-.88.753-1.54 1.344-1.467.59.073.959.895.826 1.79Z"/>
      <path fill="#8D8D8D" d="M160.286 45.325h.517l.708.16.605.104h.768l.236-.235c.694-.69 1.579-1.467 2.391-2.274.812-.807 1.299-1.232 1.771-1.702a8.53 8.53 0 0 0 .561-.616h-.723l-1.181.147c-.708.073-1.358.146-1.476.146-.118 0-1.225-.161-2.125-.293l-1.019-.147h-.442v.704c0 .47-.089.954-.148 1.467-.059.514-.147 1.291-.266 2.054l-.177.484Z"/>
      <path fill="#8D8D8D" d="M80.781 31.285c.242.096.488.179.738.249l.561.176.532.176 1.092.323c1.254.352 2.686.704 4.25 1.041 3.232.69 6.981 1.335 10.744 1.908l1.048.16c6.258.925 7.911 2.246 12.043 3.053l1.757.337c3.365.645 6.774 1.247 10.183 1.775l1.963.294 2.553.308a43.854 43.854 0 0 1 4.989.22c1.107.132 2.523.308 4.427.601 1.904.294 3.336.499 4.841.69a67.99 67.99 0 0 0 8.855.513h1.314a76.232 76.232 0 0 0 11.025-.998l.679-.102a50.929 50.929 0 0 0 3.497-.69c.384-.088.738-.19 1.092-.293.355-.103.606-.19.886-.294.28-.102.31-.264.384-.513.082-.261.126-.533.133-.807V38.15a5.712 5.712 0 0 0-.635-.293 17.103 17.103 0 0 0-1.387-.455l-1.019-.308a150.502 150.502 0 0 0-3.616-.953 347.586 347.586 0 0 0-5.077-1.233l-1.859-.425-.915-.206-.561-.132-.561.22-.723.338c-1.387.704-2.052 1.085-2.539 1.35a13.93 13.93 0 0 1-4.427 1.217 22.279 22.279 0 0 1-4.428.514c-2.951 0-3.084-.705-7.217-.998-1.166-.088-1.786-.088-3.055-.279a23.225 23.225 0 0 1-3.66-.85 54.891 54.891 0 0 0-11.925-2.098c-1.476-.089-1.978 0-3.38-.191a31.484 31.484 0 0 1-5.815-1.467 70.44 70.44 0 0 0-12.323-2.553 35.439 35.439 0 0 0-2.539-.25c-4.781-.307-7.217.382-8.707-1.085a2.86 2.86 0 0 0-.96-.763c-.56-.205-.915 0-2.951.25a9.737 9.737 0 0 1-1.181.117h-1.476c-1.24 0-1.387 0-1.476.073-.324.382.222 1.35.399 1.643l.34.176.412.206 1.285.63 1.195.529.31.132.56.235.325.044Z"/>
      <path fill="#757575" d="M76.34 29.26c.112-.162.264-.294.442-.381a4.645 4.645 0 0 1 1.609-.308h1.15c4.782.21 9.539.795 14.228 1.746l1.742.337c4.501.85 11.526 2.04 16.411 2.934 1.816.338 3.336.631 4.325.851 1.224.279 2.951.602 4.752.924 2.051.367 4.265.748 6.169 1.115 1.476.294 2.952.587 3.837.851l.605.206c2.2.568 4.458.879 6.73.924 2.303.137 4.614.078 6.907-.176a12.043 12.043 0 0 0 2.332-.499 30.382 30.382 0 0 0 2.465-1.027c1.476-.704 2.775-1.467 3.822-1.98l.856-.397.517-.205h-.162l-.458-.103h-.162l-.546-.117-.355-.073-.487-.133h-.28l-.694-.132-1.048-.19-3.97-.734-4.722-.865-2.568-.514-2.79-.587-7.541-1.467-1.063-.352-1.476-.308-1.018-.205-5.048-1.013-8.132-1.57-3.675-.704c-3.409-.63-6.538-1.29-9.43-1.833l-3.174-.573a105.056 105.056 0 0 0-11.925-1.467h-1.357a16.44 16.44 0 0 0-1.845.323 24.887 24.887 0 0 0-3.97 1.643c-1.034.338-2.318.264-3.144.646-1.195.557-2.007 1.056-2.17 1.643a.554.554 0 0 0 0 .22c.053.307.203.59.428.807.803.783 1.712 1.45 2.701 1.98.355.308.768.543 1.181.763Z"/>
      <path fill="#4D4D4D" d="M97.636 27.045h.841a.341.341 0 0 0 .369-.293c.036-.243.036-.49 0-.734a2.18 2.18 0 0 0 0-.821.352.352 0 0 0-.354-.235h-.236a1.942 1.942 0 0 0-.414 0 .803.803 0 0 0-.324 0 .355.355 0 0 0-.266.352v1.1a1.064 1.064 0 0 0 0 .528.428.428 0 0 0 .384.103Zm-7.616-1.042h.842a.355.355 0 0 0 .369-.308 2.5 2.5 0 0 0 0-.733 1.93 1.93 0 0 0 0-.822.352.352 0 0 0-.34-.235h-.664a.727.727 0 0 0-.31 0 .354.354 0 0 0-.266.352v.983a1.064 1.064 0 0 0 0 .529.382.382 0 0 0 .37.234Zm15.025 2.333h.811a.34.34 0 0 0 .355-.279 2.96 2.96 0 0 0 0-.704c.051-.267.051-.54 0-.807a.325.325 0 0 0-.325-.205h-.974a.353.353 0 0 0-.251.337v.939a1.015 1.015 0 0 0 0 .513.398.398 0 0 0 .384.206Zm3.601.646h.797a.34.34 0 0 0 .369-.279 2.98 2.98 0 0 0 0-.719 2.07 2.07 0 0 0 0-.792.326.326 0 0 0-.34-.22h-.62a.727.727 0 0 0-.31 0 .318.318 0 0 0-.25.337v.94a.993.993 0 0 0 0 .513.394.394 0 0 0 .354.22Zm4.176.865h.812a.336.336 0 0 0 .354-.279 2.86 2.86 0 0 0 0-.704c.052-.267.052-.54 0-.807a.325.325 0 0 0-.354-.176h-.944a.323.323 0 0 0-.251.337v.94a.993.993 0 0 0 0 .513.396.396 0 0 0 .383.176Zm4.015.733h.812a.34.34 0 0 0 .354-.278 2.96 2.96 0 0 0 0-.704c.044-.267.044-.54 0-.807a.36.36 0 0 0-.34-.206h-.929a.348.348 0 0 0-.251.352v.925a.993.993 0 0 0 0 .513.394.394 0 0 0 .354.206Zm-15.571-2.904h.842a.34.34 0 0 0 .369-.294 2.5 2.5 0 0 0 0-.733c.051-.277.051-.56 0-.836a.357.357 0 0 0-.355-.22h-.649a1.156 1.156 0 0 0-.325 0 .368.368 0 0 0-.265.366v.968a1.05 1.05 0 0 0 0 .529.407.407 0 0 0 .383.22Zm-7.394-1.174h.842a.37.37 0 0 0 .383-.294c.03-.243.03-.49 0-.733a2.26 2.26 0 0 0 0-.836.353.353 0 0 0-.354-.22h-.295a3.85 3.85 0 0 0-.413 0 .976.976 0 0 0-.31 0 .369.369 0 0 0-.266.366v.983a.934.934 0 0 0 0 .528.383.383 0 0 0 .413.206Zm49.781 9.169h.842a.34.34 0 0 0 .369-.293c.036-.243.036-.49 0-.734.051-.271.051-.55 0-.821a.355.355 0 0 0-.355-.235h-.649a.805.805 0 0 0-.325 0 .341.341 0 0 0-.251.352v.983a.949.949 0 0 0 0 .528.387.387 0 0 0 .369.22Zm-7.674-1.041h.841a.355.355 0 0 0 .369-.308c.029-.244.029-.49 0-.733.052-.272.052-.55 0-.822a.32.32 0 0 0-.339-.235h-.236a2.055 2.055 0 0 0-.428 0 .73.73 0 0 0-.31 0 .34.34 0 0 0-.266.352v.983a1.073 1.073 0 0 0 0 .529.423.423 0 0 0 .369.234Zm15.083 2.332h.812a.336.336 0 0 0 .354-.279 2.86 2.86 0 0 0 0-.703c.045-.268.045-.54 0-.807a.355.355 0 0 0-.339-.205h-.93a.326.326 0 0 0-.251.337v.939a1.015 1.015 0 0 0 0 .513.396.396 0 0 0 .354.205Zm-3.778-.659h.841a.34.34 0 0 0 .369-.294 2.5 2.5 0 0 0 0-.733 2.26 2.26 0 0 0 0-.837.35.35 0 0 0-.354-.22h-.649a1.164 1.164 0 0 0-.325 0 .355.355 0 0 0-.251.367v.968a.897.897 0 0 0 0 .529.37.37 0 0 0 .369.22Zm-7.379-1.174h.826a.354.354 0 0 0 .384-.294c.029-.243.029-.49 0-.733a2.26 2.26 0 0 0 0-.836.351.351 0 0 0-.354-.22h-.222a4.185 4.185 0 0 0-.428 0 .983.983 0 0 0-.31 0 .352.352 0 0 0-.265.366v.983a1.073 1.073 0 0 0 0 .528.41.41 0 0 0 .369.206ZM78.951 22.952h1.358c0-.088.074-.176.103-.279a1.21 1.21 0 0 0 .089-.308v-.117h-.9l-.177.073h-.177l-.207.162c-.048.04-.093.084-.133.132l.044.337Zm3.262-.733h-1.328v.22a.893.893 0 0 0 0 .176 1.373 1.373 0 0 0 0 .235.53.53 0 0 0 0 .146c.127.008.256.008.383 0l.532-.161.413-.147h.162v-.073a.322.322 0 0 0 0-.117v-.177l-.162-.102Z"/>
      <path fill="#4D4D4D" d="M77.726 23.128h.399a2.53 2.53 0 0 0 .413-.088h.163c.08-.05.154-.11.22-.176l.104-.103.118-.103h-.236l-.206.074-.414.176-.369.205h-.192v.015Z"/>
      <path fill="#757575" d="m155.8 34.38.502.117 1.903.426c1.565.352 3.129.763 4.708 1.13 1.58.366 2.952.689 4.28 1.056l1.476.337.355.088c0-.147.118-.513.162-.675.088-.396.177-.807.266-1.261.28-1.262.575-2.715.856-4.152.28-1.438.546-2.788.782-3.99l.428-2.143a6.409 6.409 0 0 0 .236-1.599l-.325-.073-1.033-.279-.871-.234-1.062-.265-.34-.073a7.188 7.188 0 0 0-1.741 1.364l-2.022 1.878a246.483 246.483 0 0 0-3.616 3.492l-3.557 3.492-1.033 1.026-.354.338Zm-43.524-1.232 7.527.983 9.003 1.203 1.269.161c.378-.444.782-.865 1.211-1.261a53.673 53.673 0 0 1 5.091-4.123 110.704 110.704 0 0 1 5.387-3.668l.694-.44 7.158-4.401 1.195-.733.797-.5.458-.278 1.299-.807 2.951-1.804c1.388-.866 2.347-1.468 2.583-1.658a11.1 11.1 0 0 0 1.018-1.878 58.08 58.08 0 0 0 1.181-2.67c.177-.426.325-.807.428-1.115.103-.308.222-.69.162-.734a.94.94 0 0 0-.398-.161 5.162 5.162 0 0 0-.826-.161c-.266 0-.473 0-.532.102-.053.097-.112.19-.177.279-.516.748-1.963 2.743-3.055 4.02-.303.4-.66.755-1.063 1.056-.118.073-.87.425-2.11.968l-6.966 3.022-5.269 2.274-11.364 4.871-8.855 3.785-1.476.631-1.078.455-2.081.895-1.963.836-1.741.734-.443.19-.015-.073Z"/>
      <path fill="#8D8D8D" d="M164.035 37.094c-.103 0-.103.118 0 .191.385.29.82.51 1.284.646l1.343.484c.413.146.959.322 1.476.47.517.146.812.234 1.136.307.229.052.466.052.694 0l.266-.161.723-.455 1.653-1.027 2.214-1.32 3.748-2.157 2.657-1.584 1.815-1.115-.516-.088-.532-.074h-.516l-.738-.146-.487-.103c-.753.25-1.565.528-2.406.836-1.062.382-2.184.807-3.335 1.247-1.476.572-3.041 1.174-4.531 1.775l-2.671 1.057-2.022.806-.901.353-.354.058Z"/>
      <path fill="#757575" d="M133.809 29.157c0-3.447-11.32-4.533-11.32-4.533l-.649 3.125a24.353 24.353 0 0 0 11.969 1.408Z"/>
      <path fill="#8D8D8D" d="m121.84 27.749-.443 2.2c10.243 3.096 12.029 1.321 12.383-.469a2.897 2.897 0 0 0 0-.323 24.354 24.354 0 0 1-11.94-1.408Z"/>
      <path fill="#989798" d="M123.862 27.602c-.251 1.467-1.225 2.494-2.199 2.333-.974-.162-1.579-1.467-1.328-2.934.251-1.467 1.21-2.494 2.184-2.333.974.161 1.579 1.467 1.343 2.934Z"/>
      <path fill="#4A4A4A" d="M121.648 29.994c-1.003-.162-1.609-1.467-1.372-2.934.236-1.467 1.254-2.553 2.258-2.392 1.003.162 1.623 1.467 1.372 2.934-.251 1.468-1.254 2.553-2.258 2.392Zm.841-5.267c-.944-.147-1.903.88-2.14 2.303-.236 1.423.34 2.7 1.284 2.861.945.161 1.904-.88 2.14-2.303.237-1.423-.31-2.641-1.284-2.861Z"/>
      <path fill="#4A4A4A" d="M123.862 27.602c-.177 1.042-.886 1.79-1.594 1.687-.708-.102-1.122-1.056-.959-2.112.162-1.056.885-1.805 1.594-1.687.708.117 1.062 1.056.959 2.112Z"/>
      <path fill="#757575" d="M139.905 24.947c0-2.934-9.638-3.873-9.638-3.873l-.546 2.67a20.779 20.779 0 0 0 10.184 1.203Z"/>
      <path fill="#8D8D8D" d="m129.721 23.744-.384 1.878c8.738 2.64 10.332 1.13 10.553-.41a1.663 1.663 0 0 0 0-.265c-3.438.454-6.934.04-10.169-1.203Z"/>
      <path fill="#989798" d="M131.433 23.612c-.192 1.247-1.033 2.142-1.859 1.996-.827-.147-1.343-1.247-1.137-2.48.207-1.232 1.033-2.127 1.875-1.995.841.132 1.328 1.247 1.121 2.48Z"/>
      <path fill="#4A4A4A" d="M129.559 25.652c-.856-.132-1.373-1.277-1.166-2.538.206-1.262 1.063-2.157 1.919-2.025.856.132 1.372 1.276 1.165 2.538-.206 1.262-1.062 2.171-1.918 2.025Zm.738-4.475c-.797-.132-1.624.748-1.816 1.951-.191 1.203.296 2.304 1.093 2.436.797.132 1.623-.748 1.815-1.951.192-1.203-.281-2.304-1.092-2.436Z"/>
      <path fill="#4A4A4A" d="M131.433 23.612c-.147.895-.738 1.54-1.343 1.467-.605-.073-.959-.895-.812-1.79.148-.895.738-1.467 1.343-1.467.606 0 .96.91.812 1.79Z"/>
    </g>
    <path fill="#CACACA" fill-rule="evenodd" d="M85.487 117.042h94.239a.488.488 0 0 1 .486.479.48.48 0 0 1-.144.337.495.495 0 0 1-.342.142h-94.24a.499.499 0 0 1-.34-.142.481.481 0 0 1-.145-.337.488.488 0 0 1 .486-.479Zm-7.7 0h3.74a.487.487 0 0 1 .486.479.48.48 0 0 1-.144.337.494.494 0 0 1-.341.142h-3.742a.495.495 0 0 1-.341-.142.48.48 0 0 1-.144-.337.487.487 0 0 1 .486-.479Zm105.986 0h3.741a.488.488 0 0 1 .486.479.49.49 0 0 1-.486.479h-3.741a.488.488 0 0 1-.485-.479.485.485 0 0 1 .485-.479Z" clip-rule="evenodd"/>
    <path fill="#373737" fill-rule="evenodd" d="m142.198 73.107-3.285-.147-.117 1.23 3.597.26-.195-1.343Z" clip-rule="evenodd"/>
    <path fill="#121212" fill-rule="evenodd" d="m142.777 73.083-3.285-.147.26 1.213 3.596.261-.571-1.327Z" clip-rule="evenodd"/>
    <path fill="#232323" fill-rule="evenodd" d="m151.617 73.998-4.199-.67.681 1.4 3.984.288-.466-1.018Z" clip-rule="evenodd"/>
    <path fill="#121212" fill-rule="evenodd" d="m152.113 73.977-4.198-.67.68 1.4 3.984.289-.466-1.02Zm-27.743-.528 4.258-.544-.815 1.377-4.007.17.564-1.003Z" clip-rule="evenodd"/>
    <path fill="#373737" fill-rule="evenodd" d="M123.885 74.554a.497.497 0 0 1-.665.029.414.414 0 0 1-.026-.613c1.32-1.326 4.821-1.85 8.926-1.95 6.814-.168 15.37.79 18.066 1.162a5.554 5.554 0 0 1 1.586.466c.492.226.944.53 1.338.899a.413.413 0 0 1 .131.308.4.4 0 0 1-.145.302.493.493 0 0 1-.661-.01 4.099 4.099 0 0 0-1.088-.725 4.582 4.582 0 0 0-1.305-.383c-2.679-.37-11.171-1.321-17.9-1.156-3.875.093-7.137.546-8.257 1.671Z" clip-rule="evenodd"/>
    <path fill="#232323" fill-rule="evenodd" d="m159.949 73.628-3.059-.287-.159 1.223 3.346.413-.128-1.35Z" clip-rule="evenodd"/>
    <path fill="#121212" fill-rule="evenodd" d="m160.491 73.628-3.06-.287.193 1.224 3.346.412-.479-1.35Z" clip-rule="evenodd"/>
    <path fill="#232323" fill-rule="evenodd" d="m168.705 74.916-3.891-.846.577 1.426 3.707.457-.393-1.037Z" clip-rule="evenodd"/>
    <path fill="#121212" fill-rule="evenodd" d="m169.17 74.916-3.892-.846.577 1.426 3.708.457-.393-1.037Zm-25.875-1.702 3.996-.363-.817 1.34h-3.747l.568-.977Z" clip-rule="evenodd"/>
    <path fill="#373737" fill-rule="evenodd" d="M142.797 74.299a.442.442 0 0 1-.75-.307.43.43 0 0 1 .129-.307c1.286-1.27 4.576-1.644 8.411-1.57 6.366.12 14.314 1.44 16.815 1.925.513.1 1.007.28 1.462.533.455.25.865.573 1.213.955a.437.437 0 0 1 .109.312.422.422 0 0 1-.147.297.44.44 0 0 1-.617-.037 4.05 4.05 0 0 0-2.189-1.211c-2.485-.483-10.372-1.793-16.659-1.913-3.622-.067-6.686.245-7.777 1.323Z" clip-rule="evenodd"/>
    <path fill="#121212" fill-rule="evenodd" d="M139.53 117.542h-4.213c-3.577 0-6.477-4.417-6.477-9.866 0-5.448 2.9-9.865 6.477-9.865h4.213c3.895 0 4.022 19.731 0 19.731Z" clip-rule="evenodd"/>
    <path fill="#121212" d="M139.529 117.542c-3.578 0-6.478-4.417-6.478-9.866 0-5.448 2.9-9.865 6.478-9.865s6.478 4.417 6.478 9.865c0 5.449-2.9 9.866-6.478 9.866Z"/>
    <path fill="#121212" fill-rule="evenodd" d="M91.775 117.542h-4.213c-3.578 0-6.478-4.417-6.478-9.866 0-5.448 2.9-9.865 6.478-9.865h4.213c3.895 0 4.023 19.731 0 19.731Z" clip-rule="evenodd"/>
    <path fill="#121212" d="M91.775 117.542c-3.578 0-6.478-4.417-6.478-9.866 0-5.448 2.9-9.865 6.478-9.865 3.577 0 6.478 4.417 6.478 9.865 0 5.449-2.9 9.866-6.478 9.866Z"/>
    <path fill="#121212" fill-rule="evenodd" d="m110.824 111.172 52.483-.004 16.953-2.467.05-15.607h-69.486v18.078Z" clip-rule="evenodd"/>
    <path fill="#111" fill-rule="evenodd" d="M124.668 97.811h-4.213c-3.577 0-6.478 4.417-6.478 9.866s2.901 9.865 6.478 9.865h4.213c3.899 0 4.023-19.73 0-19.73Z" clip-rule="evenodd"/>
    <path fill="#1A1A1A" d="M124.668 117.542c-3.578 0-6.478-4.417-6.478-9.866 0-5.448 2.9-9.865 6.478-9.865s6.478 4.417 6.478 9.865c0 5.449-2.9 9.866-6.478 9.866Z"/>
    <path fill="#F0F1F7" d="M124.668 114.88c-2.612 0-4.73-3.225-4.73-7.204 0-3.978 2.118-7.203 4.73-7.203 2.612 0 4.73 3.225 4.73 7.203 0 3.979-2.118 7.204-4.73 7.204Z"/>
    <path fill="#A6B2C5" fill-rule="evenodd" d="M124.668 109.647c-.713 0-1.294-.885-1.294-1.97s.581-1.974 1.294-1.974c.712 0 1.294.885 1.294 1.971 0 1.085-.582 1.973-1.294 1.973Z" clip-rule="evenodd"/>
    <path fill="#F0F1F7" fill-rule="evenodd" d="M124.32 108.492c-.295 0-.535-.366-.535-.815 0-.448.24-.815.535-.815.295 0 .534.366.534.815 0 .45-.24.815-.534.815Z" clip-rule="evenodd"/>
    <path fill="#111" fill-rule="evenodd" d="M172.419 117.542h-4.213c-3.577 0-6.477-4.417-6.477-9.866 0-5.448 2.9-9.865 6.477-9.865h4.213c3.899 0 4.027 19.731 0 19.731Z" clip-rule="evenodd"/>
    <path fill="#1A1A1A" d="M172.422 117.542c-3.578 0-6.478-4.417-6.478-9.866 0-5.448 2.9-9.865 6.478-9.865 3.577 0 6.478 4.417 6.478 9.865 0 5.449-2.901 9.866-6.478 9.866Z"/>
    <path fill="#F0F1F7" d="M172.422 114.88c-2.612 0-4.73-3.225-4.73-7.204 0-3.978 2.118-7.203 4.73-7.203 2.612 0 4.73 3.225 4.73 7.203 0 3.979-2.118 7.204-4.73 7.204Z"/>
    <path fill="#A6B2C5" fill-rule="evenodd" d="M172.419 109.647c-.712 0-1.293-.885-1.293-1.971s.583-1.973 1.293-1.973 1.294.886 1.294 1.971-.579 1.973-1.294 1.973Z" clip-rule="evenodd"/>
    <path fill="#F0F1F7" fill-rule="evenodd" d="M172.106 108.492c-.294 0-.534-.366-.534-.815 0-.45.24-.815.534-.815.294 0 .535.366.535.815 0 .448-.24.815-.535.815Z" clip-rule="evenodd"/>
    <path fill="#232323" d="M134.386 109.313h28.288v1.857h-28.288v-1.857Z"/>
    <path fill="#744A9D" fill-rule="evenodd" d="M171.467 75.907c-10.197-1.851-23.627-2.47-33.288-2.47-7.943 0-20.389.01-24.118 1.852-6.469 3.272-10.88 7.797-16.551 11.542-7.038.952-14.74 2.282-17.703 3.644-3.897 1.791-3.936 3.468-4.31 7.548-.06.649-1.079.846-1.306 1.52-.323.962-.174 2.672-.008 3.308.093.344.644.699.63 1.057-.117 3.193.668 5.756 2.95 7.265h35.558l1.821-2.213h1.691a12.454 12.454 0 0 1-.261-2.547c0-5.755 3.171-10.594 7.951-10.594 4.781 0 7.953 4.839 7.953 10.594a12.51 12.51 0 0 1-.201 2.244l1.232 2.514 2.717-2.212h26.757l1.463-2.547c0-5.755 3.172-10.594 7.953-10.594 4.1 0 6.83 3.608 7.724 8.212l.139 4.671 3.006-2.74c.556-1.726 1.113-2.584 1.669-4.31a26.347 26.347 0 0 0-.229-4.447 2.873 2.873 0 0 0-.268-.826c-.312-.628-.901-1.71-.911-1.84-.126-1.443.007-2.535-.32-3.86-.194-.786.102-1.981-.026-2.672-.094-.504-2.547-1.46-2.785-1.685l-6.518-8.907c-.576-.78-1.292-1.304-2.411-1.507Z" clip-rule="evenodd"/>
    <path fill="#7E56A3" fill-rule="evenodd" d="M166.893 93.733c2.532-1.598 6.009-1.547 8.592-.365 2.407 1.106 4.176 3.976 3.46 4.357-.587.312-1.392-.994-2.896-1.62-2.315-.969-5.72-1.404-8.145-.203-3.998 1.982-3.211 9.735-5.125 9.744-1.914.009-1.515-8.361 4.114-11.913Zm-48.36.041c2.947-1.883 6.881-2.233 10.348.006 2.274 1.468 3.356 4.029 3.289 5.001-.046.67-2.202-1.605-4.525-2.563-2.413-1-5.423-1.326-7.462-.315-3.999 1.981-4.324 10.601-5.125 9.743-.802-.858-1.129-8.93 3.475-11.872Z" clip-rule="evenodd"/>
    <path fill="#7E56A3" fill-rule="evenodd" d="M171.468 75.907c-10.198-1.851-23.628-2.47-33.289-2.47-7.942 0-20.389.01-24.117 1.852-6.47 3.272-10.881 7.797-16.552 11.542-7.037.952-14.74 2.282-17.703 3.644-1.293.595-2.161 1.177-2.758 1.838 5.425.577 14.237.795 21.578.623 6.305-.362 11.262 0 16.271-.773 3.794-.584 6.936-.753 9.492-1.117h58.893a3.2 3.2 0 0 1-.04-1.038l-2.851-3.693-5.071.502h-42.353c-1.062 0-1.762-1.019-.596-2.466 2.342-2.906 3.671-4.982 6.544-8.132 2.775-3.034 16.353-1.67 32.552-.312Zm-7.14 31.691c-.362-3.856 1.172-9.213 3.53-12.26-1.152.783-4.28 1.648-4.747 2.562-2.552 4.993-4.115 7.94-19.532 8.912-.47.029-.522.759.011.759l20.738.027Z" clip-rule="evenodd"/>
    <path fill="#ED262E" fill-rule="evenodd" d="M183.208 90.679c.019-.423.138-1.797-.026-2.673-.122-.657-2.486-1.523-2.784-1.685-.378-.228-.634 2.158-.501 2.647.195.74 3.304 2.327 3.311 1.71Z" clip-rule="evenodd"/>
    <path fill="#111" fill-rule="evenodd" d="M113.658 75.497c-6.246 3.251-10.59 7.662-16.136 11.326h31.119a1.166 1.166 0 0 0 .93-.44l8.301-10.33c.242-.3.149-.556-.329-.556h-23.885Z" clip-rule="evenodd"/>
    <path fill="#232323" fill-rule="evenodd" d="M115.262 108.959h1.746a12.524 12.524 0 0 1-.261-2.547c0-5.755 3.287-10.42 7.776-10.42 4.49 0 7.777 4.665 7.777 10.42.001.846-.084 1.69-.254 2.52-.269 1.303.522 2.238 1.176 2.238.522-1.533.786-3.14.783-4.758 0-6.887-3.759-12.47-9.484-12.47s-9.479 5.583-9.479 12.47c.001.854.074 1.706.22 2.547Zm47.893.116.588 2.093c1.253 0 1.253-1.662 1.14-2.2a12.472 12.472 0 0 1-.262-2.556c0-5.755 3.481-10.42 7.602-10.42 4.12 0 6.83 3.43 7.724 8.037l.314 4.672c.696-1.514 1.145-3.356 1.013-5.035-.609-5.356-3.723-9.725-9.049-9.725s-9.304 5.584-9.304 12.471c-.001.893.077 1.784.234 2.663Z" clip-rule="evenodd"/>
    <path fill="#232323" fill-rule="evenodd" d="M75.745 108.96c.378.701 1.12 1.723 2.02 2.213H114.7c1.137 0 2.307-1.062 2.307-2.213l-1.886-1.03-1.177 1.03H102.26l-1.013-1.03-1.434-3.588c-.284-.71-.771-1.122-1.52-1.122h-21c-.8 0-1.449.343-1.608 1.122l-.594 2.903c.147.595.367 1.17.654 1.714v.001Zm57.223 0 .254 2.211h.711c.318-.009.623-.127.863-.334l2.307-1.877h-4.135Zm25.973 0 3.124 2.211h1.845l.664-2.209-5.633-.002Z" clip-rule="evenodd"/>
    <path fill="#111" fill-rule="evenodd" d="M171.78 77.912c-5.582-1.258-13.313-2.278-18.851-2.512-3.684-.156-10.528-.583-12.564 1.576-2.39 2.532-4.706 6.099-6.77 9.233-.192.292-.051.615.249.615h42.752c.261 0 .456-.296.332-.511l-4.597-7.997a.732.732 0 0 0-.551-.404Z" clip-rule="evenodd"/>
    <path fill="#2E333D" fill-rule="evenodd" d="M134.162 86.303h18.062l-.891-10.455c-3.345-.143-8.952-.244-10.582 1.483-2.484 2.63-4.594 5.934-6.589 8.972Zm-35.561 0c1.731-1.203 3.393-2.487 5.054-3.78 3.045-2.368 6.011-4.652 9.397-6.505h24.176l-8.071 10.043a.616.616 0 0 1-.516.242h-30.04Zm56.777 0h11.374l-3.212-9.341-.853-.119c-2.858-.389-5.768-.706-8.657-.869l1.348 10.329Zm13.381 0-3.255-9.047c2.065.325 4.128.705 6.158 1.163a.25.25 0 0 1 .211.154l4.442 7.73h-7.556Z" clip-rule="evenodd"/>
    <path fill="#1A1A1A" fill-rule="evenodd" d="M134.162 86.303h18.063l-.348-4.1a138.035 138.035 0 0 0-16.27 1.906c-.49.738-.97 1.473-1.443 2.194h-.002Zm-35.561 0h30.04a.627.627 0 0 0 .517-.242l4.485-5.584c-3.2 0-6.493.115-9.851.352-8.087.571-15.698 1.79-22.462 3.484A78.78 78.78 0 0 1 98.6 86.3v.002Zm56.223-4.242a135.55 135.55 0 0 1 10.47 0l1.458 4.241h-11.374l-.554-4.242Zm12.443.093c2.414.134 4.756.337 7.011.602l2.039 3.546h-7.557l-1.493-4.148Z" clip-rule="evenodd"/>
    <path fill="#282828" fill-rule="evenodd" d="M77.84 96.26h21.373l.182.52c.12.344-.235.678-.616.821l-1.642.618c-.721.27-1.479.576-2.367.576H79.457c-.483 0-.89-.253-1.176-.576l-.545-.618c-.206-.234-.174-.547-.077-.82l.19-.52h-.009Zm1.587-3.051H97.58c.334 0 .552.172.68.508l.629 1.673H78.16l.609-1.673c.099-.283.334-.508.663-.508h-.005Z" clip-rule="evenodd"/>
    <path fill="#121212" fill-rule="evenodd" d="M79.064 96.26h20.15l.181.52c.12.344-.235.678-.616.821l-1.642.618c-.721.27-1.479.576-2.367.576H80.675c-.483 0-.89-.253-1.176-.576l-.546-.618c-.205-.234-.174-.547-.076-.82l.188-.52Zm.316-.87.609-1.673c.101-.283.336-.508.666-.508h16.924c.334 0 .552.172.68.508l.629 1.673H79.379Z" clip-rule="evenodd"/>
    <path fill="#282828" fill-rule="evenodd" d="M77.33 107.33h20.251c.348 0 .722-.398.605-.725l-.318-.882c-.117-.327-.463-.63-.814-.63H77.33a.643.643 0 0 0-.452.185.63.63 0 0 0-.188.445v.975a.63.63 0 0 0 .188.446.65.65 0 0 0 .452.186Z" clip-rule="evenodd"/>
    <path fill="#121212" fill-rule="evenodd" d="M78.55 107.33h19.031c.348 0 .722-.398.605-.725l-.318-.882c-.117-.327-.463-.63-.814-.63H78.55a.643.643 0 0 0-.45.185.629.629 0 0 0-.188.445v.975a.63.63 0 0 0 .187.446.65.65 0 0 0 .451.186Z" clip-rule="evenodd"/>
    <path fill="#282828" fill-rule="evenodd" d="M104.243 103.221h4.38c.565 0 1.131.457 1.257 1.015l.23 1.023c.127.558-.233 1.015-.798 1.015h-4.379c-.566 0-1.132-.457-1.258-1.015l-.231-1.023c-.126-.558.234-1.015.799-1.015Z" clip-rule="evenodd"/>
    <path fill="#121212" fill-rule="evenodd" d="M105.375 103.221h3.248c.565 0 1.131.457 1.257 1.015l.23 1.023c.127.558-.233 1.015-.798 1.015h-3.247c-.565 0-1.131-.457-1.257-1.015l-.231-1.023c-.126-.558.236-1.015.798-1.015Z" clip-rule="evenodd"/>
    <path fill="#E5E5E5" fill-rule="evenodd" d="M106.82 103.761h1.446a.884.884 0 0 1 .811.653l.148.661c.082.361-.15.655-.516.655h-1.447a.88.88 0 0 1-.811-.655l-.15-.661c-.079-.358.153-.653.519-.653Z" clip-rule="evenodd"/>
    <path fill="#F0F1F7" d="M151.384 89.749h2.575c.297 0 .538.238.538.531a.535.535 0 0 1-.538.532h-2.575a.536.536 0 0 1-.539-.532c0-.293.242-.531.539-.531Zm13.898 0h2.575c.297 0 .538.238.538.531a.535.535 0 0 1-.538.532h-2.575a.536.536 0 0 1-.539-.532c0-.293.242-.531.539-.531Z"/>
    <path fill="#E5E5E5" fill-rule="evenodd" d="m111.16 92.04-10.311 1.03a.651.651 0 0 0-.483.294.63.63 0 0 0-.062.556l.861 2.398c.125.343.448.543.865.515l6.336-.43a1.22 1.22 0 0 0 .87-.47l2.398-3.01c.292-.37.09-.939-.474-.883Zm-34.373.586c-.818.417-1.351 3.384-1.191 4.188l.435.03c.444.03.789-.171.921-.515l.88-2.295c.15-.391.019-.637-.303-.888l-.742-.52Z" clip-rule="evenodd"/>
    <path fill="#744A9D" fill-rule="evenodd" d="M141.252 82.264h-3.247c-1.919 0-1.92 3.865 0 3.865h3.247c.366 0 .716-.145.975-.4a1.36 1.36 0 0 0 .406-.963v-1.14a1.358 1.358 0 0 0-.406-.962 1.393 1.393 0 0 0-.975-.4Z" clip-rule="evenodd"/>
    <path fill="#744A9D" fill-rule="evenodd" d="m137.404 84.258-1.926.534c-.447.124-.668.486-.601 1.01.064.48.587.81 1.474.59l1.266-.314c.274-.068.584-.237.514-.508l-.213-.805c-.071-.27-.242-.582-.514-.507Z" clip-rule="evenodd"/>
    <path fill="#7E56A3" fill-rule="evenodd" d="M142.002 83.004a.638.638 0 0 0-.446.183.624.624 0 0 0-.186.44v1.46c0 .282-.174.43-.444.43h-3.008c-.578 0-.579.608 0 .608h3.334c.837 0 1.381-.627 1.381-1.405v-1.093a.62.62 0 0 0-.186-.44.636.636 0 0 0-.445-.183Zm-67.372 17.03a.429.429 0 0 1 .183-.584.444.444 0 0 1 .592.18c.123.219.323.384.562.466.305.118.701.171 1.177.171 8.62 0 23.727-.025 31.448-1.641 2.633-.55-.383 2.233-1.404 2.233-8.93.54-21.07.272-30.044.272-.586 0-1.088-.071-1.496-.229a1.872 1.872 0 0 1-1.018-.868Z" clip-rule="evenodd"/>
    <path fill="#232323" d="M135.231 108.959h25.636v1.025h-25.636v-1.025Z"/>
  </g>
  <defs>
    <linearGradient id="b" x1="0" x2="201" y1="67.5" y2="67.5" gradientUnits="userSpaceOnUse">
      <stop offset=".05" stop-color="#F1F2F2" stop-opacity="0"/>
      <stop offset="1" stop-color="#E0E0E0"/>
    </linearGradient>
    <linearGradient id="c" x1="179.86" x2="8.568" y1="128.531" y2="128.531" gradientUnits="userSpaceOnUse">
      <stop stop-color="#E1E2E1"/>
      <stop offset=".41" stop-color="#E6E7E6"/>
      <stop offset=".9" stop-color="#F3F4F5" stop-opacity="0"/>
      <stop offset="1" stop-color="#F7F8F9" stop-opacity="0"/>
    </linearGradient>
    <linearGradient id="d" x1="127.521" x2="139.136" y1="20.369" y2="-36.326" gradientUnits="userSpaceOnUse">
      <stop stop-color="#fff" stop-opacity="0"/>
      <stop offset=".48" stop-color="#fff"/>
      <stop offset="1" stop-color="#fff"/>
    </linearGradient>
    <clipPath id="a">
      <path fill="#fff" d="M0 0h185c8.837 0 16 7.163 16 16v103c0 8.837-7.163 16-16 16H0V0Z"/>
    </clipPath>
    <clipPath id="e">
      <path fill="#fff" d="M0 0h111v43H0z" transform="translate(72 9)"/>
    </clipPath>
  </defs>
</svg>
