<svg width="24" height="24" viewBox="0 0 24 24" fill="none" xmlns="http://www.w3.org/2000/svg">
<path d="M0 12C0 5.37258 5.37258 0 12 0C18.6274 0 24 5.37258 24 12C24 18.6274 18.6274 24 12 24C5.37258 24 0 18.6274 0 12Z" fill="#3E3E52"/>
<path d="M14.2603 7.20041C14.5639 7.48226 14.5814 7.95681 14.2996 8.26034L10.7735 12L14.2996 15.7397C14.5814 16.0432 14.5639 16.5177 14.2603 16.7996C13.9568 17.0815 13.4823 17.0639 13.2004 16.7603L9.2004 12.5103C8.9332 12.2226 8.9332 11.7774 9.2004 11.4897L13.2004 7.23966C13.4823 6.93613 13.9568 6.91856 14.2603 7.20041Z" fill="white"/>
</svg>
