<svg width="1386" height="270" viewBox="0 0 1386 270" fill="none" xmlns="http://www.w3.org/2000/svg">
<path opacity="0.4" fill-rule="evenodd" clip-rule="evenodd" d="M1386 270V140.958H1376.22V129.969H1370.78V109.482H1352.26V102.464H1336.75V96.3796H1308.52V102.464H1293.02V109.482H1274.5V129.969H1269.06V140.958H1263.42V154.697H1259.55V158.829H1263.42V203.48H1260.85V207.612H1263.42V222.268H1260.85V226.402H1263.42V241.862H1248.66V230.037H1251.69V225.625H1246.1V205.478H1239.63V188.014H1233.98V172.338H1228.88V158.365H1224.42V146.002H1220.73V134.894H1217.18V125.044H1213.85V116.579H1216.29C1219.7 112.144 1218.56 104.732 1218.56 104.732C1218.12 104.897 1217.77 105.076 1217.48 105.258C1217.21 104.299 1216.33 103.595 1215.28 103.595C1214.02 103.595 1212.99 104.612 1212.99 105.869C1212.99 106.017 1213.01 106.163 1213.03 106.304C1211.95 104.78 1211.33 102.264 1213.83 98.5344C1213.83 98.5344 1211.39 100.399 1210.74 103.019C1210.26 102.61 1209.59 102.249 1208.73 102.249C1206.73 102.249 1207.17 105.35 1207.17 105.35C1207.17 103.924 1208.6 103.924 1208.6 103.924C1208.6 103.924 1210.16 103.613 1210.16 106.278C1210.16 108.404 1209.09 109.111 1208.5 109.405H1190.65C1190.84 109.083 1190.95 108.71 1190.95 108.311C1190.95 108.18 1190.94 108.051 1190.91 107.927C1193.13 107.191 1192.67 104.868 1192.67 104.868C1192.39 106.332 1190.86 106.655 1190.26 106.725C1190.17 106.648 1190.08 106.577 1189.99 106.514C1190.12 106.297 1190.2 106.043 1190.2 105.769C1190.2 105.46 1190.1 105.172 1189.93 104.937V104.431C1189.88 104.235 1190.05 104.044 1190.24 103.969C1190.43 103.893 1190.64 103.886 1190.83 103.809C1191.24 103.644 1191.45 103.121 1191.28 102.72C1191.23 102.983 1190.91 103.111 1190.64 103.102C1190.37 103.092 1190.11 102.995 1189.84 103.021C1189.37 103.064 1188.98 103.513 1189.04 103.984V104.366C1188.95 104.35 1188.86 104.34 1188.76 104.34C1188.67 104.34 1188.58 104.35 1188.49 104.366V103.984C1188.55 103.513 1188.16 103.064 1187.69 103.021C1187.42 102.995 1187.16 103.092 1186.89 103.102C1186.62 103.111 1186.3 102.983 1186.26 102.72C1186.08 103.121 1186.3 103.644 1186.7 103.809C1186.89 103.886 1187.1 103.893 1187.29 103.969C1187.48 104.044 1187.65 104.235 1187.6 104.431V104.932C1187.43 105.167 1187.33 105.456 1187.33 105.769C1187.33 106.043 1187.41 106.299 1187.54 106.516C1187.45 106.579 1187.36 106.65 1187.28 106.725C1186.67 106.655 1185.14 106.332 1184.87 104.868C1184.87 104.868 1184.4 107.191 1186.62 107.927C1186.6 108.051 1186.58 108.18 1186.58 108.311C1186.58 108.71 1186.69 109.083 1186.88 109.405H1169.03C1168.44 109.111 1167.37 108.404 1167.37 106.278C1167.37 103.613 1168.93 103.924 1168.93 103.924C1168.93 103.924 1170.36 103.924 1170.36 105.35C1170.36 105.35 1170.8 102.249 1168.8 102.249C1167.94 102.249 1167.27 102.61 1166.8 103.019C1166.14 100.399 1163.7 98.5344 1163.7 98.5344C1166.2 102.264 1165.59 104.78 1164.5 106.304C1164.53 106.163 1164.54 106.017 1164.54 105.869C1164.54 104.612 1163.52 103.595 1162.26 103.595C1161.2 103.595 1160.32 104.299 1160.05 105.258C1159.77 105.076 1159.41 104.897 1158.97 104.732C1158.97 104.732 1157.83 112.144 1161.24 116.579H1163.69V125.044H1160.35V134.894H1156.81V146.002H1153.11V158.365H1148.66V172.338H1143.55V188.014H1137.91V205.478H1131.44V224.146H1131.12C1122.46 224.146 1120.12 228.925 1119.49 231.508L1098.97 223.998V216.025L1109.11 209.764V200.556H1114.83C1114.83 195.906 1110.32 192.102 1104.82 192.102H1101.97V187.906H1110.59V182.967H1101.97V177.234H1114.83C1114.83 170.886 1110.32 165.694 1104.82 165.694H1098.72V143.058H1089.81V102.648H1093.17V95.1998H1107.28C1107.28 88.8541 1102.77 83.6623 1097.28 83.6623H1089.81V76.6183H1071.09V67.5451H996.105V76.6183H977.38V83.6623H969.916C964.417 83.6623 959.914 88.8541 959.914 95.1998H974.015V102.648H977.38V143.058H968.465V165.694H962.366C956.864 165.694 952.365 170.886 952.365 177.234H965.218V182.967H956.598V187.906H965.218V192.102H962.366C956.864 192.102 952.365 195.906 952.365 200.556H958.08V209.764L969.48 216.025V233.742L958.08 240.003V249.204H953.086V261.618H902.599V241.721H898.104L897.45 206.844H900.934V203.342H897.384L896.632 163.098H899.331V160.028H896.573L895.733 115.028H897.874V112.354H894.639V104.249H895.628L894.639 103.293C894.639 103.293 898.467 99.334 891.912 94.211L892.066 94.0236C890.964 93.1912 890.157 92.4655 889.567 91.8533C889.548 91.8326 889.527 91.8137 889.508 91.7931C889.508 91.7931 889.505 91.7879 889.501 91.7862C889.486 91.7673 889.467 91.7484 889.449 91.7312C889.449 91.7312 889.448 91.7295 889.446 91.7277C889.429 91.7088 889.411 91.6899 889.394 91.671L889.384 91.6607C889.368 91.6435 889.354 91.628 889.339 91.6108C889.337 91.6091 889.335 91.6056 889.332 91.6039C889.297 91.5661 889.263 91.5283 889.23 91.4904C889.211 91.4681 889.195 91.4509 889.178 91.4319C889.143 91.3924 889.112 91.3563 889.081 91.3202C889.064 91.2978 889.05 91.2841 889.038 91.2686C889.034 91.2651 889.031 91.2617 889.029 91.2583C888.998 91.2239 888.971 91.1895 888.943 91.1551C888.926 91.1362 888.913 91.119 888.901 91.1035L888.898 91.1C888.87 91.0657 888.844 91.033 888.818 91.0003C888.789 90.9625 888.766 90.9315 888.742 90.9006C888.739 90.8971 888.735 90.892 888.732 90.8885C888.721 90.8748 888.713 90.8627 888.704 90.8507C888.69 90.83 888.678 90.8146 888.666 90.7991C888.654 90.7819 888.644 90.7681 888.635 90.7544C888.597 90.7028 888.564 90.6581 888.536 90.6151C888.516 90.5841 888.495 90.5566 888.479 90.5291C888.448 90.4827 888.422 90.4431 888.398 90.4053C888.379 90.3743 888.364 90.3485 888.35 90.3245C888.523 90.2144 888.639 90.0218 888.639 89.8017C888.639 89.5575 888.497 89.3477 888.291 89.2462L888.267 88.5342C888.63 88.4259 888.894 88.094 888.894 87.6985C888.894 87.2788 888.599 86.9315 888.205 86.8455L888.182 86.2023C888.445 86.1301 888.639 85.891 888.639 85.6056C888.639 85.3046 888.422 85.0535 888.137 84.9985L888.016 81.6244L887.895 84.9985C887.61 85.0535 887.394 85.3046 887.394 85.6056C887.394 85.891 887.587 86.1301 887.85 86.2023L887.829 86.8455C887.433 86.9315 887.139 87.2788 887.139 87.6985C887.139 88.094 887.406 88.4259 887.769 88.5342L887.743 89.2462C887.535 89.3477 887.394 89.5575 887.394 89.8017C887.394 90.0218 887.509 90.2144 887.684 90.3245C887.584 90.4913 887.458 90.6822 887.295 90.8937L887.293 90.8971C887.082 91.1757 886.811 91.4973 886.467 91.8533C885.875 92.4655 885.068 93.1912 883.968 94.0236L884.1 94.2248C877.583 99.3357 881.383 103.282 881.393 103.293L880.23 104.249H881.393V112.354H878.107V115.028H880.249L879.407 160.028H876.651V163.098H879.348L878.596 203.342H875.048V206.844H878.532L877.878 241.721H855.989L855.476 214.271H858.294V211.439H855.422L854.812 178.876H856.997V176.393H854.767L854.084 139.985H855.818V137.821H853.2V131.264H854.001L853.2 130.488C853.2 130.488 856.297 127.286 850.992 123.14L851.117 122.99C850.228 122.316 849.574 121.73 849.095 121.235L849.094 121.233C849.076 121.212 849.057 121.193 849.038 121.173C849.03 121.164 849.021 121.155 849.012 121.147C848.999 121.131 848.985 121.116 848.971 121.1L848.955 121.087L848.9 121.025C848.895 121.02 848.888 121.013 848.881 121.004C848.867 120.989 848.853 120.973 848.839 120.958C848.836 120.954 848.831 120.949 848.827 120.946C848.81 120.925 848.793 120.908 848.777 120.889C848.77 120.879 848.763 120.872 848.755 120.863C848.744 120.851 848.734 120.839 848.725 120.827C848.72 120.82 848.713 120.813 848.706 120.806C848.691 120.789 848.675 120.77 848.66 120.751C848.656 120.746 848.651 120.741 848.647 120.736C848.637 120.722 848.625 120.71 848.613 120.696C848.608 120.689 848.601 120.681 848.596 120.674C848.58 120.657 848.568 120.64 848.554 120.622C848.552 120.621 848.551 120.617 848.547 120.615C848.535 120.6 848.523 120.585 848.509 120.569C848.506 120.562 848.502 120.557 848.499 120.554L848.463 120.507C848.459 120.504 848.456 120.499 848.452 120.493C848.44 120.478 848.43 120.462 848.419 120.449C848.414 120.443 848.411 120.438 848.405 120.433C848.395 120.419 848.386 120.406 848.376 120.392C848.373 120.388 848.371 120.385 848.367 120.382C848.359 120.368 848.347 120.352 848.336 120.337C848.331 120.33 848.326 120.323 848.322 120.318C848.316 120.308 848.307 120.297 848.3 120.289C848.296 120.282 848.291 120.275 848.288 120.268C848.277 120.254 848.269 120.241 848.26 120.229C848.255 120.222 848.252 120.215 848.246 120.21C848.239 120.199 848.234 120.191 848.227 120.18C848.224 120.175 848.219 120.17 848.217 120.163C848.208 120.151 848.2 120.137 848.191 120.124C848.188 120.12 848.184 120.113 848.181 120.108C848.174 120.1 848.169 120.089 848.162 120.081C848.16 120.075 848.156 120.07 848.153 120.065L848.129 120.026C848.12 120.012 848.117 120.005 848.111 119.996C848.252 119.909 848.347 119.752 848.347 119.573C848.347 119.376 848.231 119.205 848.065 119.124L848.044 118.547C848.338 118.461 848.552 118.191 848.552 117.871C848.552 117.534 848.312 117.252 847.994 117.181L847.975 116.662C848.189 116.603 848.347 116.409 848.347 116.179C848.347 115.934 848.17 115.731 847.939 115.687L847.842 112.958L847.743 115.687C847.511 115.731 847.339 115.934 847.339 116.179C847.339 116.409 847.496 116.603 847.709 116.662L847.69 117.181C847.37 117.252 847.133 117.534 847.133 117.871C847.133 118.191 847.347 118.461 847.641 118.547L847.62 119.124C847.453 119.205 847.339 119.376 847.339 119.573C847.339 119.752 847.43 119.909 847.57 119.996C847.569 120.003 847.565 120.01 847.56 120.017C847.546 120.039 847.539 120.051 847.53 120.065C847.527 120.07 847.524 120.075 847.52 120.081C847.515 120.089 847.508 120.1 847.503 120.108C847.499 120.113 847.496 120.12 847.492 120.124C847.486 120.137 847.475 120.151 847.466 120.163C847.463 120.17 847.46 120.175 847.456 120.18C847.449 120.191 847.442 120.199 847.435 120.21C847.432 120.215 847.427 120.222 847.425 120.229C847.416 120.241 847.406 120.254 847.396 120.268C847.392 120.275 847.387 120.282 847.382 120.289C847.375 120.297 847.368 120.308 847.361 120.318C847.356 120.323 847.352 120.33 847.349 120.337C847.339 120.351 847.328 120.364 847.318 120.378C847.313 120.385 847.307 120.392 847.302 120.401C847.294 120.409 847.287 120.419 847.28 120.43C847.275 120.437 847.269 120.443 847.264 120.45C847.255 120.462 847.247 120.473 847.238 120.485C847.23 120.495 847.221 120.505 847.214 120.516C847.205 120.526 847.197 120.538 847.188 120.55C847.181 120.557 847.176 120.564 847.171 120.572C847.16 120.583 847.152 120.595 847.141 120.607C847.136 120.614 847.133 120.621 847.128 120.626L847.086 120.676C847.081 120.683 847.074 120.689 847.069 120.696C847.062 120.707 847.051 120.72 847.041 120.732C847.034 120.739 847.027 120.746 847.02 120.755C847.007 120.77 846.993 120.787 846.979 120.805L846.958 120.829L846.927 120.865C846.92 120.873 846.913 120.88 846.906 120.889C846.891 120.906 846.873 120.925 846.856 120.944L846.842 120.961C846.828 120.977 846.815 120.99 846.801 121.008C846.794 121.013 846.789 121.02 846.784 121.025C846.766 121.045 846.747 121.066 846.726 121.087C846.723 121.092 846.718 121.095 846.713 121.1C846.7 121.116 846.685 121.131 846.671 121.147C846.662 121.155 846.654 121.164 846.643 121.174C846.631 121.19 846.616 121.204 846.6 121.219C846.597 121.224 846.592 121.229 846.588 121.235C846.109 121.73 845.456 122.316 844.567 122.99L844.674 123.152C839.398 127.288 842.474 130.481 842.483 130.488L841.543 131.264H842.483V137.821H839.824V139.985H841.556L840.875 176.393H838.645V178.876H840.828L840.22 211.439H837.348V214.271H840.166L839.653 241.721H810.681V159.214H812.023V158.136H811.767C812.03 157.701 812.395 156.6 810.64 155.273C809.976 154.771 809.67 154.401 809.533 154.174H809.54L809.433 151.176L809.324 154.174H809.331C809.196 154.401 808.888 154.771 808.226 155.273C806.471 156.6 806.836 157.701 807.095 158.136H806.929V159.214H808.271V166.448H806.405V144.607H807.747V143.529H807.491C807.752 143.092 808.117 141.993 806.362 140.666C805.7 140.163 805.392 139.794 805.257 139.567L805.155 136.569L805.048 139.567C804.918 139.794 804.612 140.163 803.948 140.666C802.193 141.993 802.558 143.092 802.821 143.529H802.651V144.607H803.993V151.359H801.947C801.947 151.359 800.663 151.417 799.269 152.145V145.445H799.919V144.92H799.796C799.923 144.71 800.097 144.177 799.248 143.534C798.927 143.29 798.78 143.111 798.714 143.001H798.717L798.664 141.548L798.612 143.001C798.55 143.111 798.401 143.29 798.078 143.534C797.229 144.177 797.407 144.71 797.531 144.92H797.45V145.445H798.1V152.925C797.448 153.476 796.848 154.219 796.426 155.22V156.458H797.573V166.448H777.508V159.214H778.85V158.136H778.596C778.857 157.701 779.22 156.6 777.467 155.273C776.803 154.771 776.497 154.401 776.362 154.174L776.26 151.176L776.153 154.174C776.023 154.401 775.717 154.771 775.053 155.273C773.298 156.6 773.663 157.701 773.924 158.136H773.756V159.214H775.098V166.448H769.302V148H771.646L769.302 145.734C769.302 145.734 778.38 136.346 762.831 124.194L763.196 123.749C760.589 121.778 758.671 120.058 757.272 118.605C757.226 118.559 757.184 118.512 757.141 118.468C757.132 118.459 757.122 118.449 757.113 118.44C757.075 118.399 757.035 118.357 756.999 118.318C756.942 118.259 756.899 118.213 756.857 118.167C756.854 118.163 756.85 118.158 756.847 118.155C756.809 118.117 756.774 118.077 756.736 118.038C756.728 118.026 756.719 118.015 756.709 118.005C756.629 117.917 756.55 117.831 756.473 117.745L756.458 117.728C756.425 117.69 756.392 117.652 756.357 117.616C756.352 117.608 756.347 117.601 756.34 117.594C756.266 117.508 756.192 117.425 756.121 117.341C756.115 117.334 756.11 117.329 756.105 117.322C756.07 117.284 756.041 117.247 756.008 117.21C756.005 117.205 756.001 117.202 755.998 117.198C755.963 117.155 755.927 117.114 755.894 117.073C755.86 117.032 755.83 116.994 755.797 116.956L755.778 116.932C755.713 116.853 755.65 116.774 755.588 116.696C755.586 116.693 755.583 116.691 755.581 116.688C755.554 116.652 755.526 116.617 755.498 116.581C755.493 116.578 755.491 116.571 755.486 116.566C755.426 116.49 755.369 116.416 755.313 116.342L755.298 116.321C755.275 116.29 755.251 116.259 755.228 116.228C755.223 116.223 755.22 116.218 755.216 116.213C755.189 116.175 755.161 116.139 755.135 116.103L755.133 116.101C755.109 116.069 755.085 116.034 755.061 116C755.057 115.995 755.052 115.988 755.049 115.983C754.997 115.912 754.948 115.843 754.902 115.776C754.9 115.771 754.896 115.766 754.893 115.762C754.872 115.733 754.852 115.706 754.834 115.676C754.829 115.67 754.824 115.663 754.82 115.658C754.775 115.592 754.732 115.529 754.692 115.467C754.687 115.46 754.684 115.453 754.679 115.446C754.661 115.42 754.646 115.394 754.628 115.37C754.627 115.363 754.622 115.358 754.616 115.351C754.597 115.32 754.578 115.291 754.559 115.262L754.551 115.248C754.535 115.222 754.518 115.197 754.502 115.171C754.499 115.164 754.494 115.157 754.49 115.15C754.475 115.126 754.459 115.1 754.443 115.076C754.442 115.073 754.44 115.069 754.437 115.064C754.419 115.037 754.404 115.007 754.386 114.982C754.798 114.719 755.071 114.259 755.071 113.738C755.071 113.161 754.734 112.66 754.246 112.421L754.186 110.732C755.047 110.479 755.675 109.687 755.675 108.748C755.675 107.757 754.976 106.93 754.041 106.725L753.985 105.202C754.611 105.031 755.071 104.462 755.071 103.786C755.071 103.073 754.559 102.479 753.883 102.345L753.594 94.3451L753.307 102.345C752.628 102.479 752.118 103.073 752.118 103.786C752.118 104.462 752.578 105.031 753.204 105.202L753.148 106.725C752.215 106.93 751.514 107.757 751.514 108.748C751.514 109.687 752.144 110.479 753.005 110.732L752.944 112.421C752.455 112.66 752.118 113.161 752.118 113.738C752.118 114.259 752.393 114.719 752.804 114.978C752.33 115.773 751.594 116.789 750.468 118.019C750.466 118.02 750.466 118.02 750.465 118.022C750.337 118.161 750.204 118.304 750.067 118.45C750.064 118.454 750.06 118.457 750.057 118.459C750.012 118.509 749.965 118.555 749.918 118.605C748.516 120.058 746.602 121.778 743.994 123.749L744.309 124.229H744.314C728.837 136.356 737.878 145.723 737.887 145.734L735.129 148H737.887V166.448H734.102V133.506C734.13 133.479 757.616 109.142 717.406 77.6364H717.42L718.237 76.3913C711.464 71.2683 706.486 66.8005 702.845 63.024C699.101 59.1409 696.77 55.9887 695.349 53.6052C696.419 52.9293 697.132 51.7393 697.132 50.3841C697.132 48.8811 696.257 47.581 694.986 46.9602L694.829 42.5715C697.066 41.9128 698.7 39.8543 698.7 37.4158C698.7 34.8431 696.881 32.6935 694.453 32.1655L694.312 28.205C695.935 27.763 697.132 26.2841 697.132 24.5265C697.132 22.6744 695.804 21.1318 694.042 20.7844L693.295 0L692.546 20.7844C690.786 21.1318 689.458 22.6744 689.458 24.5265C689.458 26.2841 690.653 27.763 692.278 28.205L692.136 32.1655C689.709 32.6935 687.89 34.8431 687.89 37.4158C687.89 39.8543 689.522 41.9128 691.761 42.5715L691.602 46.9602C690.333 47.581 689.458 48.8811 689.458 50.3841C689.458 51.7393 690.169 52.9293 691.239 53.6052C691.22 53.6395 691.199 53.6739 691.178 53.7083C691.177 53.7101 691.175 53.7135 691.175 53.7135C691.153 53.7531 691.127 53.7943 691.102 53.8339L691.101 53.8373C691.078 53.8752 691.054 53.9147 691.03 53.9525C691.028 53.9543 691.026 53.9577 691.025 53.9594C690.978 54.0385 690.93 54.1176 690.878 54.1967C690.872 54.2036 690.869 54.2105 690.865 54.2174C690.843 54.2535 690.819 54.2896 690.796 54.3257C690.796 54.3292 690.795 54.3326 690.793 54.3343C690.739 54.4169 690.686 54.4994 690.632 54.5837C690.63 54.5871 690.629 54.5888 690.627 54.5923C690.544 54.7195 690.459 54.8485 690.373 54.9792C690.371 54.9809 690.369 54.9844 690.368 54.9861C690.221 55.2062 690.068 55.4332 689.908 55.6637C688.481 57.7135 686.493 60.1727 683.743 63.024C680.104 66.8005 675.125 71.2683 668.352 76.3913L669.3 77.5453C628.904 109.114 652.486 133.506 652.486 133.506V166.448H648.696V148H651.454L648.696 145.734C648.701 145.728 657.751 136.359 642.269 124.229H642.274L642.59 123.749C639.981 121.778 638.065 120.058 636.665 118.605C636.616 118.555 636.571 118.509 636.526 118.459C636.523 118.457 636.521 118.454 636.518 118.45C636.379 118.304 636.246 118.161 636.116 118.022L636.115 118.02C634.989 116.789 634.252 115.773 633.779 114.978C634.19 114.719 634.463 114.259 634.463 113.738C634.463 113.161 634.128 112.66 633.64 112.421L633.58 110.732C634.441 110.479 635.069 109.687 635.069 108.748C635.069 107.757 634.37 106.93 633.435 106.725L633.379 105.202C634.005 105.031 634.463 104.462 634.463 103.786C634.463 103.073 633.953 102.479 633.277 102.345L632.988 94.3451L632.7 102.345C632.022 102.479 631.512 103.073 631.512 103.786C631.512 104.462 631.972 105.031 632.596 105.202L632.542 106.725C631.607 106.93 630.908 107.757 630.908 108.748C630.908 109.687 631.536 110.479 632.397 110.732L632.337 112.421C631.849 112.66 631.512 113.161 631.512 113.738C631.512 114.259 631.787 114.719 632.198 114.978C632.179 115.007 632.162 115.037 632.146 115.064C632.145 115.069 632.141 115.073 632.139 115.076L632.093 115.149C632.088 115.157 632.082 115.166 632.077 115.174C632.063 115.2 632.046 115.226 632.029 115.253C632.029 115.253 632.025 115.257 632.024 115.26C632.006 115.29 631.986 115.322 631.965 115.353C631.961 115.358 631.958 115.362 631.956 115.365C631.939 115.393 631.922 115.42 631.904 115.446C631.899 115.453 631.896 115.46 631.891 115.467C631.851 115.53 631.806 115.594 631.761 115.659C631.757 115.664 631.756 115.67 631.752 115.673C631.731 115.702 631.712 115.731 631.692 115.762C631.688 115.768 631.685 115.771 631.681 115.776C631.635 115.843 631.586 115.912 631.536 115.981C631.531 115.988 631.526 115.995 631.52 116.003C631.47 116.072 631.418 116.144 631.363 116.216C631.334 116.256 631.308 116.29 631.28 116.326C631.278 116.33 631.277 116.333 631.273 116.337C631.214 116.412 631.157 116.488 631.097 116.566C631.092 116.571 631.088 116.578 631.083 116.581C631.057 116.617 631.029 116.652 631 116.688C630.998 116.691 630.996 116.693 630.995 116.696C630.931 116.775 630.867 116.856 630.801 116.935C630.796 116.94 630.792 116.946 630.787 116.951C630.72 117.033 630.651 117.118 630.58 117.202C630.547 117.243 630.511 117.284 630.476 117.326C630.473 117.329 630.467 117.334 630.464 117.339C630.391 117.425 630.317 117.51 630.241 117.597L630.227 117.611C630.194 117.651 630.158 117.689 630.125 117.728L630.109 117.745C630.032 117.831 629.954 117.919 629.873 118.007L629.847 118.034C629.767 118.124 629.682 118.213 629.596 118.304C629.546 118.359 629.506 118.4 629.468 118.442C629.459 118.449 629.452 118.457 629.446 118.466C629.402 118.512 629.356 118.557 629.312 118.605C627.91 120.058 625.994 121.778 623.387 123.749L623.752 124.194C608.203 136.346 617.281 145.734 617.281 145.734L614.935 148H617.281V166.448H611.485V159.214H612.827V158.136H612.659C612.919 157.701 613.283 156.6 611.53 155.273C610.866 154.771 610.56 154.401 610.424 154.174L610.321 151.176L610.216 154.174C610.086 154.401 609.78 154.771 609.116 155.273C607.363 156.6 607.726 157.701 607.987 158.136H607.731V159.214H609.075V166.448H589.008V156.458H590.155V155.22C589.735 154.219 589.135 153.476 588.483 152.925V145.445H589.133V144.92H589.052C589.178 144.71 589.354 144.177 588.503 143.534C588.182 143.29 588.035 143.111 587.969 143.001L587.919 141.548L587.865 143.001C587.803 143.111 587.656 143.29 587.335 143.534C586.484 144.177 586.66 144.71 586.786 144.92H586.664V145.445H587.314V152.145C585.92 151.417 584.637 151.359 584.637 151.359H582.588V144.607H583.932V143.529H583.764C584.023 143.092 584.388 141.993 582.635 140.666C581.971 140.163 581.665 139.794 581.528 139.567L581.428 136.569L581.319 139.567C581.191 139.794 580.885 140.163 580.219 140.666C578.468 141.993 578.831 143.092 579.092 143.529H578.836V144.607H580.179V166.448H578.312V159.214H579.654V158.136H579.486C579.747 157.701 580.112 156.6 578.357 155.273C577.693 154.771 577.389 154.401 577.25 154.174L577.15 151.176L577.041 154.174C576.913 154.401 576.607 154.771 575.945 155.273C574.19 156.6 574.555 157.701 574.814 158.136H574.56V159.214H575.9V241.721H546.935L546.422 214.271H549.24V211.439H546.37L545.761 178.876H547.944V176.393H545.713L545.033 139.985H546.766V137.821H544.107V131.264H545.046L544.107 130.488C544.114 130.481 547.191 127.288 541.914 123.152L542.021 122.99C541.134 122.316 540.481 121.73 540.002 121.235C539.998 121.229 539.993 121.224 539.99 121.219C539.974 121.204 539.958 121.19 539.945 121.174C539.934 121.164 539.927 121.155 539.919 121.147C539.905 121.131 539.889 121.116 539.875 121.1C539.87 121.095 539.865 121.092 539.862 121.087C539.843 121.066 539.824 121.045 539.805 121.025C539.799 121.02 539.794 121.013 539.787 121.008C539.775 120.99 539.761 120.977 539.747 120.961C539.742 120.954 539.737 120.949 539.73 120.944C539.715 120.925 539.699 120.906 539.684 120.889C539.677 120.88 539.67 120.873 539.661 120.865L539.632 120.829L539.611 120.805C539.595 120.787 539.581 120.77 539.569 120.755C539.562 120.746 539.556 120.739 539.549 120.732C539.538 120.72 539.528 120.707 539.519 120.696C539.512 120.689 539.507 120.683 539.502 120.676L539.462 120.626C539.457 120.621 539.452 120.614 539.447 120.607C539.436 120.595 539.428 120.583 539.419 120.572C539.414 120.564 539.407 120.557 539.402 120.55C539.393 120.538 539.383 120.526 539.374 120.516C539.365 120.505 539.358 120.495 539.352 120.485C539.343 120.473 539.334 120.462 539.326 120.45C539.32 120.443 539.315 120.437 539.308 120.43C539.301 120.419 539.295 120.409 539.286 120.401C539.282 120.392 539.277 120.385 539.272 120.378C539.262 120.364 539.251 120.351 539.241 120.337C539.236 120.33 539.232 120.323 539.227 120.318C539.22 120.308 539.213 120.297 539.208 120.289L539.192 120.268C539.184 120.254 539.173 120.241 539.165 120.229C539.16 120.222 539.156 120.215 539.153 120.21C539.146 120.199 539.139 120.191 539.134 120.18C539.13 120.175 539.127 120.17 539.123 120.163C539.113 120.151 539.106 120.137 539.097 120.124C539.092 120.12 539.089 120.113 539.085 120.108C539.08 120.1 539.073 120.089 539.068 120.081C539.066 120.075 539.063 120.07 539.059 120.065C539.051 120.051 539.042 120.039 539.035 120.026C539.025 120.01 539.021 120.003 539.018 119.996C539.158 119.909 539.251 119.752 539.251 119.573C539.251 119.376 539.137 119.205 538.969 119.124L538.949 118.547C539.243 118.461 539.457 118.191 539.457 117.871C539.457 117.534 539.218 117.252 538.9 117.181L538.881 116.662C539.094 116.603 539.251 116.409 539.251 116.179C539.251 115.934 539.077 115.731 538.847 115.687L538.748 112.958L538.648 115.687C538.418 115.731 538.243 115.934 538.243 116.179C538.243 116.409 538.401 116.603 538.615 116.662L538.596 117.181C538.276 117.252 538.037 117.534 538.037 117.871C538.037 118.191 538.252 118.461 538.546 118.547L538.525 119.124C538.357 119.205 538.243 119.376 538.243 119.573C538.243 119.752 538.338 119.909 538.478 119.996C538.473 120.005 538.47 120.012 538.465 120.019L538.435 120.065C538.432 120.07 538.428 120.075 538.426 120.081C538.42 120.089 538.414 120.1 538.409 120.108C538.406 120.113 538.402 120.12 538.399 120.124C538.39 120.137 538.382 120.151 538.373 120.163C538.368 120.17 538.364 120.175 538.361 120.18C538.354 120.191 538.349 120.199 538.343 120.21C538.338 120.215 538.335 120.222 538.33 120.229C538.321 120.241 538.312 120.254 538.302 120.268C538.297 120.275 538.292 120.282 538.288 120.289C538.281 120.297 538.274 120.308 538.267 120.318C538.262 120.323 538.259 120.33 538.254 120.337C538.243 120.352 538.231 120.368 538.221 120.382C538.217 120.385 538.216 120.388 538.212 120.392L538.183 120.433C538.179 120.438 538.176 120.443 538.171 120.449C538.16 120.462 538.148 120.478 538.136 120.493C538.133 120.499 538.129 120.504 538.127 120.507L538.091 120.554C538.086 120.557 538.082 120.562 538.079 120.569C538.065 120.585 538.055 120.6 538.043 120.615C538.039 120.617 538.037 120.621 538.036 120.622C538.022 120.64 538.008 120.657 537.992 120.674C537.987 120.681 537.982 120.689 537.977 120.696C537.965 120.71 537.953 120.722 537.942 120.736C537.937 120.741 537.932 120.746 537.929 120.751C537.913 120.77 537.899 120.789 537.884 120.806C537.877 120.813 537.87 120.82 537.865 120.827L537.835 120.863C537.826 120.872 537.82 120.879 537.813 120.889C537.795 120.908 537.778 120.925 537.763 120.946C537.757 120.949 537.754 120.954 537.75 120.958C537.735 120.973 537.721 120.989 537.707 121.004C537.7 121.013 537.695 121.02 537.69 121.025L537.633 121.087L537.619 121.1C537.605 121.116 537.591 121.131 537.576 121.147C537.567 121.155 537.558 121.164 537.552 121.173C537.533 121.193 537.515 121.212 537.495 121.231C537.016 121.73 536.362 122.316 535.471 122.99L535.598 123.14C530.291 127.286 533.388 130.488 533.388 130.488L532.587 131.264H533.388V137.821H530.772V139.985H532.506L531.823 176.393H529.592V178.876H531.778L531.168 211.439H528.296V214.271H531.114L530.601 241.721H508.712L508.058 206.844H511.542V203.342H507.994L507.24 163.098H509.939V160.028H507.183L506.341 115.028H508.483V112.354H505.196V104.249H506.358L505.196 103.293C505.21 103.277 509.004 99.3306 502.485 94.2248L502.62 94.0236C501.522 93.1912 500.714 92.4655 500.123 91.8533C499.779 91.4973 499.507 91.1757 499.297 90.8971C499.132 90.6822 499.006 90.4913 498.906 90.3245C499.08 90.2144 499.196 90.0218 499.196 89.8017C499.196 89.5575 499.053 89.3477 498.847 89.2462L498.821 88.5342C499.184 88.4259 499.449 88.094 499.449 87.6985C499.449 87.2788 499.155 86.9315 498.761 86.8455L498.736 86.2023C499.003 86.1301 499.196 85.891 499.196 85.6056C499.196 85.3046 498.98 85.0535 498.695 84.9985L498.574 81.6244L498.451 84.9985C498.166 85.0535 497.95 85.3046 497.95 85.6056C497.95 85.891 498.143 86.1301 498.408 86.2023L498.384 86.8455C497.991 86.9315 497.695 87.2788 497.695 87.6985C497.695 88.094 497.96 88.4259 498.323 88.5342L498.297 89.2462C498.091 89.3477 497.95 89.5575 497.95 89.8017C497.95 90.0218 498.065 90.2144 498.238 90.3245C498.224 90.3485 498.211 90.3743 498.195 90.3984C498.167 90.4414 498.143 90.4809 498.116 90.5222L498.055 90.6134C498.024 90.6564 497.995 90.7011 497.962 90.7458C497.958 90.7492 497.956 90.7527 497.953 90.7561C497.944 90.7699 497.934 90.7819 497.925 90.7957C497.912 90.8146 497.899 90.8301 497.887 90.8473C497.875 90.8627 497.867 90.8748 497.856 90.8885C497.854 90.892 497.851 90.8971 497.848 90.9006L497.816 90.9401C497.799 90.9642 497.787 90.9797 497.777 90.9951C497.759 91.0141 497.747 91.0295 497.735 91.0433C497.733 91.0467 497.732 91.0502 497.732 91.0502C497.718 91.0674 497.706 91.0828 497.692 91.1C497.676 91.119 497.663 91.1362 497.649 91.1516L497.645 91.1551C497.633 91.1723 497.619 91.1895 497.604 91.2067L497.562 91.2583C497.557 91.2617 497.554 91.2669 497.55 91.272C497.54 91.284 497.529 91.2961 497.517 91.3081C497.512 91.3133 497.509 91.3185 497.503 91.3253C497.476 91.358 497.445 91.3941 497.415 91.4285C497.395 91.4509 497.379 91.4681 497.363 91.4853C497.325 91.5283 497.291 91.5661 497.258 91.6039C497.254 91.6056 497.253 91.6091 497.249 91.6108C497.235 91.628 497.22 91.6435 497.206 91.6607L497.196 91.671C497.178 91.6899 497.159 91.7088 497.142 91.7277C497.121 91.7484 497.104 91.7673 497.087 91.7862C497.083 91.7879 497.082 91.7914 497.08 91.7931C497.061 91.8137 497.042 91.8326 497.023 91.8533C496.431 92.4655 495.624 93.1912 494.524 94.0236L494.678 94.211C488.123 99.334 491.95 103.293 491.95 103.293L490.96 104.249H491.95V112.354H488.714V115.028H490.857L490.015 160.028H487.258V163.098H489.958L489.205 203.342H485.656V206.844H489.138L488.486 241.721H479.265V226.402H481.832V222.268H479.265V207.612H481.832V203.48H479.265V158.829H483.128V154.697H479.265V140.958H473.621V129.969H468.183V109.482H449.659V102.464H434.156V96.3796H405.924V102.464H390.421V109.482H371.897V129.969H366.459V140.958H360.817V154.697H356.952V158.829H360.817V203.48H358.247V207.612H360.817V222.268H358.247V226.402H360.817V241.862H346.062V230.037H349.088V225.625H343.496V205.478H337.027V188.014H331.382V172.338H326.276V158.365H321.825V146.002H318.127V134.894H314.58V125.044H311.246V116.579H313.691C317.101 112.144 315.96 104.732 315.96 104.732C315.522 104.897 315.168 105.076 314.881 105.258C314.613 104.299 313.729 103.595 312.68 103.595C311.416 103.595 310.392 104.612 310.392 105.869C310.392 106.017 310.406 106.163 310.435 106.304C309.346 104.78 308.73 102.264 311.231 98.5344C311.231 98.5344 308.794 100.399 308.137 103.019C307.66 102.61 306.994 102.249 306.13 102.249C304.134 102.249 304.57 105.35 304.57 105.35C304.57 103.924 306.004 103.924 306.004 103.924C306.004 103.924 307.563 103.613 307.563 106.278C307.563 108.404 306.495 109.111 305.903 109.405H288.052C288.24 109.083 288.348 108.71 288.348 108.311C288.348 108.18 288.337 108.051 288.315 107.927C290.535 107.191 290.068 104.868 290.068 104.868C289.793 106.332 288.263 106.655 287.656 106.725C287.573 106.648 287.483 106.577 287.39 106.514C287.523 106.297 287.601 106.043 287.601 105.769C287.601 105.46 287.5 105.172 287.333 104.937V104.431C287.279 104.235 287.454 104.044 287.642 103.969C287.832 103.893 288.043 103.886 288.232 103.809C288.636 103.644 288.851 103.121 288.68 102.72C288.631 102.983 288.315 103.111 288.045 103.102C287.775 103.092 287.511 102.995 287.243 103.021C286.767 103.064 286.383 103.513 286.439 103.984V104.366C286.351 104.35 286.257 104.34 286.166 104.34C286.072 104.34 285.982 104.35 285.894 104.366V103.984C285.953 103.513 285.566 103.064 285.092 103.021C284.822 102.995 284.559 103.092 284.289 103.102C284.02 103.111 283.703 102.983 283.657 102.72C283.484 103.121 283.696 103.644 284.103 103.809C284.291 103.886 284.504 103.893 284.691 103.969C284.881 104.044 285.054 104.235 285.002 104.431V104.932C284.829 105.167 284.73 105.456 284.73 105.769C284.73 106.043 284.806 106.299 284.941 106.516C284.848 106.579 284.76 106.65 284.677 106.725C284.072 106.655 282.54 106.332 282.266 104.868C282.266 104.868 281.798 107.191 284.02 107.927C283.997 108.051 283.985 108.18 283.985 108.311C283.985 108.71 284.092 109.083 284.283 109.405H266.433C265.84 109.111 264.771 108.404 264.771 106.278C264.771 103.613 266.329 103.924 266.329 103.924C266.329 103.924 267.763 103.924 267.763 105.35C267.763 105.35 268.2 102.249 266.205 102.249C265.34 102.249 264.674 102.61 264.197 103.019C263.54 100.399 261.105 98.5344 261.105 98.5344C263.604 102.264 262.987 104.78 261.901 106.304C261.927 106.163 261.941 106.017 261.941 105.869C261.941 104.612 260.917 103.595 259.656 103.595C258.605 103.595 257.722 104.299 257.452 105.258C257.166 105.076 256.812 104.897 256.373 104.732C256.373 104.732 255.232 112.144 258.645 116.579H261.09V125.044H257.753V134.894H254.206V146.002H250.509V158.365H246.057V172.338H240.951V188.014H235.309V205.478H228.837V224.146H228.52C219.862 224.146 217.521 228.925 216.888 231.508L196.374 223.998V216.025L206.512 209.764V200.556H212.227C212.227 195.906 207.724 192.102 202.226 192.102H199.374V187.906H207.994V182.967H199.374V177.234H212.227C212.227 170.886 207.724 165.694 202.226 165.694H196.125V143.058H187.212V102.648H190.575V95.1998H204.677C204.677 88.8541 200.175 83.6623 194.676 83.6623H187.212V76.6183H168.487V67.5451H93.5055V76.6183H74.7809V83.6623H67.3163C61.8177 83.6623 57.3151 88.8541 57.3151 95.1998H71.416V102.648H74.7809V143.058H65.8655V165.694H59.7669C54.2649 165.694 49.7657 170.886 49.7657 177.234H62.6183V182.967H53.9986V187.906H62.6183V192.102H59.7669C54.2649 192.102 49.7657 195.906 49.7657 200.556H55.4805V209.764L66.8805 216.025V233.742L55.4805 240.003V249.204H50.4868V261.618H0V269.823H274.305V241.277H298.027V269.823H311.129V270H379.458V269.823H402.867V212.976C402.867 197.915 410.62 192.795 420.115 192.769C429.608 192.795 437.361 197.915 437.361 212.976V269.823H1176.9V241.277H1200.63V269.823H1213.73V270H1282.06V269.823H1305.47V212.976C1305.47 197.915 1313.22 192.795 1322.71 192.769C1332.21 192.795 1339.96 197.915 1339.96 212.976V269.823H1381.86L1386 270Z" fill="url(#paint0_linear_5320_35105)"/>
<defs>
<linearGradient id="paint0_linear_5320_35105" x1="693" y1="27.9492" x2="693" y2="270" gradientUnits="userSpaceOnUse">
<stop offset="0.485594" stop-color="#EBEBEB"/>
<stop offset="1" stop-color="#F0F1F2" stop-opacity="0"/>
</linearGradient>
</defs>
</svg>
