<svg width="201" height="135" viewBox="0 0 201 135" fill="none" xmlns="http://www.w3.org/2000/svg">
<g clip-path="url(#clip0_5124_68144)">
<path d="M201 0H0V135H201V0Z" fill="url(#paint0_linear_5124_68144)"/>
<path opacity="0.8" d="M55.775 0V5.95125C81.7219 12.1469 144.613 26.6081 127.65 20.9013C106.519 13.7137 53.7913 3.89562 74.4625 5.865C95.1338 7.83437 112.829 15.9275 127.248 17.8681C141.666 19.8088 184.417 29.6988 179.961 27.7294C175.504 25.76 129.835 15.1081 131.704 15.065C133.573 15.0219 165.758 22.6838 189.736 28.405C194.393 29.5119 198.217 30.4031 201.236 31.1075V29.785C189.189 26.3925 168.834 22.2094 146.151 16.8475C126.601 12.0894 104.319 5.75 102.192 5.14625L104.938 5.90813C117.027 9.35813 135.441 12.6069 142.428 12.9375C146.007 13.11 171.997 19.5931 201.25 27.3125V0H55.775Z" fill="url(#paint1_linear_5124_68144)"/>
<path d="M125.767 71.1606C128.387 71.1606 130.511 69.0368 130.511 66.4169C130.511 63.797 128.387 61.6731 125.767 61.6731C123.147 61.6731 121.023 63.797 121.023 66.4169C121.023 69.0368 123.147 71.1606 125.767 71.1606Z" fill="url(#paint2_linear_5124_68144)"/>
<path d="M201.25 97.8831V108.736H69.1725C70.0606 106.711 71.6691 105.087 73.6862 104.179C74.6799 103.616 75.7185 103.135 76.7912 102.742C77.4094 102.526 78.0562 102.311 78.7319 102.124C80.8221 101.546 82.9652 101.18 85.1287 101.031H85.9769H86.25C88.8048 100.923 91.3641 101.043 93.8975 101.391L94.645 101.491C95.8977 101.659 97.1692 101.625 98.4112 101.391C98.6484 101.361 98.8836 101.318 99.1156 101.261H99.3744C99.6607 101.205 99.9439 101.133 100.222 101.046C104.319 99.9388 108.517 97.7106 112.901 97.4806C113.538 97.4303 114.177 97.4303 114.813 97.4806C117.317 97.688 119.79 98.17 122.187 98.9181C123.107 99.2056 123.941 99.5075 124.789 99.7806C126.22 100.258 127.693 100.595 129.188 100.787C131.095 101.033 133.016 101.143 134.938 101.118C135.585 101.118 136.232 101.118 136.85 101.118L138.474 101.003C141.536 100.713 144.566 100.155 147.531 99.335C148.609 99.0619 149.672 98.76 150.722 98.4725C152.346 98.0125 153.956 97.5669 155.581 97.1644C157.264 96.7572 158.967 96.4405 160.684 96.2156L161.345 96.1438C161.848 96.1438 162.366 96.0287 162.897 96H163.243C164.364 96 165.514 96 166.707 96C168.802 96.1039 170.885 96.3877 172.931 96.8481L173.276 96.9344C174.239 97.1644 175.131 97.4231 176.022 97.6819L176.539 97.84C177.776 98.2281 178.983 98.6163 180.306 98.99C183.038 99.7521 185.842 100.234 188.672 100.428L189.894 100.499H190.541H192.323C195.386 100.321 198.374 99.4777 201.078 98.0269L201.25 97.8831Z" fill="white"/>
<path d="M27.0106 113.121H104.636V104.496C98.6844 105.546 93.4375 107.687 86.7675 108.564C85.7756 108.694 84.7694 108.794 83.72 108.852C83.0156 108.852 82.2825 108.852 81.5781 108.852H81.1037C78.9044 108.852 77.0069 108.852 75.3537 108.722L73.7437 108.636H73.3269C72.105 108.55 70.9981 108.435 69.92 108.32C67.9794 108.119 66.1969 107.874 64.2994 107.63L61.4244 107.271H61.1656L60.3175 107.184C58.5781 106.998 56.6519 106.825 54.3806 106.696C48.9964 106.388 43.5961 106.872 38.3525 108.133C37.6769 108.291 37.0156 108.464 36.3831 108.651L36.0381 108.751L35.7506 108.837C35.3194 108.967 34.8881 109.096 34.4856 109.24L34.2412 109.326C33.4219 109.599 32.6744 109.887 31.9556 110.189C30.7378 110.683 29.5684 111.29 28.4625 112C28.2181 112.158 27.9881 112.331 27.7869 112.489C27.5169 112.685 27.2578 112.897 27.0106 113.121Z" fill="url(#paint3_linear_5124_68144)"/>
<path opacity="0.3" d="M51.0456 99.7956C57.9526 99.7956 63.5519 94.1964 63.5519 87.2894C63.5519 80.3824 57.9526 74.7831 51.0456 74.7831C44.1386 74.7831 38.5394 80.3824 38.5394 87.2894C38.5394 94.1964 44.1386 99.7956 51.0456 99.7956Z" fill="#E1E0E1"/>
<path opacity="0.4" d="M53.1875 90.9981C53.1156 90.9981 52.555 91.4006 52.3825 91.4869C52.1578 91.6058 51.9219 91.7021 51.6781 91.7744C51.4415 92.5003 51.1282 93.1991 50.7438 93.8588C50.5119 94.2754 50.2425 94.67 49.9388 95.0375C49.9388 97.1938 49.795 99.7238 49.795 101.434V102.009C49.795 103.447 49.9963 106.753 50.1688 109.542C50.255 110.979 50.3556 112.417 50.4131 113.121H47.8544C47.8462 113.083 47.8462 113.044 47.8544 113.006C47.8544 112.719 47.8544 111.396 47.9694 109.772C48.07 107.17 48.185 103.763 48.1275 102.383C48.1275 102.096 48.1275 101.722 48.1275 101.305C48.1275 100.558 48.1275 99.7238 48.1275 99.2206C48.1275 98.9475 47.7106 97.1938 47.5238 95.8138C47.3369 94.4338 47.035 93.1113 46.9488 92.6944C46.8625 92.2775 47.2363 91.8894 47.3656 92.4931C47.7093 94.4412 48.1896 96.3626 48.8031 98.2431C49.0331 98.3725 49.1769 98.1138 49.22 97.2513C49.417 95.3845 49.4986 93.5074 49.4644 91.6306C49.4644 91.4725 49.4644 90.7969 49.4644 90.0206C49.3206 89.8194 48.9038 89.0144 48.76 88.7844C48.6163 88.5544 48.76 88.4538 48.9181 88.6406C49.1368 88.9405 49.3383 89.2525 49.5219 89.575C49.5219 89.1438 49.5219 88.7125 49.6225 88.3531C49.7375 87.6344 50.1544 88.2381 50.1113 88.5688C50.0187 89.6113 50.0187 90.66 50.1113 91.7025C50.1113 92.335 50.1113 93.255 50.1113 94.29C50.5711 93.6941 50.9617 93.0479 51.2756 92.3638C51.5775 91.7025 52.1381 89.9775 52.2819 89.6469C52.4256 89.3163 52.4544 89.7475 52.3969 89.9775C52.3394 90.2075 52.0806 90.9981 51.9081 91.53C52.0519 91.4581 52.2675 91.3863 52.4113 91.3288C52.555 91.2713 53.0294 90.9838 53.2881 90.8831C53.5469 90.7825 53.3025 90.9119 53.1875 90.9981Z" fill="#ACACAE"/>
<path d="M61.4962 113.121H53.4462C53.4462 110.994 54.0356 112.359 54.0356 112.359C54.0356 112.359 54.2081 110.792 54.6106 110.735C55.0131 110.677 55.1569 112.273 55.1569 112.273C55.1569 112.273 55.5594 109.987 56.1056 109.901C56.6518 109.815 56.2062 112 56.2062 112C56.4014 111.852 56.6371 111.767 56.8819 111.756C57.0113 111.756 57.137 111.799 57.2405 111.876C57.344 111.954 57.4199 112.063 57.4569 112.187C57.4569 112.187 57.8881 111.31 58.2618 111.324C58.6356 111.339 58.5206 112.244 58.5206 112.244C58.5206 112.244 59.6562 111.411 59.9581 111.425C60.26 111.439 59.9581 112.676 59.9581 112.676C60.367 112.45 60.828 112.336 61.295 112.345C62.1143 112.316 62.1 112.704 61.4962 113.121Z" fill="#E1E0E1"/>
<path d="M85.9481 113.121H57.8594C57.9887 111.598 59.9006 112.575 59.9006 112.575C60.1149 112.231 60.4105 111.945 60.7615 111.742C61.1124 111.538 61.5079 111.425 61.9131 111.411C62.3019 111.408 62.6845 111.507 63.0227 111.699C63.3608 111.891 63.6425 112.168 63.8394 112.503C64.6932 111.555 65.8639 110.952 67.1313 110.807C68.7844 110.807 67.4906 112.331 67.4906 112.331C68.2716 112.219 69.0593 112.162 69.8481 112.158C70.5338 112.083 71.2271 112.187 71.8606 112.46C72.7436 112.098 73.6818 111.889 74.635 111.842C76.2306 111.842 75.555 112.503 75.555 112.503C75.555 112.503 79.5512 111.899 80.7875 111.914C82.4981 111.914 80.5719 112.819 80.5719 112.819C82.1179 112.643 83.6733 112.561 85.2294 112.575C88.1187 112.546 88.0469 112.834 85.9481 113.121Z" fill="#E1E0E1"/>
<path d="M171.077 85.9813H170.329C170.21 85.9813 170.114 86.0778 170.114 86.1969V87.9219C170.114 88.041 170.21 88.1375 170.329 88.1375H171.077C171.196 88.1375 171.293 88.041 171.293 87.9219V86.1969C171.293 86.0778 171.196 85.9813 171.077 85.9813Z" fill="white"/>
<g opacity="0.78">
<path opacity="0.78" d="M201.063 80.4994V101.142H112.916C112.916 97.1744 112.916 83.3887 112.916 81.29C112.916 80.6287 113.117 80.2837 113.836 80.2837H115.158C115.776 80.2837 115.819 79.8956 115.819 79.45C115.819 79.0044 115.819 77.725 115.819 77.0637C115.819 76.4025 116.438 76.4744 117.07 76.4744C119.025 76.4744 122.173 76.4744 124.258 76.4744C124.847 76.4744 124.847 76.7619 124.847 77.1213V80.7869C124.847 80.9193 124.897 81.0467 124.988 81.143C125.079 81.2393 125.203 81.297 125.336 81.3044H130.252C130.404 81.2892 130.547 81.2226 130.657 81.1155C130.767 81.0084 130.837 80.8672 130.856 80.715C130.856 79.8813 130.856 73.9444 130.856 70.825C130.859 70.8758 130.882 70.9234 130.919 70.9581C130.957 70.9928 131.006 71.012 131.057 71.0119H135.111C135.164 71.0119 135.215 70.9907 135.253 70.9529C135.291 70.9152 135.312 70.864 135.312 70.8106V70.365C135.312 70.3116 135.291 70.2604 135.253 70.2227C135.215 70.185 135.164 70.1637 135.111 70.1637H130.985C130.932 70.1637 130.88 70.185 130.843 70.2227C130.805 70.2604 130.784 70.3116 130.784 70.365V69.6319C130.784 69.0856 130.928 68.8987 131.388 68.8987H138.029C138.082 68.9006 138.134 68.9129 138.182 68.9348C138.23 68.9568 138.273 68.988 138.309 69.0267C138.345 69.0654 138.373 69.1109 138.392 69.1605C138.41 69.21 138.419 69.2628 138.417 69.3156C138.417 69.7469 138.417 71.0406 138.417 71.745C138.421 71.8569 138.468 71.9629 138.548 72.0407C138.629 72.1185 138.736 72.1619 138.848 72.1619H140.731C141.206 72.1619 141.378 72.1619 141.378 72.6219V74.4762C141.378 74.5029 141.389 74.5285 141.408 74.5474C141.426 74.5663 141.452 74.5769 141.479 74.5769H150.564C150.59 74.5769 150.616 74.5663 150.635 74.5474C150.654 74.5285 150.664 74.5029 150.664 74.4762V74.2606C150.664 74.2339 150.654 74.2083 150.635 74.1895C150.616 74.1706 150.59 74.16 150.564 74.16H143.376C143.707 74.16 143.793 74.0019 143.793 73.6569C143.793 71.4862 143.793 60.7194 143.793 58.0456C143.791 57.9682 143.805 57.8912 143.832 57.819C143.86 57.7467 143.902 57.6807 143.956 57.6246C144.009 57.5685 144.073 57.5235 144.144 57.4922C144.214 57.4608 144.291 57.4437 144.368 57.4419L150.032 57.3269C150.095 57.3249 150.159 57.3358 150.218 57.3588C150.277 57.3817 150.331 57.4164 150.377 57.4606C150.422 57.5049 150.458 57.5578 150.483 57.6163C150.508 57.6748 150.521 57.7377 150.521 57.8012L150.607 63.12H146.294C146.259 63.1198 146.224 63.133 146.198 63.1569C146.171 63.1808 146.154 63.2138 146.151 63.2494V63.5369C146.157 63.5713 146.174 63.6027 146.2 63.6261C146.226 63.6495 146.259 63.6636 146.294 63.6662H152.907C152.977 63.6726 153.048 63.6637 153.114 63.6402C153.181 63.6166 153.241 63.5789 153.292 63.5298C153.342 63.4806 153.382 63.4211 153.407 63.3554C153.432 63.2896 153.443 63.2191 153.439 63.1487C153.439 61.8694 153.223 55.4006 153.223 53.9487C153.223 53.6469 153.381 53.0287 153.956 53.0287H161.676C162.423 53.0287 162.553 53.345 162.553 54.2075C162.553 55.07 162.725 66.0237 162.725 66.9869C162.725 67.6194 162.725 67.9356 163.329 67.9356C163.933 67.9356 164.148 67.9356 165.126 67.9356C165.442 67.9356 165.571 67.7056 165.571 67.3606C165.571 65.535 165.571 60.36 165.571 59.6556C165.571 58.9512 165.672 58.3044 166.491 58.3044H172.586C173.276 58.3044 173.42 58.6781 173.42 59.5119V64.3419C173.42 64.7731 173.837 64.9744 174.412 64.9744H179.688C180.176 64.9744 180.306 65.0606 180.306 65.6931C180.306 66.3256 180.306 81.1319 180.306 82.0662C180.306 82.67 180.493 83.2162 181.183 83.2162H183.353C184.058 83.2162 184.101 83.015 184.101 82.5406V75.425C184.101 74.5769 184.848 74.2606 185.811 74.2606H191.806C192.596 74.2606 192.769 74.6919 192.769 75.2237V79.0475C192.769 79.6513 193.099 79.8381 193.617 79.8381H200.229C200.934 79.8381 201.063 79.795 201.063 80.4994Z" fill="url(#paint4_linear_5124_68144)"/>
<path opacity="0.78" d="M162.883 66.9581V101.156H160.669V53H161.834C162.581 53 162.711 53.3162 162.711 54.1787C162.711 55.0412 162.883 65.995 162.883 66.9581Z" fill="url(#paint5_linear_5124_68144)"/>
<path opacity="0.78" d="M124.789 77.0494V101.156H122.188V77.0781C122.188 76.6756 122.188 76.4312 121.771 76.4312C121.771 76.4312 123.553 76.4312 124.2 76.4312C124.847 76.4312 124.789 76.7044 124.789 77.0494Z" fill="url(#paint6_linear_5124_68144)"/>
<path opacity="0.78" d="M155.566 74.1169H150.708V101.156H155.566V74.1169Z" fill="url(#paint7_linear_5124_68144)"/>
<path opacity="0.78" d="M138.46 71.7019V101.156H136.836V69.2869C136.836 69.1 136.836 68.8556 136.448 68.8412H138C138.103 68.852 138.198 68.9006 138.267 68.9776C138.336 69.0547 138.374 69.1546 138.374 69.2581C138.417 69.7037 138.446 71.0119 138.46 71.7019Z" fill="url(#paint8_linear_5124_68144)"/>
<path opacity="0.78" d="M180.291 64.9169H176.008V101.156H180.291V64.9169Z" fill="url(#paint9_linear_5124_68144)"/>
</g>
<path d="M166.52 71.4719H165.773C165.653 71.4719 165.557 71.5684 165.557 71.6875V73.4125C165.557 73.5316 165.653 73.6281 165.773 73.6281H166.52C166.639 73.6281 166.736 73.5316 166.736 73.4125V71.6875C166.736 71.5684 166.639 71.4719 166.52 71.4719Z" fill="white"/>
<path d="M168.791 71.4719H168.044C167.925 71.4719 167.828 71.5684 167.828 71.6875V73.4125C167.828 73.5316 167.925 73.6281 168.044 73.6281H168.791C168.91 73.6281 169.007 73.5316 169.007 73.4125V71.6875C169.007 71.5684 168.91 71.4719 168.791 71.4719Z" fill="white"/>
<path d="M158.599 58.6494H157.852C157.733 58.6494 157.636 58.7459 157.636 58.865V60.59C157.636 60.7091 157.733 60.8056 157.852 60.8056H158.599C158.718 60.8056 158.815 60.7091 158.815 60.59V58.865C158.815 58.7459 158.718 58.6494 158.599 58.6494Z" fill="white"/>
<path d="M158.599 65.5494H157.852C157.733 65.5494 157.636 65.6459 157.636 65.765V67.49C157.636 67.6091 157.733 67.7056 157.852 67.7056H158.599C158.718 67.7056 158.815 67.6091 158.815 67.49V65.765C158.815 65.6459 158.718 65.5494 158.599 65.5494Z" fill="white"/>
<path d="M148.364 65.5494H147.617C147.498 65.5494 147.401 65.6459 147.401 65.765V67.49C147.401 67.6091 147.498 67.7056 147.617 67.7056H148.364C148.483 67.7056 148.58 67.6091 148.58 67.49V65.765C148.58 65.6459 148.483 65.5494 148.364 65.5494Z" fill="white"/>
<path d="M150.19 65.5494H149.442C149.323 65.5494 149.227 65.6459 149.227 65.765V67.49C149.227 67.6091 149.323 67.7056 149.442 67.7056H150.19C150.309 67.7056 150.406 67.6091 150.406 67.49V65.765C150.406 65.6459 150.309 65.5494 150.19 65.5494Z" fill="white"/>
<path d="M171.077 71.4719H170.329C170.21 71.4719 170.114 71.5684 170.114 71.6875V73.4125C170.114 73.5316 170.21 73.6281 170.329 73.6281H171.077C171.196 73.6281 171.293 73.5316 171.293 73.4125V71.6875C171.293 71.5684 171.196 71.4719 171.077 71.4719Z" fill="white"/>
<path d="M187.047 77.7681H186.3C186.181 77.7681 186.084 77.8647 186.084 77.9838V79.7088C186.084 79.8278 186.181 79.9244 186.3 79.9244H187.047C187.167 79.9244 187.263 79.8278 187.263 79.7088V77.9838C187.263 77.8647 187.167 77.7681 187.047 77.7681Z" fill="white"/>
<path d="M135.154 85.9813H134.406C134.287 85.9813 134.191 86.0778 134.191 86.1969V87.9219C134.191 88.041 134.287 88.1375 134.406 88.1375H135.154C135.273 88.1375 135.369 88.041 135.369 87.9219V86.1969C135.369 86.0778 135.273 85.9813 135.154 85.9813Z" fill="white"/>
<path d="M147.545 85.9813H146.798C146.678 85.9813 146.582 86.0778 146.582 86.1969V87.9219C146.582 88.041 146.678 88.1375 146.798 88.1375H147.545C147.664 88.1375 147.761 88.041 147.761 87.9219V86.1969C147.761 86.0778 147.664 85.9813 147.545 85.9813Z" fill="white"/>
<path d="M145.029 85.9813H144.282C144.163 85.9813 144.066 86.0778 144.066 86.1969V87.9219C144.066 88.041 144.163 88.1375 144.282 88.1375H145.029C145.148 88.1375 145.245 88.041 145.245 87.9219V86.1969C145.245 86.0778 145.148 85.9813 145.029 85.9813Z" fill="white"/>
<path d="M141.896 85.9813H141.148C141.029 85.9813 140.932 86.0778 140.932 86.1969V87.9219C140.932 88.041 141.029 88.1375 141.148 88.1375H141.896C142.015 88.1375 142.111 88.041 142.111 87.9219V86.1969C142.111 86.0778 142.015 85.9813 141.896 85.9813Z" fill="white"/>
<path d="M141.896 90.9838H141.148C141.029 90.9838 140.932 91.0803 140.932 91.1994V92.9244C140.932 93.0435 141.029 93.14 141.148 93.14H141.896C142.015 93.14 142.111 93.0435 142.111 92.9244V91.1994C142.111 91.0803 142.015 90.9838 141.896 90.9838Z" fill="white"/>
<path d="M83.605 85.2719C99.6963 85.2719 112.741 72.2273 112.741 56.1359C112.741 40.0446 99.6963 27 83.605 27C67.5137 27 54.4691 40.0446 54.4691 56.1359C54.4691 72.2273 67.5137 85.2719 83.605 85.2719Z" fill="#614289"/>
<path d="M107.855 60.809C110.435 47.4133 101.666 34.4628 88.2708 31.8832C74.8752 29.3036 61.9247 38.0718 59.3451 51.4674C56.7655 64.8631 65.5336 77.8136 78.9293 80.3932C92.3249 82.9727 105.275 74.2046 107.855 60.809Z" fill="white"/>
<path opacity="0.4" d="M75.8848 42.7557C75.8466 42.7564 75.8089 42.7463 75.7761 42.7266C75.7432 42.7069 75.7166 42.6784 75.6992 42.6443L73.4908 38.8214C73.4543 38.7806 73.4341 38.7277 73.4341 38.6729C73.4341 38.6182 73.4543 38.5653 73.4908 38.5245C73.5115 38.5037 73.5361 38.4872 73.5632 38.476C73.5903 38.4648 73.6193 38.459 73.6486 38.459C73.6779 38.459 73.7069 38.4648 73.734 38.476C73.7611 38.4872 73.7856 38.5037 73.8063 38.5245L76.0147 42.3474C76.0526 42.3912 76.0734 42.4472 76.0734 42.5052C76.0734 42.5631 76.0526 42.6191 76.0147 42.6629L75.8848 42.7557Z" fill="#7E56A4"/>
<path opacity="0.4" d="M70.1319 48.4344H70.0205L66.1976 46.226C66.1645 46.1836 66.1465 46.1314 66.1465 46.0776C66.1465 46.0238 66.1645 45.9715 66.1976 45.9291C66.2252 45.8779 66.2717 45.8396 66.3272 45.8223C66.3826 45.8049 66.4427 45.81 66.4945 45.8363L70.3174 48.0076C70.3553 48.0514 70.3761 48.1074 70.3761 48.1653C70.3761 48.2233 70.3553 48.2793 70.3174 48.3231C70.2963 48.3539 70.2688 48.3798 70.2368 48.399C70.2048 48.4182 70.169 48.4303 70.1319 48.4344Z" fill="#7E56A4"/>
<path opacity="0.4" d="M66.2903 66.1572C66.249 66.1616 66.2073 66.1534 66.1709 66.1335C66.1344 66.1136 66.1048 66.083 66.0862 66.0459C66.0599 65.9941 66.0548 65.934 66.0721 65.8785C66.0895 65.8231 66.1278 65.7765 66.179 65.749L70.0019 63.5406C70.021 63.5203 70.044 63.5042 70.0695 63.4932C70.0951 63.4822 70.1226 63.4765 70.1504 63.4765C70.1782 63.4765 70.2057 63.4822 70.2312 63.4932C70.2567 63.5042 70.2798 63.5203 70.2988 63.5406C70.3354 63.5814 70.3555 63.6342 70.3555 63.689C70.3555 63.7438 70.3354 63.7967 70.2988 63.8375L66.4759 66.0459L66.2903 66.1572Z" fill="#7E56A4"/>
<path opacity="0.4" d="M73.5651 73.469H73.4537C73.4335 73.45 73.4174 73.4269 73.4064 73.4014C73.3954 73.3759 73.3897 73.3484 73.3897 73.3206C73.3897 73.2928 73.3954 73.2653 73.4064 73.2397C73.4174 73.2142 73.4335 73.1912 73.4537 73.1721L75.6621 69.3492C75.6812 69.3071 75.7129 69.272 75.7528 69.2487C75.7927 69.2254 75.8388 69.2152 75.8848 69.2193C75.9155 69.2396 75.9406 69.2672 75.9579 69.2995C75.9753 69.3319 75.9844 69.3681 75.9844 69.4049C75.9844 69.4416 75.9753 69.4778 75.9579 69.5102C75.9406 69.5425 75.9155 69.5701 75.8848 69.5904L73.7692 73.302C73.7532 73.3455 73.7258 73.384 73.6899 73.4134C73.654 73.4427 73.6109 73.4619 73.5651 73.469Z" fill="#7E56A4"/>
<path opacity="0.4" d="M93.4963 73.5062C93.458 73.5069 93.4203 73.4968 93.3875 73.4771C93.3547 73.4574 93.3281 73.4289 93.3107 73.3948L91.1023 69.5905C91.0644 69.5466 91.0436 69.4906 91.0436 69.4327C91.0436 69.3748 91.0644 69.3188 91.1023 69.275C91.1541 69.2486 91.2142 69.2436 91.2696 69.2609C91.3251 69.2783 91.3716 69.3166 91.3992 69.3678L93.6076 73.1907C93.634 73.2425 93.639 73.3026 93.6217 73.3581C93.6043 73.4135 93.566 73.46 93.5148 73.4876L93.4963 73.5062Z" fill="#7E56A4"/>
<path opacity="0.4" d="M100.808 66.2129C100.791 66.2212 100.772 66.2254 100.752 66.2254C100.733 66.2254 100.714 66.2212 100.697 66.2129L96.8739 64.0231C96.8392 63.9778 96.8205 63.9223 96.8205 63.8653C96.8205 63.8083 96.8392 63.7529 96.8739 63.7076C96.8929 63.6874 96.916 63.6713 96.9415 63.6602C96.967 63.6492 96.9945 63.6436 97.0223 63.6436C97.0501 63.6436 97.0776 63.6492 97.1032 63.6602C97.1287 63.6713 97.1517 63.6874 97.1708 63.7076L100.919 65.8789C100.971 65.9065 101.009 65.953 101.026 66.0084C101.044 66.0639 101.039 66.124 101.012 66.1758C100.983 66.1957 100.949 66.2092 100.914 66.2156C100.879 66.222 100.843 66.2211 100.808 66.2129Z" fill="#7E56A4"/>
<path opacity="0.4" d="M97.0223 48.4901C96.9841 48.4908 96.9464 48.4807 96.9136 48.461C96.8807 48.4413 96.8541 48.4128 96.8367 48.3787C96.816 48.3581 96.7995 48.3335 96.7883 48.3064C96.777 48.2793 96.7712 48.2503 96.7712 48.221C96.7712 48.1917 96.777 48.1627 96.7883 48.1356C96.7995 48.1085 96.816 48.0839 96.8367 48.0633L100.66 45.8549C100.714 45.8276 100.777 45.822 100.836 45.8392C100.894 45.8564 100.944 45.8952 100.975 45.9477C101.012 45.9885 101.032 46.0413 101.032 46.0961C101.032 46.1509 101.012 46.2038 100.975 46.2446L97.1522 48.453L97.0223 48.4901Z" fill="#7E56A4"/>
<path opacity="0.4" d="M91.3622 42.7928H91.2508C91.1997 42.7652 91.1613 42.7187 91.144 42.6632C91.1267 42.6078 91.1317 42.5477 91.158 42.4959L93.3664 38.673C93.3871 38.6522 93.4117 38.6357 93.4388 38.6245C93.4658 38.6132 93.4949 38.6075 93.5242 38.6075C93.5535 38.6075 93.5825 38.6132 93.6096 38.6245C93.6366 38.6357 93.6612 38.6522 93.6819 38.673C93.7184 38.7138 93.7386 38.7666 93.7386 38.8214C93.7386 38.8762 93.7184 38.929 93.6819 38.9699L91.5477 42.6815C91.5304 42.7155 91.5037 42.7441 91.4709 42.7638C91.4381 42.7834 91.4004 42.7935 91.3622 42.7928Z" fill="#7E56A4"/>
<path opacity="0.4" d="M83.6049 40.9185C83.5465 40.9185 83.4885 40.9069 83.4345 40.8846C83.3805 40.8622 83.3314 40.8294 83.29 40.788C83.2486 40.7467 83.2158 40.6976 83.1935 40.6435C83.1711 40.5895 83.1595 40.5316 83.1595 40.4731V36.0563C83.1595 35.9978 83.1711 35.9399 83.1935 35.8858C83.2158 35.8318 83.2486 35.7827 83.29 35.7414C83.3314 35.7 83.3805 35.6672 83.4345 35.6448C83.4885 35.6224 83.5465 35.6109 83.6049 35.6109C83.7231 35.6109 83.8364 35.6578 83.9199 35.7414C84.0034 35.8249 84.0503 35.9382 84.0503 36.0563V40.4731C84.0503 40.5912 84.0034 40.7045 83.9199 40.788C83.8364 40.8715 83.7231 40.9185 83.6049 40.9185Z" fill="#7E56A4"/>
<path opacity="0.4" d="M67.9792 56.5999H63.5624C63.4443 56.5999 63.331 56.553 63.2475 56.4694C63.1639 56.3859 63.117 56.2726 63.117 56.1545C63.117 56.0364 63.1639 55.9231 63.2475 55.8396C63.331 55.756 63.4443 55.7091 63.5624 55.7091H67.9792C68.0973 55.7091 68.2106 55.756 68.2941 55.8396C68.3776 55.9231 68.4246 56.0364 68.4246 56.1545C68.4246 56.2726 68.3776 56.3859 68.2941 56.4694C68.2106 56.553 68.0973 56.5999 67.9792 56.5999Z" fill="#7E56A4"/>
<path opacity="0.4" d="M83.6049 76.5497C83.5457 76.5523 83.4866 76.5426 83.4314 76.5211C83.3761 76.4997 83.326 76.467 83.2841 76.4251C83.2422 76.3832 83.2095 76.333 83.188 76.2778C83.1666 76.2226 83.1568 76.1635 83.1595 76.1043V71.6875C83.1594 71.6298 83.1711 71.5728 83.1937 71.5197C83.2163 71.4667 83.2494 71.4188 83.291 71.3789C83.3326 71.339 83.3819 71.308 83.4358 71.2877C83.4898 71.2673 83.5473 71.2582 83.6049 71.2607C83.6625 71.2582 83.72 71.2673 83.7739 71.2877C83.8279 71.308 83.8771 71.339 83.9188 71.3789C83.9604 71.4188 83.9935 71.4667 84.0161 71.5197C84.0387 71.5728 84.0503 71.6298 84.0503 71.6875V76.1043C84.0503 76.2224 84.0033 76.3357 83.9198 76.4192C83.8363 76.5027 83.723 76.5497 83.6049 76.5497Z" fill="#7E56A4"/>
<path opacity="0.4" d="M103.722 56.5999H99.2121C99.094 56.5999 98.9807 56.553 98.8972 56.4694C98.8136 56.3859 98.7667 56.2726 98.7667 56.1545C98.7667 56.0364 98.8136 55.9231 98.8972 55.8396C98.9807 55.756 99.094 55.7091 99.2121 55.7091H103.722C103.84 55.7091 103.953 55.756 104.037 55.8396C104.12 55.9231 104.167 56.0364 104.167 56.1545C104.167 56.2726 104.12 56.3859 104.037 56.4694C103.953 56.553 103.84 56.5999 103.722 56.5999Z" fill="#7E56A4"/>
<path d="M95.909 62.1673L84.3288 55.8947V35.6294C84.3313 35.5319 84.3145 35.4349 84.2795 35.3439C84.2444 35.2529 84.1918 35.1697 84.1246 35.099C84.0574 35.0284 83.9769 34.9717 83.8877 34.9321C83.7986 34.8926 83.7025 34.871 83.6051 34.8686C83.4065 34.8734 83.2177 34.9557 83.079 35.0979C82.9403 35.24 82.8627 35.4308 82.8627 35.6294V56.7669L95.4264 63.5591C95.5824 63.5775 95.7402 63.5483 95.8793 63.4755C96.0184 63.4026 96.1322 63.2895 96.2059 63.1508C96.2801 62.9782 96.2911 62.7848 96.2368 62.6049C96.1824 62.425 96.0664 62.27 95.909 62.1673Z" fill="#2E1E44"/>
<path d="M83.605 58.0289C84.6812 58.0289 85.5536 57.1565 85.5536 56.0803C85.5536 55.0041 84.6812 54.1317 83.605 54.1317C82.5288 54.1317 81.6564 55.0041 81.6564 56.0803C81.6564 57.1565 82.5288 58.0289 83.605 58.0289Z" fill="#2E1E44"/>
<path d="M84.5143 56.0802C84.518 56.2653 84.4662 56.4472 84.3657 56.6026C84.2651 56.758 84.1204 56.8798 83.9501 56.9523C83.7799 57.0248 83.5918 57.0448 83.4101 57.0096C83.2284 56.9744 83.0613 56.8856 82.9305 56.7547C82.7996 56.6239 82.7108 56.4568 82.6756 56.2751C82.6404 56.0934 82.6604 55.9053 82.7329 55.735C82.8054 55.5648 82.9272 55.4201 83.0826 55.3195C83.238 55.219 83.4199 55.1672 83.605 55.1709C83.8461 55.1709 84.0774 55.2667 84.248 55.4372C84.4185 55.6078 84.5143 55.8391 84.5143 56.0802Z" fill="white"/>
<path d="M144.541 124.262C171.962 124.262 194.192 123.953 194.192 123.572C194.192 123.191 171.962 122.882 144.541 122.882C117.119 122.882 94.8894 123.191 94.8894 123.572C94.8894 123.953 117.119 124.262 144.541 124.262Z" fill="#E1E0E1"/>
<path d="M198.274 127.194V127.511C186.084 127.597 164.076 127.669 138.92 127.669C100.567 127.669 69.4744 127.525 69.4744 127.353C69.4744 127.18 100.567 127.022 138.92 127.022C164.076 127.022 186.084 127.079 198.274 127.194Z" fill="#E1E0E1"/>
<path fill-rule="evenodd" clip-rule="evenodd" d="M79.36 115.488V112.448C79.7665 112.881 79.9901 113.454 79.9841 114.048C79.9609 114.589 79.7387 115.102 79.36 115.488Z" fill="#1A1A1A"/>
<path fill-rule="evenodd" clip-rule="evenodd" d="M168.405 84.9426C170.917 85.3426 175.605 85.8707 177.317 86.1907C178.661 86.7347 177.893 87.6628 177.941 88.4628L172.613 86.9587L168.405 84.9426Z" fill="#744B9E"/>
<path fill-rule="evenodd" clip-rule="evenodd" d="M124.306 103.2L184.054 102.8L187.894 107.712L187.606 116.208H186.07L172.709 118.208H112.226L124.306 103.2Z" fill="#141414"/>
<path fill-rule="evenodd" clip-rule="evenodd" d="M148.02 123.601H143.891C140.387 123.601 137.491 119.216 137.491 113.808C137.491 108.4 140.339 104.032 143.891 104.032H148.02C151.844 104.032 151.956 123.601 148.02 123.601Z" fill="#141414"/>
<path fill-rule="evenodd" clip-rule="evenodd" d="M148.02 123.601C144.531 123.601 141.619 119.2 141.619 113.808C141.619 108.416 144.483 104.032 148.02 104.032C151.556 104.032 154.42 108.432 154.42 113.808C154.42 119.184 151.508 123.601 148.02 123.601Z" fill="#141414"/>
<path fill-rule="evenodd" clip-rule="evenodd" d="M97.073 123.601H92.9608C89.4566 123.601 86.5604 119.216 86.5604 113.808C86.5604 108.4 89.4086 104.032 92.9608 104.032H97.073C100.897 104.032 101.025 123.601 97.073 123.601Z" fill="#141414"/>
<path fill-rule="evenodd" clip-rule="evenodd" d="M97.073 123.601C93.5848 123.601 90.6727 119.2 90.6727 113.808C90.6727 108.416 93.5208 104.032 97.073 104.032C100.625 104.032 103.473 108.432 103.473 113.808C103.473 119.184 100.577 123.601 97.073 123.601Z" fill="#141414"/>
<path fill-rule="evenodd" clip-rule="evenodd" d="M180.117 123.601H175.989C172.485 123.601 169.589 119.216 169.589 113.808C169.589 108.4 172.437 104.032 175.989 104.032H180.117C183.925 104.032 184.054 123.601 180.117 123.601Z" fill="#141414"/>
<path fill-rule="evenodd" clip-rule="evenodd" d="M180.117 123.601C176.613 123.601 173.717 119.2 173.717 113.808C173.717 108.416 176.565 104.032 180.117 104.032C183.67 104.032 186.518 108.432 186.518 113.808C186.518 119.184 183.606 123.601 180.117 123.601Z" fill="#1A1A1A"/>
<path fill-rule="evenodd" clip-rule="evenodd" d="M180.117 119.728C178.005 119.728 176.277 117.072 176.277 113.808C176.277 110.544 178.005 107.904 180.117 107.904C182.229 107.904 183.941 110.56 183.941 113.808C183.941 117.056 182.213 119.728 180.117 119.728Z" fill="#989798"/>
<path fill-rule="evenodd" clip-rule="evenodd" d="M179.445 115.168C178.965 115.168 178.565 114.56 178.565 113.808C178.565 113.056 178.965 112.464 179.445 112.464C179.925 112.464 180.325 113.072 180.325 113.808C180.325 114.544 179.941 115.168 179.445 115.168Z" fill="#676767"/>
<path fill-rule="evenodd" clip-rule="evenodd" d="M129.075 123.601H124.946C121.442 123.601 118.546 119.216 118.546 113.808C118.546 108.4 121.394 104.032 124.946 104.032H129.075C132.883 104.032 133.011 123.601 129.075 123.601Z" fill="#141414"/>
<path fill-rule="evenodd" clip-rule="evenodd" d="M129.075 123.601C125.57 123.601 122.674 119.2 122.674 113.808C122.674 108.416 125.522 104.032 129.075 104.032C132.627 104.032 135.475 108.432 135.475 113.808C135.475 119.184 132.563 123.601 129.075 123.601Z" fill="#1A1A1A"/>
<path fill-rule="evenodd" clip-rule="evenodd" d="M129.075 119.728C126.963 119.728 125.234 117.072 125.234 113.808C125.234 110.544 126.963 107.904 129.075 107.904C131.187 107.904 132.899 110.56 132.899 113.888C132.899 117.216 131.187 119.728 129.075 119.728Z" fill="#989798"/>
<path fill-rule="evenodd" clip-rule="evenodd" d="M128.403 115.168C127.923 115.168 127.523 114.56 127.523 113.808C127.523 113.056 127.923 112.464 128.403 112.464C128.883 112.464 129.283 113.072 129.283 113.808C129.283 114.544 128.899 115.168 128.403 115.168Z" fill="#676767"/>
<path fill-rule="evenodd" clip-rule="evenodd" d="M101.441 93.9351C108.402 90.3509 115.586 86.0307 121.794 84.3346C138.841 81.1483 156.394 81.9533 173.077 86.6867L180.517 93.6951L185.478 96.8952L185.286 97.8393H184.278C172.725 97.8393 163.364 106.208 163.364 116.512C163.333 117.072 163.333 117.633 163.364 118.192H136.867V112.48C136.867 107.68 133.331 103.264 128.963 103.264C124.594 103.264 121.058 107.728 121.058 112.48V118.208H78.592L78.352 117.088L78.848 116.432C78.8569 116.315 78.8569 116.197 78.848 116.08C78.8446 116.014 78.8632 115.948 78.9007 115.893C78.9383 115.838 78.9929 115.797 79.056 115.776C79.3276 115.581 79.5451 115.32 79.6879 115.018C79.8307 114.716 79.894 114.382 79.8721 114.048C79.8979 113.701 79.8281 113.353 79.6701 113.043C79.5121 112.732 79.2721 112.471 78.976 112.288C78.8 112.288 78.736 112.096 78.704 111.792C78.416 108.704 78.16 105.712 80.5441 104.736C80.7059 103.917 80.9693 103.121 81.3282 102.368C84.2403 97.9833 94.3528 95.7912 101.441 93.9351Z" fill="#7E56A4"/>
<path fill-rule="evenodd" clip-rule="evenodd" d="M153.62 82.9585C160.668 83.1224 167.647 84.3801 174.309 86.6867C178.392 88.4113 182.173 90.7772 185.51 93.6951L186.854 95.5992L187.606 95.0072L189.206 98.8794C189.398 100.479 190.486 101.391 190.806 102.464C191.934 106.023 191.844 109.857 190.55 113.36L190.95 114.256C191.142 114.576 190.95 115.04 190.486 115.184L187.91 116.112L187.142 113.232C187.142 108.432 184.39 103.232 180.037 103.232C175.685 103.232 172.933 108.464 172.933 113.232L172.357 118.176H136.867L136.067 113.232C136.067 108.432 133.331 103.232 128.963 103.232C124.594 103.232 121.858 108.464 121.858 113.232L121.282 118.176H112.818C110.834 114.64 108.37 112.064 110.002 109.312C111.106 107.456 111.266 106.928 108.818 107.248C102.073 108.152 95.2543 108.377 88.4645 107.92C83.5683 107.408 81.7442 105.744 80.5921 104.72L81.4402 102.272C83.7617 103.693 86.4153 104.482 89.1365 104.56C96.8329 105.088 105.137 103.184 112.466 101.359C121.602 99.0554 122.466 98.0633 131.027 94.1111L142.787 85.8867C144.638 84.5293 146.801 83.6598 149.076 83.3585C150.58 83.1229 152.098 82.9892 153.62 82.9585Z" fill="#744B9E"/>
<path fill-rule="evenodd" clip-rule="evenodd" d="M182.053 91.0389C183.269 91.887 184.406 92.799 185.494 93.7271L186.838 95.6312L187.59 95.0391L188.502 97.2793L133.011 99.0874C132.419 99.0874 132.435 98.4153 133.011 98.3353L156.148 94.8951L175.989 94.0471L182.053 91.0389Z" fill="#7E56A4"/>
<path fill-rule="evenodd" clip-rule="evenodd" d="M146.82 85.4707C143.619 87.4262 140.603 89.6703 137.811 92.175C137.507 92.4213 137.289 92.7573 137.187 93.1351L136.915 94.0151C136.755 94.6071 136.915 94.9271 137.491 94.8951H174.661L180.789 93.0871C180.867 93.0728 180.94 93.0381 181 92.9865C181.06 92.935 181.106 92.8684 181.132 92.7936C181.158 92.7188 181.163 92.6384 181.148 92.5606C181.133 92.4829 181.098 92.4106 181.045 92.351C174.533 85.5987 152.596 82.3025 146.82 85.4707Z" fill="#141414"/>
<path fill-rule="evenodd" clip-rule="evenodd" d="M159.796 84.2546C158.735 84.1233 157.666 84.0644 156.596 84.0786L156.82 85.0226L158.42 94.3031V94.9751H161.62V94.2231V86.8627L160.02 85.2626L159.796 84.2546Z" fill="#744B9E"/>
<path fill-rule="evenodd" clip-rule="evenodd" d="M147.124 85.9827C149.472 85.0986 151.979 84.7171 154.484 84.8626C155.284 84.8626 155.3 84.8626 156.084 84.9586L156.228 85.5026C156.628 86.9747 156.964 88.4788 157.236 89.9829C157.508 91.4869 157.684 92.863 157.796 94.3031H137.475C137.475 94.3031 137.475 94.2071 137.475 94.1751L137.731 93.311C137.804 93.0401 137.961 92.7993 138.179 92.623C140.949 90.1521 143.932 87.93 147.092 85.9827H147.124ZM161.62 94.3031C161.506 92.693 161.303 91.0905 161.012 89.5028C160.772 88.1108 160.452 86.7027 160.1 85.2786C161.892 85.5026 163.668 85.8067 165.413 86.1747C167.655 86.6511 169.867 87.2602 172.037 87.9988V88.2868L173.957 94.3351L161.62 94.3031ZM180.421 92.559C178.307 90.7189 175.857 89.3061 173.205 88.3988L175.029 94.1591L180.421 92.559Z" fill="#2E1E44"/>
<path fill-rule="evenodd" clip-rule="evenodd" d="M105.105 103.504C109.239 101.452 113.693 100.121 118.274 99.5674C119.17 99.4714 119.234 100.255 118.898 100.719C118.007 102.108 116.743 103.217 115.25 103.92C111.732 104.839 108.139 105.444 104.513 105.728C103.665 105.888 102.625 104.608 105.105 103.504Z" fill="white"/>
<path fill-rule="evenodd" clip-rule="evenodd" d="M100.769 106.896L89.1366 107.76L84.1603 106.944C83.3283 106.816 83.1522 104.4 84.1603 104.528L89.0886 105.12L101.313 104.496C102.881 104.416 102.289 106.784 100.769 106.896Z" fill="#141414"/>
<path fill-rule="evenodd" clip-rule="evenodd" d="M100.769 106.896L89.8087 107.712L85.1364 106.944C84.4324 106.832 84.1924 104.928 84.7684 104.592L89.1366 105.12H89.8247H90.1127L101.761 104.512C102.753 104.752 102.129 106.784 100.769 106.896Z" fill="#141414"/>
<path fill-rule="evenodd" clip-rule="evenodd" d="M101.537 93.871C108.05 90.5109 114.754 86.5427 120.658 84.6386C128.425 84.0346 136.223 83.9277 144.003 84.3186C144.595 84.3186 144.707 84.7666 144.259 85.0706L131.555 93.663C131.177 93.9275 130.719 94.0519 130.259 94.0151L101.905 93.871H101.537Z" fill="#141414"/>
<path fill-rule="evenodd" clip-rule="evenodd" d="M103.985 93.279L130.339 93.423C130.683 93.4452 131.026 93.3554 131.315 93.167L143.539 84.8946C135.939 84.5373 128.324 84.6495 120.738 85.2306L119.138 85.4066C114.588 87.2386 110.167 89.377 105.905 91.807L103.137 93.295H104.033L103.985 93.279Z" fill="#2E1E44"/>
<path fill-rule="evenodd" clip-rule="evenodd" d="M82.8963 111.856H98.8971C102.721 111.856 103.281 115.952 100.737 115.952H83.1363C81.7122 115.952 80.2081 111.856 82.8963 111.856Z" fill="#744B9E"/>
<path fill-rule="evenodd" clip-rule="evenodd" d="M185.366 93.631L184.854 97.1832L189.174 98.9113C189.03 97.7913 189.398 96.6712 188.758 95.5511C187.777 94.677 186.62 94.0224 185.366 93.631Z" fill="#D95056"/>
<path d="M90.2727 105.936H88.1286C87.9342 105.936 87.7766 106.093 87.7766 106.288C87.7766 106.482 87.9342 106.64 88.1286 106.64H90.2727C90.4671 106.64 90.6247 106.482 90.6247 106.288C90.6247 106.093 90.4671 105.936 90.2727 105.936Z" fill="#B3B3B3"/>
<path d="M114.514 116.976H78.608C78.2722 116.976 78 117.249 78 117.584V117.6C78 117.936 78.2722 118.208 78.608 118.208H114.514C114.85 118.208 115.122 117.936 115.122 117.6V117.584C115.122 117.249 114.85 116.976 114.514 116.976Z" fill="#7E56A4"/>
<path fill-rule="evenodd" clip-rule="evenodd" d="M80.6082 104.576C80.7668 103.76 81.0473 102.972 81.4402 102.24C81.5522 102.48 81.7442 102.736 82.0642 103.296C82.6083 104.208 82.6083 105.44 81.9522 105.504C81.5682 105.536 80.8642 104.928 80.6082 104.576Z" fill="white"/>
<path fill-rule="evenodd" clip-rule="evenodd" d="M155.54 97.1193C154.42 97.1193 153.524 97.5513 153.54 97.9993C153.556 98.4473 154.468 98.7994 155.588 98.7674C156.708 98.7353 157.54 98.3353 157.54 97.8873C157.54 97.4393 156.66 97.0873 155.54 97.1193Z" fill="#1A1A1A"/>
<path fill-rule="evenodd" clip-rule="evenodd" d="M173.333 97.1193C172.213 97.1193 171.317 97.5513 171.317 97.9993C171.317 98.4473 172.261 98.7994 173.381 98.7674C174.501 98.7353 175.397 98.3353 175.381 97.8873C175.365 97.4393 174.453 97.0873 173.333 97.1193Z" fill="#1A1A1A"/>
</g>
<defs>
<linearGradient id="paint0_linear_5124_68144" x1="0" y1="67.5" x2="201" y2="67.5" gradientUnits="userSpaceOnUse">
<stop stop-color="#F1F2F2" stop-opacity="0"/>
<stop offset="1" stop-color="#E0E0E0"/>
</linearGradient>
<linearGradient id="paint1_linear_5124_68144" x1="127.521" y1="20.3694" x2="139.136" y2="-36.3256" gradientUnits="userSpaceOnUse">
<stop stop-color="white" stop-opacity="0"/>
<stop offset="0.48" stop-color="white"/>
<stop offset="1" stop-color="white"/>
</linearGradient>
<linearGradient id="paint2_linear_5124_68144" x1="2067.19" y1="1132.44" x2="2067.19" y2="1069.82" gradientUnits="userSpaceOnUse">
<stop stop-color="white" stop-opacity="0"/>
<stop offset="0.48" stop-color="white"/>
<stop offset="1" stop-color="white"/>
</linearGradient>
<linearGradient id="paint3_linear_5124_68144" x1="131.344" y1="108.794" x2="46.8625" y2="108.794" gradientUnits="userSpaceOnUse">
<stop stop-color="#BDBCBE"/>
<stop offset="0.2" stop-color="#D0D0D1"/>
<stop offset="0.47" stop-color="#E5E4E5"/>
<stop offset="0.74" stop-color="#F1F1F1"/>
<stop offset="1" stop-color="#F5F5F5"/>
</linearGradient>
<linearGradient id="paint4_linear_5124_68144" x1="9738.62" y1="662.622" x2="9738.62" y2="2273.93" gradientUnits="userSpaceOnUse">
<stop stop-color="#BDBCBE"/>
<stop offset="0.2" stop-color="#D0D0D1"/>
<stop offset="0.47" stop-color="#E5E4E5"/>
<stop offset="0.74" stop-color="#F1F1F1"/>
<stop offset="1" stop-color="#F5F5F5"/>
</linearGradient>
<linearGradient id="paint5_linear_5124_68144" x1="409.804" y1="1451.94" x2="409.804" y2="3065.17" gradientUnits="userSpaceOnUse">
<stop stop-color="#BDBCBE"/>
<stop offset="0.2" stop-color="#D0D0D1"/>
<stop offset="0.47" stop-color="#E5E4E5"/>
<stop offset="0.74" stop-color="#F1F1F1"/>
<stop offset="1" stop-color="#F5F5F5"/>
</linearGradient>
<linearGradient id="paint6_linear_5124_68144" x1="380.771" y1="792.467" x2="380.771" y2="1217.98" gradientUnits="userSpaceOnUse">
<stop stop-color="#BDBCBE"/>
<stop offset="0.2" stop-color="#D0D0D1"/>
<stop offset="0.47" stop-color="#E5E4E5"/>
<stop offset="0.74" stop-color="#F1F1F1"/>
<stop offset="1" stop-color="#F5F5F5"/>
</linearGradient>
<linearGradient id="paint7_linear_5124_68144" x1="668.31" y1="813.914" x2="668.31" y2="1322.52" gradientUnits="userSpaceOnUse">
<stop stop-color="#BDBCBE"/>
<stop offset="0.2" stop-color="#D0D0D1"/>
<stop offset="0.47" stop-color="#E5E4E5"/>
<stop offset="0.74" stop-color="#F1F1F1"/>
<stop offset="1" stop-color="#F5F5F5"/>
</linearGradient>
<linearGradient id="paint8_linear_5124_68144" x1="328.864" y1="834.383" x2="328.864" y2="1560.82" gradientUnits="userSpaceOnUse">
<stop stop-color="#BDBCBE"/>
<stop offset="0.2" stop-color="#D0D0D1"/>
<stop offset="0.47" stop-color="#E5E4E5"/>
<stop offset="0.74" stop-color="#F1F1F1"/>
<stop offset="1" stop-color="#F5F5F5"/>
</linearGradient>
<linearGradient id="paint9_linear_5124_68144" x1="706.893" y1="824.494" x2="706.893" y2="2029.82" gradientUnits="userSpaceOnUse">
<stop stop-color="#BDBCBE"/>
<stop offset="0.2" stop-color="#D0D0D1"/>
<stop offset="0.47" stop-color="#E5E4E5"/>
<stop offset="0.74" stop-color="#F1F1F1"/>
<stop offset="1" stop-color="#F5F5F5"/>
</linearGradient>
<clipPath id="clip0_5124_68144">
<path d="M0 0H185C193.837 0 201 7.16344 201 16V119C201 127.837 193.837 135 185 135H0V0Z" fill="white"/>
</clipPath>
</defs>
</svg>
