<svg width="53" height="50" viewBox="0 0 53 50" fill="none" xmlns="http://www.w3.org/2000/svg">
<path d="M12.9974 15.0393C12.9941 15.1964 12.9887 15.6506 13.0455 16.2864" stroke="#F7DCDD" stroke-width="2" stroke-linecap="round" stroke-linejoin="round"/>
<path d="M13.5242 18.8386C14.0289 20.5486 15.009 22.4665 16.9083 23.7828C19.0946 25.2982 21.5458 25.2961 22.4832 25.2965C26.6069 25.2995 27.4052 23.0607 31.4208 22.9815C32.4563 22.9611 35.5879 22.899 37.8802 25.0295C39.7795 26.7945 40.2494 29.2715 40.2917 31.1274" stroke="#D84E55" stroke-opacity="0.2" stroke-width="2" stroke-linecap="round" stroke-linejoin="round" stroke-dasharray="6.24 6.24"/>
<path d="M40.2552 32.4292C40.2043 33.08 40.1194 33.5338 40.0925 33.6671" stroke="#F7DCDD" stroke-width="2" stroke-linecap="round" stroke-linejoin="round"/>
<path fill-rule="evenodd" clip-rule="evenodd" d="M12.9003 13.994C12.4233 13.994 12.0366 13.6048 12.0366 13.1248C12.0366 12.6448 12.4233 12.2557 12.9003 12.2557C13.3769 12.2557 13.7636 12.6448 13.7636 13.1248C13.7636 13.6048 13.3769 13.994 12.9003 13.994ZM12.9003 10.5173C11.4693 10.5173 10.3091 11.6848 10.3091 13.1248C10.3091 14.5648 11.4693 15.7323 12.9003 15.7323C14.3309 15.7323 15.4911 14.5648 15.4911 13.1248C15.4911 11.6848 14.3309 10.5173 12.9003 10.5173Z" fill="#D84E55"/>
<path fill-rule="evenodd" clip-rule="evenodd" d="M39.8601 32.9214C41.2836 32.9214 42.4376 34.1126 42.4376 35.5831C42.4376 36.3064 41.735 37.7706 40.3305 39.9756L40.2207 40.1468C40.0924 40.3472 39.8261 40.4047 39.627 40.2747C39.5756 40.2418 39.5326 40.1981 39.4994 40.1468C38.0221 37.846 37.283 36.3247 37.283 35.5831C37.283 34.1126 38.4365 32.9214 39.8601 32.9214ZM39.8601 34.6501C39.3856 34.6501 39.0013 35.0372 39.0013 35.5147C39.0013 35.9922 39.3856 36.3793 39.8601 36.3793C40.3346 36.3793 40.7193 35.9922 40.7193 35.5147C40.7193 35.0372 40.3346 34.6501 39.8601 34.6501Z" fill="#38B87C"/>
<path fill-rule="evenodd" clip-rule="evenodd" d="M19.322 16.875C18.8649 16.875 18.4939 16.5017 18.4939 16.0417V10.2083C18.4939 9.74833 18.8649 9.375 19.322 9.375H42.5095C42.9666 9.375 43.3376 9.74833 43.3376 10.2083V16.0417C43.3376 16.5017 42.9666 16.875 42.5095 16.875H19.322Z" fill="white"/>
<path fill-rule="evenodd" clip-rule="evenodd" d="M33.125 40.8332C33.5821 40.8332 33.9531 40.4599 33.9531 39.9999V34.1666C33.9531 33.7066 33.5821 33.3333 33.125 33.3333H9.9375C9.48038 33.3333 9.10938 33.7066 9.10938 34.1666V39.9999C9.10938 40.4599 9.48038 40.8332 9.9375 40.8332H33.125Z" fill="white"/>
<path fill-rule="evenodd" clip-rule="evenodd" d="M9.9375 40.8332H33.125C33.5821 40.8332 33.9531 40.4599 33.9531 39.9999V34.1666C33.9531 33.7066 33.5821 33.3333 33.125 33.3333H9.9375C9.48038 33.3333 9.10938 33.7066 9.10938 34.1666V39.9999C9.10938 40.4599 9.48038 40.8332 9.9375 40.8332Z" stroke="#DDDDDD"/>
<path d="M30.9092 37.0833H19.6521" stroke="#DDDDDD" stroke-width="2" stroke-linecap="round" stroke-linejoin="round"/>
<path d="M16.5784 37.0833H12.1533" stroke="#DDDDDD" stroke-width="2" stroke-linecap="round" stroke-linejoin="round"/>
<path fill-rule="evenodd" clip-rule="evenodd" d="M42.5095 16.875H19.322C18.8649 16.875 18.4939 16.5017 18.4939 16.0417V10.2083C18.4939 9.74833 18.8649 9.375 19.322 9.375H42.5095C42.9666 9.375 43.3376 9.74833 43.3376 10.2083V16.0417C43.3376 16.5017 42.9666 16.875 42.5095 16.875Z" stroke="#DDDDDD"/>
<path d="M21.5378 13.1248H32.795" stroke="#DDDDDD" stroke-width="2" stroke-linecap="round" stroke-linejoin="round"/>
<path d="M35.8687 13.1248H40.2937" stroke="#DDDDDD" stroke-width="2" stroke-linecap="round" stroke-linejoin="round"/>
</svg>
