<svg xmlns="http://www.w3.org/2000/svg" width="64" height="42" viewBox="0 0 64 42">
    <path fill="#FFF" fill-rule="evenodd" d="M59.889 26.47l-6.053.677c-.465-.621-1.024-1.116-1.647-1.503-1.197-.817-2.643-1.298-4.201-1.298-2.306 0-4.37 1.048-5.735 2.69-.425.459-.818.971-1.175 1.536l-16.949 1.893c-.159-.302-.338-.591-.536-.867-.023-.034-.05-.065-.074-.099-1.354-1.826-3.528-3.018-5.983-3.018-1.89 0-3.613.71-4.927 1.87-1.1.916-1.935 2.167-2.423 3.672l-4.487.502C3.275 24.186 1.226 12.32 3.846 9.92 7.483 6.585 26.037 2.623 44.18 2.623c3.378 0 6.746.138 9.996.442 1.224.135 2.512 1.316 3.628 3.328 3.006 5.42 3.963 15.18 2.085 20.078m-11.365 9.726c-2.458 0-4.458-2-4.458-4.46 0-2.458 2-4.458 4.458-4.458 2.459 0 4.46 2 4.46 4.459 0 2.458-2.001 4.459-4.46 4.459m-30.426 2.098c-2.458 0-4.459-2-4.459-4.458 0-2.46 2.001-4.46 4.46-4.46 2.458 0 4.458 2 4.458 4.46 0 2.458-2 4.458-4.459 4.458M2.158 8.051C7.571 3.09 34.017-1.482 54.69.455l.018.002c2.233.237 4.267 1.899 5.88 4.806 3.651 6.579 4.543 17.963 1.836 23.425l-.353.712-6.648.772c.143.57.227 1.161.227 1.774 0 4.062-3.331 7.366-7.425 7.366-4.094 0-7.425-3.304-7.425-7.366l.009-.167-15.6 1.771c.012.175.027.349.027.527 0 4.062-3.331 7.366-7.425 7.366-3.722 0-6.804-2.735-7.335-6.283l-6.583.735-.354-1.153c-.068-.217-1.648-5.387-2.68-11.175C-.618 15.28-.194 10.203 2.157 8.051zm7.74 5.064c-.278 0-.581.048-.912.145-.331.096-.623.218-.878.365l-.821.47v-.842l-2.566.167v8.613h2.566v-5.806c.214-.198.482-.364.804-.5.322-.135.718-.203 1.187-.203.401 0 .75.048 1.047.142.298.095.527.205.691.33V13.28c-.097-.042-.233-.081-.412-.115-.177-.035-.413-.051-.707-.051zm5.726-.525c-1.316 0-2.413.44-3.29 1.317-.878.879-1.318 2.032-1.318 3.461 0 1.42.43 2.552 1.288 3.397.858.846 2.052 1.268 3.581 1.268.387 0 .899-.067 1.534-.198.635-.13 1.113-.31 1.429-.535v-2.227c-.337.236-.796.427-1.378.572-.582.145-1.112.218-1.593.218-.597 0-1.105-.158-1.523-.47-.42-.313-.696-.824-.83-1.532h6.41c.006-1.634-.383-2.921-1.164-3.86-.782-.941-1.83-1.41-3.146-1.41zm14.278-3.147h-2.519v3.843c-.273-.152-.558-.257-.854-.318-.296-.06-.639-.089-1.029-.089-1.36 0-2.455.417-3.283 1.252-.828.835-1.239 1.957-1.233 3.365.005 1.3.35 2.382 1.035 3.243.684.863 1.685 1.294 3.004 1.294.156 0 .34-.016.553-.045.213-.03.375-.076.487-.136l1.35-.721.55.817h1.939V9.443zm7.24 0H32v12.59h5.25c1.065 0 1.943-.33 2.633-.993s1.035-1.547 1.035-2.652c0-.87-.264-1.566-.792-2.089-.529-.522-1.158-.844-1.89-.964.734-.104 1.282-.393 1.644-.868.361-.474.541-1.101.541-1.882 0-.966-.305-1.73-.914-2.295s-1.398-.847-2.366-.847zm7.88 3.672h-2.53v5.975c0 .885.253 1.598.761 2.135.507.539 1.202.808 2.084.808.371 0 .718-.045 1.04-.135.32-.09.629-.218.923-.38l1.057-.59v.991h2.528v-8.804h-2.528v5.83c-.174.158-.422.329-.744.515-.325.186-.71.28-1.163.28-.483 0-.843-.123-1.078-.369-.233-.246-.35-.53-.35-.852v-5.404zm11.231-.525c-1.042 0-1.92.274-2.633.823-.715.55-1.072 1.248-1.072 2.097 0 .75.233 1.347.7 1.793.465.447 1.279.715 2.438.808.65.054 1.103.157 1.366.305.26.15.392.344.392.584 0 .357-.156.605-.466.742-.31.136-.718.205-1.224.205-.705 0-1.326-.083-1.86-.25-.534-.167-1.014-.366-1.435-.596v2.228c.535.275 1.147.462 1.837.56.69.095 1.282.144 1.776.144 1.056 0 1.942-.29 2.658-.872.716-.582 1.073-1.351 1.073-2.308 0-.783-.279-1.406-.84-1.868-.56-.462-1.396-.728-2.51-.799-.366-.021-.716-.086-1.047-.191-.333-.107-.498-.326-.498-.657 0-.176.117-.33.35-.464.235-.132.56-.198.979-.198.519 0 1.002.046 1.45.137.448.092.898.234 1.35.427v-2.255c-.365-.113-.806-.207-1.324-.282-.518-.076-1.005-.113-1.46-.113zm-30.65 2.099c.363 0 .7.063 1.01.19.31.129.531.281.666.457v3.935c-.183.18-.418.335-.71.467-.291.13-.63.196-1.014.196-.6 0-1.073-.223-1.423-.669-.35-.447-.525-1.121-.525-2.024 0-.887.164-1.534.493-1.941.328-.407.83-.611 1.503-.611zm10.749 1.573c.581 0 1.051.15 1.408.45.357.3.535.76.535 1.386 0 .584-.14 1.034-.42 1.356-.28.32-.708.48-1.285.48h-1.967v-3.672h1.729zM15.697 14.69c.554 0 1.018.176 1.392.528.374.354.622.877.747 1.57H13.64c.07-.635.27-1.144.597-1.526.33-.381.816-.572 1.461-.572zm20.41-3.148c.536 0 .946.17 1.233.509.287.339.43.78.43 1.327 0 .57-.13 1.02-.389 1.346-.26.328-.633.49-1.12.49h-1.638v-3.672h1.484z"/>
</svg>
