<?xml version="1.0" encoding="UTF-8"?>
<svg width="32px" height="21px" viewBox="0 0 32 21" version="1.1" xmlns="http://www.w3.org/2000/svg" xmlns:xlink="http://www.w3.org/1999/xlink">
    <title>logo_rb</title>
    <g id="mWeb-Home-Page" stroke="none" stroke-width="1" fill="none" fill-rule="evenodd">
        <g id="logo_rb" fill="#FFFFFF">
            <path d="M29.9442555,13.2354266 L26.9180053,13.5735091 C26.6853246,13.2629968 26.4058275,13.0154224 26.0943718,12.8218744 C25.4961302,12.4133349 24.7728578,12.1730011 23.9937982,12.1730011 C22.8407674,12.1730011 21.8085624,12.6971125 21.1264997,13.5178118 C20.9140034,13.7472846 20.7174863,14.0034921 20.5389109,14.2861557 L12.0645693,15.2327309 C11.9852336,15.0815128 11.8955254,14.9369784 11.7965661,14.7988492 C11.7847919,14.7818615 11.771616,14.7662663 11.7595614,14.7495571 C11.0822645,13.8364002 9.99539354,13.2404394 8.76807317,13.2404394 C7.82277297,13.2404394 6.96129387,13.5955095 6.30446161,14.1753182 C5.75471852,14.6334283 5.33701469,15.2591871 5.09312051,16.0113789 L2.84929405,16.2622951 C1.63767261,12.0930755 0.612756376,6.16020173 1.9227765,4.95992544 C3.74161034,3.2926275 13.01856,1.31147541 22.0900219,1.31147541 C23.7787788,1.31147541 25.46277,1.38054003 27.0878902,1.53259359 C27.6998684,1.5999873 28.3440854,2.19037842 28.9019583,3.1965497 C30.4048511,5.90622216 30.8833883,10.7866959 29.9442555,13.2354266 M24.2621565,18.0983607 C23.0328287,18.0983607 22.0327869,17.0982178 22.0327869,15.8688525 C22.0327869,14.6394871 23.0328287,13.6393443 24.2621565,13.6393443 C25.4914842,13.6393443 26.4918033,14.6394871 26.4918033,15.8688525 C26.4918033,17.0982178 25.4914842,18.0983607 24.2621565,18.0983607 M9.04918033,19.147541 C7.82005337,19.147541 6.81967213,18.1476757 6.81967213,16.9183103 C6.81967213,15.6886674 7.82005337,14.6885246 9.04918033,14.6885246 C10.2785845,14.6885246 11.2786885,15.6886674 11.2786885,16.9183103 C11.2786885,18.1476757 10.2785845,19.147541 9.04918033,19.147541 M1.07855017,4.02530628 C3.78577999,1.5458639 17.0094595,-0.740970742 27.3453152,0.227348643 L27.3453152,0.227348643 C28.4711577,0.346859933 29.4878039,1.1778803 30.294457,2.63147111 C32.1199962,5.92081093 32.5660213,11.6128835 31.2125464,14.3441334 L31.2125464,14.3441334 L31.0358723,14.7001659 L27.712103,15.0859372 C27.7835006,15.3708188 27.8254992,15.6665398 27.8254992,15.9731001 C27.8254992,18.0039583 26.1598347,19.6559934 24.1128229,19.6559934 C22.0658111,19.6559934 20.4007066,18.0039583 20.4007066,15.9731001 L20.4007066,15.9731001 L20.4049064,15.8894422 L12.6046462,16.7752154 C12.611086,16.8624865 12.6183658,16.9494796 12.6183658,17.0384182 C12.6183658,19.0692763 10.9529813,20.7213115 8.90596944,20.7213115 C7.04487143,20.7213115 5.50408275,19.3541579 5.23865159,17.5798321 L5.23865159,17.5798321 L1.94680124,17.9472599 L1.76984714,17.3711043 C1.73624826,17.2624324 0.945834586,14.6776533 0.429811774,11.7835346 C-0.309083614,7.63955004 -0.0968506831,5.10174169 1.07855017,4.02530628 Z M4.94864027,6.55737705 C4.81011627,6.55737705 4.65837215,6.58170144 4.49283311,6.63007692 C4.32729406,6.67817909 4.18129782,6.73912672 4.05398221,6.81237321 L3.64329593,7.04714459 L3.64329593,6.62652392 L2.36065574,6.70988279 L2.36065574,11.0163934 L3.64329593,11.0163934 L3.64329593,8.11359154 C3.75049396,8.01438081 3.88441964,7.93129525 4.04536038,7.86351492 C4.20658851,7.7960079 4.4043157,7.76211773 4.63911674,7.76211773 C4.83971787,7.76211773 5.01387874,7.78616882 5.16246153,7.83317776 C5.31133171,7.88073331 5.42600199,7.93566817 5.50819672,7.99770904 L5.50819672,6.64046261 C5.45962711,6.61941791 5.39151469,6.60001306 5.3021351,6.58279467 C5.2133303,6.56557628 5.09549869,6.55737705 4.94864027,6.55737705 Z M7.81216884,6.29508197 C7.15420519,6.29508197 6.60562731,6.51452908 6.16698488,6.95342331 C5.72779278,7.3928738 5.50819672,7.96972211 5.50819672,8.68424636 C5.50819672,9.39376421 5.72284568,9.96004346 6.1521436,10.3825278 C6.58116668,10.8055685 7.17784131,11.0163934 7.94271718,11.0163934 C8.13592873,11.0163934 8.39180348,10.9830175 8.70951692,10.9176561 C9.02723036,10.8522948 9.26579028,10.7627359 9.42382248,10.6498139 L9.42382248,9.53644656 C9.25562125,9.65437505 9.026131,9.74977474 8.73507691,9.82236751 C8.44402282,9.89523842 8.17880355,9.93139574 7.9385946,9.93139574 C7.64011986,9.93139574 7.38589414,9.85268403 7.1770168,9.69609503 C6.96731493,9.53978416 6.82907111,9.28445786 6.76228533,8.9306724 L9.96721311,8.9306724 C9.97020165,8.11351698 9.77561591,7.4699167 9.38507024,7.00014969 C8.99424972,6.52982641 8.47040732,6.29508197 7.81216884,6.29508197 Z M14.9508197,4.72131148 L13.6915898,4.72131148 L13.6915898,6.64301781 C13.5548164,6.56715001 13.4123321,6.51462615 13.2647081,6.4840567 C13.116513,6.45432097 12.9451892,6.43959206 12.7501656,6.43959206 C12.0697247,6.43959206 11.5226307,6.64802008 11.1085982,7.06570983 C10.6945658,7.48284377 10.4889772,8.04393199 10.4918033,8.74786289 C10.494688,9.39815831 10.6674395,9.93923744 11.009516,10.3697108 C11.3513069,10.8010178 11.8521435,11.0163934 12.5114545,11.0163934 C12.5896924,11.0163934 12.6816361,11.0083342 12.7881424,10.9938832 C12.8943632,10.9785985 12.9754564,10.9558104 13.0314222,10.9260746 L13.7061524,10.5653552 L13.981127,10.9738741 L14.9508197,10.9738741 L14.9508197,4.72131148 Z M18.5706872,4.72131148 L16,4.72131148 L16,11.0163934 L18.6251452,11.0163934 C19.1577438,11.0163934 19.5966749,10.8510279 19.9416659,10.5200171 C20.286657,10.1887264 20.4590164,9.74663249 20.4590164,9.19401506 C20.4590164,8.75891628 20.3269559,8.41111705 20.0631071,8.14949817 C19.7987138,7.8884389 19.4839469,7.72727048 19.1182618,7.66739193 C19.4850361,7.61562776 19.7592318,7.47096791 19.9397599,7.23369218 C20.1205603,6.99669625 20.2106882,6.68275359 20.2106882,6.29242381 C20.2106882,5.80947815 20.0582059,5.42726275 19.7535137,5.14521801 C19.4490938,4.86261365 19.054546,4.72131148 18.5706872,4.72131148 Z M22.5107291,6.55737705 L21.2459016,6.55737705 L21.2459016,9.54495435 C21.2459016,9.98747562 21.3726112,10.3439511 21.6265971,10.6124252 C21.8800162,10.8820167 22.2275461,11.0163934 22.6686199,11.0163934 C22.854007,11.0163934 23.0274885,10.9937645 23.188214,10.9490654 C23.348656,10.9038075 23.5028618,10.8401113 23.6499809,10.7585354 L24.1783624,10.46408 L24.1783624,10.9596814 L25.442623,10.9596814 L25.442623,6.55737705 L24.1783624,6.55737705 L24.1783624,9.47259765 C24.0913382,9.55137985 23.9677468,9.63686691 23.8064544,9.73017632 C23.6440281,9.82320636 23.4512709,9.8695817 23.2250646,9.8695817 C22.9832677,9.8695817 22.8032665,9.80839978 22.6859114,9.6854772 C22.5694067,9.56255463 22.5107291,9.42035556 22.5107291,9.25943873 L22.5107291,6.55737705 Z M28.1265093,6.29508197 C27.6055757,6.29508197 27.166956,6.43193158 26.8100685,6.70674339 C26.4525993,6.98127705 26.2740101,7.33063296 26.2740101,7.75481112 C26.2740101,8.12975679 26.3906457,8.42848947 26.623626,8.65156546 C26.8566064,8.8749196 27.2635222,9.00898771 27.8432099,9.05543869 C28.1678117,9.08241921 28.394684,9.13387688 28.5258627,9.20814283 C28.6564597,9.28324322 28.7221944,9.38003929 28.7221944,9.49992177 C28.7221944,9.67849382 28.6442435,9.80254855 28.4892141,9.87097335 C28.3341847,9.93912 28.1299997,9.97361056 27.8772407,9.97361056 C27.5244253,9.97361056 27.2137848,9.93188811 26.9467736,9.84844323 C26.6797624,9.76499835 26.4400922,9.66569894 26.2295082,9.550545 L26.2295082,10.664256 C26.4968103,10.8022182 26.8027969,10.8956765 27.14805,10.9443527 C27.4930122,10.9921944 27.7891096,11.0163934 28.0360513,11.0163934 C28.5639656,11.0163934 29.0069482,10.8711993 29.3649992,10.580533 C29.7230502,10.2893104 29.9016393,9.9049076 29.9016393,9.42649027 C29.9016393,9.03513377 29.7620256,8.72360621 29.4819257,8.49246388 C29.2018257,8.26159971 28.7835663,8.12864419 28.226275,8.09304104 C28.0433228,8.08247136 27.8685149,8.050206 27.7030144,7.99735758 C27.5366415,7.944231 27.4540367,7.83464006 27.4540367,7.66886289 C27.4540367,7.58096761 27.5124999,7.50364202 27.6291355,7.43716426 C27.7466437,7.37124281 27.9092355,7.33786485 28.1183652,7.33786485 C28.377814,7.33786485 28.6195202,7.36122942 28.8434839,7.40628966 C29.0677384,7.45246249 29.2925746,7.52339064 29.5182834,7.61990856 L29.5182834,6.49256819 C29.3362039,6.43582567 29.1154397,6.38909654 28.8565726,6.35126819 C28.5977056,6.31343984 28.3539633,6.29508197 28.1265093,6.29508197 Z M12.8013267,7.3442623 C12.9829156,7.3442623 13.1512377,7.37582985 13.3062931,7.43981813 C13.4610721,7.50380641 13.5721812,7.58002357 13.6393443,7.66790081 L13.6393443,9.63532722 C13.5478588,9.72519521 13.4303926,9.80311872 13.2844582,9.86909775 C13.1388001,9.9342236 12.9696488,9.96721311 12.7772807,9.96721311 C12.4779492,9.96721311 12.2408057,9.85573131 12.0661266,9.6324833 C11.8906183,9.40923529 11.8032787,9.07194594 11.8032787,8.62033085 C11.8032787,8.17696315 11.8856432,7.85332464 12.0498195,7.64998409 C12.2139958,7.44635916 12.4646824,7.3442623 12.8013267,7.3442623 Z M18.1758861,8.13114754 C18.4667369,8.13114754 18.7017196,8.2060612 18.879992,8.35588851 C19.0582644,8.50571581 19.147541,8.73644987 19.147541,9.04918033 C19.147541,9.34093496 19.0776357,9.56622075 18.9375445,9.72694459 C18.7974533,9.88712361 18.5835263,9.96721311 18.2952023,9.96721311 L17.3114754,9.96721311 L17.3114754,8.13114754 L18.1758861,8.13114754 Z M7.84857978,7.3442623 C8.12573224,7.3442623 8.35761831,7.43235027 8.5445157,7.60852623 C8.73169081,7.78557723 8.85554852,8.04692435 8.91803279,8.39344262 L6.81967213,8.39344262 C6.85466332,8.07580087 6.95436045,7.82145413 7.11820809,7.63040238 C7.28261115,7.43993401 7.52588324,7.3442623 7.84857978,7.3442623 Z M18.0537215,5.7704918 C18.3215564,5.7704918 18.5264845,5.85573444 18.6701539,6.02500197 C18.8132739,6.1942695 18.8852459,6.41529149 18.8852459,6.68867681 C18.8852459,6.97363078 18.8201414,7.19861046 18.6904818,7.36148479 C18.5605476,7.52527243 18.3740246,7.60655738 18.1303635,7.60655738 L17.3114754,7.60655738 L17.3114754,5.7704918 L18.0537215,5.7704918 Z" id="Combined-Shape-Copy-2"></path>
        </g>
    </g>
</svg>