<svg width="201" height="135" viewBox="0 0 201 135" fill="none" xmlns="http://www.w3.org/2000/svg">
<g clip-path="url(#clip0_5128_32622)">
<path d="M201 0H0V135H201V0Z" fill="url(#paint0_linear_5128_32622)"/>
<path d="M203 135L0 135L0 54L203 54V135Z" fill="url(#paint1_linear_5128_32622)"/>
<path opacity="0.5" d="M0.930317 12C13.7862 12.099 38.4971 12.2121 38.4971 12.9899C38.4971 13.7677 12.5457 14.0788 12.4893 14.7576C12.4329 15.4364 65.6044 16.2424 65.7172 17.3455C65.83 18.4485 2.80513 18.7596 1.24044 18.7596C-0.324259 18.7596 -0.169199 11.9859 0.930317 12Z" fill="url(#paint2_linear_5128_32622)"/>
<path d="M92.5278 38.1357C99.4467 38.1357 105.056 32.5089 105.056 25.5678C105.056 18.6268 99.4467 13 92.5278 13C85.6089 13 80 18.6268 80 25.5678C80 32.5089 85.6089 38.1357 92.5278 38.1357Z" fill="white"/>
<path d="M131.528 50.5637C131.528 50.5637 124.148 48.2871 123.724 48.2871C123.3 48.2871 119.001 47.195 117.875 47.1765C116.75 47.158 109.628 51.4522 109.388 51.5632C108.985 52.3291 108.663 53.1357 108.429 53.9694H132.414L131.528 50.5637Z" fill="url(#paint3_linear_5128_32622)"/>
<path d="M97.7273 53.9694L97.0077 50.5082L92.4505 49.4902L91.0113 51.7298L89.8859 52.0445L89.1663 50.5822L87.1183 49.8974V47.2135L86.3619 44.7333L84.1478 44.4186L81.9522 42.8268L78.7419 42.179L76.6201 43.1045L72.2473 43.4191L70.4945 45.6032L69.6458 47.3431L66.8414 47.7133L65.6052 49.2125L64 53.9694H97.7273Z" fill="#DCDBDB"/>
<path d="M255.478 11.4535L230.478 26.3535L207.802 30.0554L196.455 38.7547L166.049 29.8703L126.639 54.3396H255.792C255.595 40.0504 255.49 25.755 255.478 11.4535Z" fill="url(#paint4_linear_5128_32622)"/>
<path d="M184.407 14.6001L184.758 14.8592C184.758 14.8592 184.758 16.0993 184.758 17.8947C184.868 21.9853 185.053 29.0003 185.034 30.9438C185.494 37.9192 186.332 44.8643 187.544 51.7483L186.713 52.5257C186.713 52.5257 184.868 39.4581 184.499 34.4791C184.13 29.5001 184.204 22.1149 184.278 17.8207C184.37 15.8957 184.407 14.6001 184.407 14.6001Z" fill="url(#paint5_linear_5128_32622)"/>
<path d="M179.26 14.8222C179.702 13.3414 183.927 14.8222 184.057 14.8222C184.186 14.8222 180.053 12.1753 180.92 11.1203C181.787 10.0653 184.001 13.9893 184.057 14.1003C184.112 14.2114 182.802 9.38042 184.518 9.02875C186.732 8.56601 184.832 13.8412 184.776 13.9707C184.721 14.1003 187.138 10.4169 188.688 10.8427L188.946 10.9722C190.496 11.9347 185.256 14.3224 185.108 14.3965C184.961 14.4705 190.865 17.5801 190.496 18.7832C190.127 19.9863 185.164 15.2294 185.164 15.2294C185.164 15.2294 188.079 20.9673 187.193 21.7447C186.308 22.5221 184.444 15.3034 184.444 15.3034C184.444 15.3034 183.263 21.9483 182.378 21.5411C181.492 21.1339 184.02 15.507 184.02 15.507C184.02 15.507 181.16 19.0423 180.477 19.6346C179.795 20.2269 180.164 19.0053 180.736 17.7837C181.307 16.562 183.817 15.1553 183.891 15.0998C183.964 15.0443 179.038 16.2474 179.26 14.8777V14.8222Z" fill="url(#paint6_linear_5128_32622)"/>
<path d="M196.012 23.1514C196.012 23.5586 196.012 23.9843 196.012 24.41C196.219 25.8471 196.565 27.2605 197.046 28.6301C197.434 29.9171 197.96 31.1582 198.614 32.332C200.75 35.987 202.494 39.8585 203.817 43.8818C204.969 47.1034 205.689 50.4647 205.957 53.8769C206.026 54.2327 206.02 54.5989 205.941 54.9525C205.861 55.3061 205.71 55.6394 205.496 55.9314C204.984 55.6305 204.497 55.2902 204.038 54.9134C204.231 54.708 204.375 54.4612 204.458 54.1917C204.541 53.9223 204.561 53.6373 204.518 53.3586C204.391 50.1357 203.871 46.9406 202.968 43.8448C202.476 41.9552 201.859 40.1002 201.123 38.292C200.201 36.1079 198.762 34.1829 197.655 32.0729C196.512 29.8143 195.882 27.3302 195.809 24.7987C195.781 24.2932 195.781 23.7865 195.809 23.2809L196.012 23.1514Z" fill="url(#paint7_linear_5128_32622)"/>
<path d="M255.57 37.8478L237.673 47.4727L212.286 41.6792L194.61 50.7858L174.739 46.6397L151.695 67H255.884C255.736 57.3011 255.632 47.5837 255.57 37.8478Z" fill="url(#paint8_linear_5128_32622)"/>
<path d="M169.794 24.4285C169.794 24.2064 169.924 24.0028 170.016 23.7807C169.351 25.5509 169.148 27.4623 169.425 29.3335C169.634 30.7701 169.98 32.1834 170.459 33.5536C170.847 34.8406 171.373 36.0817 172.027 37.2555C174.161 40.9138 175.911 44.7845 177.248 48.8053C178.397 52.0272 179.11 55.3887 179.37 58.8003C179.439 59.1562 179.433 59.5224 179.354 59.876C179.274 60.2296 179.123 60.5628 178.909 60.8549C178.397 60.554 177.91 60.2136 177.451 59.8369C177.644 59.6315 177.788 59.3847 177.871 59.1152C177.954 58.8457 177.974 58.5608 177.931 58.2821C177.815 55.0581 177.294 51.8617 176.381 48.7683C175.889 46.8787 175.272 45.0237 174.536 43.2155C173.614 41.0314 172.175 39.1064 171.068 36.9963C169.893 34.7452 169.232 32.2608 169.13 29.7222C169.03 27.9318 169.255 26.1382 169.794 24.4285Z" fill="url(#paint9_linear_5128_32622)"/>
<path d="M163.946 23.6511C164.167 22.1148 168.558 22.9293 168.687 22.9478C168.816 22.9663 164.352 20.9303 164.997 19.7457C165.643 18.5611 168.447 22.1519 168.521 22.2444C168.595 22.337 166.676 17.7466 168.245 17.1543C170.366 16.377 169.259 21.8742 169.222 22.0038C169.185 22.1334 171.067 18.1538 172.636 18.3019H172.912C174.591 19.0423 169.702 22.1889 169.628 22.2629C169.555 22.337 175.828 24.7617 175.569 26.0203C175.311 27.279 169.776 23.2809 169.776 23.2809C169.776 23.2809 173.466 28.5006 172.746 29.426C172.027 30.3515 169.056 23.4475 169.056 23.4475C169.056 23.4475 168.853 30.1849 167.912 29.9258C166.971 29.6667 168.65 23.7252 168.65 23.7252C168.65 23.7252 166.344 27.6306 165.772 28.3155C165.2 29.0003 165.348 27.7417 165.772 26.4645C166.197 25.1874 168.447 23.429 168.521 23.3735C168.595 23.318 163.816 25.2244 163.89 23.7807L163.946 23.6511Z" fill="url(#paint10_linear_5128_32622)"/>
<path d="M195.865 17.0433C197.341 17.506 195.865 21.7261 195.865 21.8557C195.865 21.9853 198.522 17.8577 199.555 18.7276C200.588 19.5976 196.621 21.8002 196.511 21.8002C196.4 21.8002 201.216 20.5786 201.566 22.2999C202.009 24.521 196.751 22.5776 196.621 22.522C196.492 22.4665 200.145 24.9097 199.721 26.4645L199.61 26.7237C198.632 28.2784 196.271 23.0218 196.197 22.8552C196.123 22.6886 193.005 28.6116 191.787 28.2229C190.57 27.8342 195.367 22.8922 195.367 22.8922C195.367 22.8922 189.647 25.7797 188.872 24.8912C188.097 24.0028 195.293 22.1889 195.293 22.1889C195.293 22.1889 188.688 20.9487 189.094 20.0788C189.5 19.2089 195.108 21.7446 195.108 21.7446C195.108 21.7446 191.584 18.8572 191.012 18.1909C190.441 17.5245 191.64 17.8577 192.858 18.45C194.075 19.0423 195.459 21.541 195.514 21.6336C195.57 21.7261 194.407 16.6731 195.791 16.9877L195.865 17.0433Z" fill="url(#paint11_linear_5128_32622)"/>
<g opacity="0.5">
<path opacity="0.5" d="M90.8792 68.8182C93.2897 69.6242 45.207 69.695 47.3919 68.8182C50.7187 67.4748 88.074 67.899 90.8792 68.8182Z" fill="url(#paint12_linear_5128_32622)"/>
</g>
<g clip-path="url(#clip1_5128_32622)">
<path d="M3.09216 119.012C3.09216 119.012 90.6361 107.264 109.374 81.2061C128.111 55.1483 46.5262 54 26.13 54H3.09216V119.012Z" fill="white"/>
<path d="M3.09216 108.037C3.09216 108.037 83.7401 98.2541 101.387 76.6129C119.034 54.9716 42.4409 54 23.3809 54H3.09216V108.037Z" fill="url(#paint13_linear_5128_32622)"/>
<path d="M110.986 85.5785C114.058 83.1936 117.529 80.9411 119.802 77.3416C119.847 77.2149 119.87 77.075 119.87 76.9331C119.87 76.7912 119.847 76.6512 119.802 76.5245C118.788 74.6254 116.853 74.1396 115.194 73.2342C116.714 73.2487 118.217 73.6914 119.618 74.5371C124.686 79.4616 113.382 84.7835 110.894 85.5785H110.986Z" fill="white"/>
<path d="M57.738 69.3255C55.6462 69.1378 53.5482 69.1378 51.4563 69.3255C51.1338 69.458 58.0759 69.458 57.738 69.3255Z" fill="white"/>
<path d="M39.2616 73.5213C34.8015 73.1348 30.3291 73.1348 25.869 73.5213C25.2085 73.8083 39.9528 73.7863 39.2616 73.5213Z" fill="white"/>
<path d="M25.1164 62.1265C25.7461 61.8615 19.6641 61.3757 19.0497 60.5807C18.4354 59.7857 38.1097 59.6974 38.1097 59.2115C36.7652 58.8294 35.3935 58.6811 34.0243 58.7699C32.2565 58.6792 30.4931 58.4581 28.741 58.1074C30.1565 57.6994 31.5979 57.5069 33.0414 57.5332C45.19 57.5332 60.5486 57.1137 61.0247 56.8266C61.762 56.3849 37.0653 56.0095 37.649 55.4354C38.2326 54.8612 43.1473 54.7066 43.0706 54.4416C42.9938 54.1766 43.0706 54.4416 42.963 54.4416C34.7001 54.1325 27.6045 54.0883 23.3809 54.0883H5.50346H3.09216V54.5962C9.2356 54.9275 27.3126 55.06 26.5908 55.7666C25.8689 56.4733 17.6521 56.8487 18.4661 57.2903C19.0618 57.4021 19.6623 57.4538 20.2631 57.4449H20.0941C21.4499 57.3362 22.8089 57.5451 24.1181 58.0632C21.6918 58.4749 19.2504 58.674 16.8074 58.6595H17.4064C11.5855 58.6595 6.77822 58.9465 6.74751 59.1453C6.71679 59.344 10.4796 59.7195 10.8022 60.139C8.25731 60.6362 5.69106 60.8723 3.12288 60.8457V62.1265C12.3073 62.1265 24.5942 62.2811 25.1164 62.1265Z" fill="white"/>
<path d="M41.6422 64.1581C40.1064 63.7827 19.403 63.6061 17.56 64.1581C16.3466 64.5335 43.0245 64.4894 41.6422 64.1581Z" fill="white"/>
<path d="M87.718 76.0829C83.899 78.331 79.9458 80.0754 75.9072 81.2944C52.4854 88.4051 27.3434 92.093 3.09216 95.9796V97.6579C15.2869 96.9291 27.4662 95.3392 39.5842 93.2413C55.8489 89.5976 72.8662 86.9256 87.718 76.0829Z" fill="white"/>
<path d="M18.9576 77.5845C14.4974 77.1981 10.0251 77.1981 5.56494 77.5845C4.90452 77.7833 19.6948 77.7612 18.9576 77.5845Z" fill="white"/>
<path d="M3.09216 135C31.6591 123.451 51.1031 118.327 64.9412 115.965C71.5147 114.838 84.5848 113.028 97.6857 100.507C101.703 96.6475 105.39 92.1185 108.667 87.0139C105.61 90.5041 102.37 93.6492 98.9758 96.4212C92.7168 101.501 85.9971 105.307 79.0096 107.728C67.7546 111.586 56.2916 114.061 44.7446 115.125C30.6778 117.098 16.747 120.724 3.09216 125.968L3.09216 128V135Z" fill="white"/>
<path d="M4.29016 66.9185C3.61438 67.2276 18.4201 67.2055 17.6675 66.9185C13.2122 66.543 8.74544 66.543 4.29016 66.9185Z" fill="white"/>
</g>
<g clip-path="url(#clip2_5128_32622)">
<path d="M135.295 126.223C135.17 126.01 136.066 125.349 137.087 125.392C138.108 125.434 138.712 126.052 138.566 126.244C138.039 126.272 137.51 126.272 136.983 126.244L135.295 126.223Z" fill="#D8D7D7"/>
<path d="M37.8976 129.504C37.6684 129.099 38.8562 127.672 41.1275 128.14C43.8573 128.694 45.2951 128.886 44.92 129.291C43.6205 129.528 42.3015 129.635 40.9817 129.611C38.627 129.589 37.8976 129.504 37.8976 129.504Z" fill="#D8D7D7"/>
<path d="M145.38 131.763C145.401 131.71 145.432 131.662 145.472 131.622C145.511 131.581 145.558 131.55 145.61 131.528C145.791 131.436 145.99 131.386 146.193 131.379C146.559 131.345 146.928 131.388 147.277 131.507C147.45 131.581 147.591 131.718 147.673 131.891C147.785 131.925 147.882 132.001 147.943 132.104C147.967 132.175 147.966 132.252 147.939 132.323C147.912 132.393 147.862 132.451 147.798 132.487C147.446 132.657 147.06 132.737 146.672 132.722H145.818C145.818 132.722 145.651 132.508 145.61 132.466C145.568 132.423 145.359 132.21 145.359 132.04C145.355 131.947 145.362 131.854 145.38 131.763Z" fill="#D8D7D7"/>
<path d="M109.101 115.803C109.073 115.786 109.04 115.777 109.007 115.777C108.975 115.777 108.942 115.786 108.914 115.803C108.888 115.79 108.859 115.783 108.83 115.783C108.801 115.783 108.773 115.79 108.747 115.803C108.747 115.803 108.539 115.803 108.518 115.803C108.497 115.803 108.518 115.91 108.643 115.931C108.624 115.951 108.613 115.978 108.613 116.006C108.613 116.033 108.624 116.06 108.643 116.08H108.914V116.208C108.939 116.223 108.968 116.231 108.997 116.231C109.026 116.231 109.055 116.223 109.08 116.208H109.185C109.207 116.219 109.232 116.225 109.258 116.225C109.283 116.225 109.308 116.219 109.33 116.208C109.34 116.192 109.344 116.173 109.344 116.155C109.344 116.136 109.34 116.118 109.33 116.101L109.101 115.803Z" fill="#D8D7D7"/>
<path d="M135.378 119.34C135.275 119.318 135.169 119.318 135.065 119.34H134.857C134.714 119.296 134.562 119.296 134.419 119.34C134.419 119.447 134.419 119.553 134.419 119.639C134.56 119.717 134.718 119.758 134.878 119.758C135.038 119.758 135.196 119.717 135.336 119.639C135.346 119.619 135.35 119.597 135.35 119.575C135.35 119.552 135.346 119.531 135.336 119.511C135.365 119.459 135.379 119.4 135.378 119.34Z" fill="#D8D7D7"/>
<path d="M128.606 106.683H128.293H128.085C127.93 106.68 127.777 106.724 127.647 106.811C127.647 106.811 127.647 107.024 127.647 107.088C127.789 107.161 127.946 107.199 128.106 107.199C128.265 107.199 128.422 107.161 128.564 107.088C128.564 107.088 128.564 107.088 128.564 106.939C128.595 106.905 128.615 106.863 128.623 106.818C128.63 106.772 128.624 106.725 128.606 106.683Z" fill="#D8D7D7"/>
<path d="M61.0904 118.19C60.9871 118.169 60.8811 118.169 60.7778 118.19H60.5694C60.4143 118.186 60.2618 118.231 60.1318 118.317C60.1318 118.317 60.1318 118.509 60.1318 118.594C60.2741 118.667 60.4311 118.706 60.5903 118.706C60.7495 118.706 60.9065 118.667 61.0487 118.594C61.0663 118.546 61.0663 118.493 61.0487 118.445C61.095 118.369 61.11 118.277 61.0904 118.19Z" fill="#D8D7D7"/>
<path d="M98.6614 116.868C98.6614 116.868 98.6614 116.698 98.5155 116.613C98.3802 116.531 98.2322 116.473 98.0779 116.442C97.9057 116.41 97.7291 116.41 97.5569 116.442C97.3659 116.464 97.1887 116.555 97.0568 116.698C97.0568 116.847 97.0568 117.018 97.2235 117.124C97.4109 117.221 97.6178 117.272 97.8278 117.273C98.0148 117.294 98.2035 117.294 98.3905 117.273C98.3905 117.273 98.3905 117.273 98.5363 117.145C98.5861 117.122 98.626 117.081 98.6489 117.031C98.6719 116.98 98.6763 116.922 98.6614 116.868Z" fill="#D8D7D7"/>
<path d="M152.382 123.048C151.946 122.825 151.472 122.695 150.986 122.664C150.743 122.642 150.499 122.642 150.256 122.664C150.013 122.674 149.776 122.747 149.569 122.877C149.526 122.909 149.49 122.951 149.465 122.999C149.44 123.047 149.425 123.1 149.423 123.154C149.423 123.154 149.256 123.325 149.277 123.431C149.298 123.538 149.277 123.644 149.423 123.708L149.965 123.9H150.111H150.361H150.59C151.15 123.966 151.717 123.915 152.257 123.751C152.507 123.751 152.736 123.58 152.799 123.389C152.861 123.197 152.674 123.176 152.382 123.048Z" fill="#D8D7D7"/>
<path d="M88.284 110.647C88.2363 110.633 88.1858 110.633 88.1381 110.647C87.7927 110.533 87.4209 110.533 87.0754 110.647C87.0754 110.647 86.9295 110.647 86.9087 110.796C86.8958 110.822 86.8892 110.851 86.8892 110.881C86.8892 110.911 86.8958 110.94 86.9087 110.966C86.9668 111.026 87.0384 111.07 87.1171 111.094C87.207 111.106 87.2981 111.106 87.388 111.094H87.5547H87.8256L88.0965 110.987C88.1608 110.947 88.2116 110.888 88.2423 110.817C88.2697 110.765 88.284 110.706 88.284 110.647Z" fill="#D8D7D7"/>
<path d="M78.7402 120.278C78.6106 120.178 78.4626 120.105 78.3051 120.065C78.1476 120.025 77.9837 120.017 77.8233 120.043H77.3857C77.2272 120.06 77.0724 120.104 76.9273 120.171H76.6981L76.4688 120.299C76.2396 120.448 76.0938 120.725 76.4688 120.896H76.7814H76.9273C77.0654 120.917 77.2059 120.917 77.344 120.896H77.6983C78.0886 120.788 78.456 120.607 78.7819 120.363C78.7819 120.363 78.8235 120.47 78.7402 120.278Z" fill="#D8D7D7"/>
<path d="M83.137 123.964C83.0831 123.944 83.0243 123.944 82.9703 123.964H82.2827H82.1368H82.0118C81.9799 123.973 81.9503 123.989 81.9251 124.012C81.8999 124.034 81.8797 124.061 81.8659 124.092C81.8513 124.118 81.8436 124.147 81.8436 124.177C81.8436 124.207 81.8513 124.236 81.8659 124.262C81.9264 124.285 81.9929 124.285 82.0534 124.262C82.0534 124.262 82.0534 124.262 82.1576 124.262C82.3014 124.298 82.4515 124.298 82.5952 124.262C82.7394 124.295 82.8887 124.295 83.0328 124.262C83.0328 124.262 83.0328 124.262 83.0328 124.134C83.0539 124.139 83.0759 124.137 83.0958 124.129C83.1157 124.12 83.1325 124.106 83.144 124.087C83.1554 124.068 83.1609 124.046 83.1596 124.024C83.1584 124.002 83.1505 123.981 83.137 123.964Z" fill="#D8D7D7"/>
<path d="M99.0365 120.192C98.3419 119.846 97.544 119.785 96.8068 120.022C96.5984 120.022 96.39 120.129 96.3275 120.278C96.265 120.427 96.4109 120.469 96.4109 120.469C96.4011 120.493 96.3961 120.518 96.3961 120.544C96.3961 120.57 96.4011 120.595 96.4109 120.619C96.4942 120.723 96.6134 120.792 96.7443 120.81C96.9996 120.853 97.26 120.853 97.5153 120.81C98.0139 120.777 98.5018 120.646 98.9531 120.427C99.1407 120.469 99.1823 120.299 99.0365 120.192Z" fill="#D8D7D7"/>
<path d="M118.645 126.862C118.415 126.711 118.147 126.63 117.874 126.627C117.6 126.616 117.328 126.675 117.082 126.798C116.957 126.798 116.811 126.798 116.79 126.968C116.77 127.139 116.79 127.203 117.02 127.224C117.547 127.353 118.097 127.353 118.624 127.224C118.728 127.224 118.791 127.224 118.791 127.054C118.791 126.883 118.708 126.862 118.645 126.862Z" fill="#D8D7D7"/>
<path d="M86.7837 119.66C86.0964 119.273 85.2868 119.181 84.5332 119.404C84.4964 119.417 84.4645 119.442 84.442 119.474C84.4194 119.507 84.4073 119.545 84.4073 119.585C84.4073 119.625 84.4194 119.664 84.442 119.696C84.4645 119.729 84.4964 119.753 84.5332 119.766H84.6999C84.697 119.802 84.7013 119.837 84.7126 119.871C84.7239 119.904 84.7418 119.935 84.7653 119.961C84.7889 119.987 84.8174 120.008 84.8492 120.022C84.881 120.036 84.9153 120.043 84.9499 120.043C85.5951 120.11 86.2467 120.045 86.867 119.852C86.8729 119.815 86.8681 119.777 86.8533 119.743C86.8385 119.709 86.8143 119.68 86.7837 119.66Z" fill="#D8D7D7"/>
<path d="M150.465 114.226C150.128 114.027 149.754 113.899 149.367 113.851C148.98 113.804 148.588 113.837 148.214 113.949C148.006 113.949 148.027 114.205 148.214 114.312H148.36C148.36 114.418 148.36 114.567 148.589 114.589C149.234 114.655 149.886 114.59 150.506 114.397C150.59 114.503 150.59 114.312 150.465 114.226Z" fill="#D8D7D7"/>
<path d="M94.1187 117.976C94.1187 117.699 93.7019 117.508 93.3685 117.422C93.1259 117.401 92.8818 117.401 92.6392 117.422C92.2374 117.38 91.8324 117.38 91.4306 117.422C91.0138 117.422 90.6804 117.721 90.8054 118.019C90.9305 118.317 91.1597 118.339 91.4514 118.403C91.7773 118.574 92.1415 118.654 92.5073 118.635C92.8731 118.617 93.2277 118.5 93.5352 118.296C93.8686 118.339 94.1187 118.19 94.1187 117.976Z" fill="#D8D7D7"/>
<path d="M170.865 127.458C170.394 127.272 169.891 127.185 169.386 127.203C168.826 127.068 168.253 126.996 167.677 126.99C167.073 126.99 166.718 127.458 166.864 127.842C167.01 128.226 167.573 128.46 168.115 128.609H168.49C168.792 128.723 169.107 128.794 169.427 128.822C169.982 128.887 170.541 128.735 170.99 128.396C171.05 128.329 171.094 128.25 171.12 128.164C171.146 128.078 171.153 127.987 171.141 127.897C171.129 127.808 171.099 127.723 171.051 127.647C171.003 127.571 170.94 127.507 170.865 127.458Z" fill="#D8D7D7"/>
<path d="M110.872 121.322H110.664H110.435H109.935C109.858 121.339 109.786 121.376 109.726 121.428C109.709 121.476 109.709 121.529 109.726 121.578C109.715 121.604 109.709 121.633 109.709 121.663C109.709 121.692 109.715 121.721 109.726 121.748C109.904 121.853 110.105 121.908 110.31 121.908C110.515 121.908 110.716 121.853 110.893 121.748C110.893 121.748 110.893 121.748 110.893 121.599C110.914 121.581 110.93 121.559 110.94 121.534C110.95 121.509 110.955 121.482 110.953 121.455C110.951 121.428 110.942 121.402 110.928 121.378C110.914 121.355 110.895 121.336 110.872 121.322Z" fill="#D8D7D7"/>
<path d="M126.522 122.366C126.46 122.263 126.364 122.187 126.251 122.153C126.169 121.98 126.028 121.844 125.855 121.769C125.506 121.651 125.137 121.607 124.771 121.641C124.369 121.61 123.965 121.61 123.563 121.641C123.213 121.651 122.876 121.778 122.604 122.004C122.417 122.238 122.604 122.494 122.959 122.643C123.317 122.759 123.688 122.83 124.063 122.856C124.459 122.877 124.855 122.877 125.251 122.856C125.639 122.871 126.025 122.791 126.376 122.622C126.419 122.594 126.454 122.557 126.48 122.512C126.505 122.468 126.52 122.417 126.522 122.366Z" fill="#D8D7D7"/>
<path d="M99.6199 108.644C99.5168 108.622 99.4105 108.622 99.3074 108.644H99.099C98.9459 108.633 98.7932 108.67 98.6614 108.75C98.6614 108.75 98.6614 108.963 98.6614 109.027C98.8036 109.1 98.9606 109.138 99.1198 109.138C99.279 109.138 99.436 109.1 99.5782 109.027C99.5782 109.027 99.5782 109.027 99.5782 108.878C99.6006 108.844 99.6158 108.806 99.623 108.765C99.6301 108.725 99.6291 108.684 99.6199 108.644Z" fill="#D8D7D7"/>
<path d="M169.073 123.282C168.97 123.26 168.864 123.26 168.761 123.282H168.552C168.41 123.238 168.257 123.238 168.115 123.282C168.115 123.389 168.115 123.495 168.115 123.559C168.257 123.632 168.414 123.67 168.573 123.67C168.732 123.67 168.889 123.632 169.031 123.559C169.031 123.559 169.031 123.559 169.031 123.41C169.051 123.37 169.065 123.327 169.073 123.282Z" fill="#D8D7D7"/>
<path d="M94.9939 106.193C94.9532 106.18 94.9095 106.18 94.8689 106.193C94.5161 106.08 94.138 106.08 93.7853 106.193C93.7239 106.218 93.6725 106.263 93.6394 106.321C93.6248 106.347 93.6171 106.376 93.6171 106.406C93.6171 106.436 93.6248 106.466 93.6394 106.492L93.8478 106.641H94.1187H94.3062H94.5771H94.8272C94.8881 106.588 94.9378 106.522 94.973 106.449L94.9939 106.193Z" fill="#D8D7D7"/>
<path d="M31.3753 109.432C31.3346 109.419 31.291 109.419 31.2503 109.432C31.0703 109.411 30.8886 109.411 30.7085 109.432C30.5244 109.445 30.3424 109.481 30.1667 109.539C30.1667 109.539 30.0209 109.539 30.0209 109.666C30.0062 109.692 29.9985 109.722 29.9985 109.752C29.9985 109.782 30.0062 109.811 30.0209 109.837C30.0771 109.899 30.1494 109.943 30.2292 109.965C30.3183 109.986 30.4111 109.986 30.5001 109.965H30.6877H30.9586C31.0494 109.951 31.1354 109.915 31.2086 109.858C31.2729 109.818 31.3238 109.758 31.3545 109.688C31.3877 109.691 31.4206 109.68 31.446 109.658C31.4714 109.636 31.4872 109.604 31.49 109.571C31.4927 109.537 31.4822 109.503 31.4607 109.477C31.4392 109.451 31.4085 109.435 31.3753 109.432Z" fill="#D8D7D7"/>
<path d="M108.33 105.192C108.29 105.179 108.246 105.179 108.205 105.192C107.852 105.079 107.474 105.079 107.122 105.192C107.122 105.192 106.976 105.192 106.976 105.32C106.961 105.346 106.953 105.375 106.953 105.405C106.953 105.435 106.961 105.464 106.976 105.49L107.184 105.639H107.455H107.934L108.184 105.533C108.184 105.533 108.309 105.533 108.33 105.341V105.192Z" fill="#D8D7D7"/>
</g>
<g clip-path="url(#clip3_5128_32622)">
<path d="M88.2073 116.028C87.9482 116.028 87.6372 116.183 89.2956 116.425C98.2616 117.719 122.378 120.687 131.568 121.757C140.982 122.845 150.464 123.232 159.935 122.914C169.142 122.758 196.714 120.791 200.894 120.291C205.075 119.79 196.748 117.995 185.727 117.564C174.705 117.132 126.213 113.663 126.213 113.663C126.213 113.663 89.7275 115.907 88.2073 116.028Z" fill="#E2E1E1"/>
<path d="M97.9333 105.328L107.124 109.539L127.491 111.886L142.849 112.386L166.706 110.85L159.451 93.0403L100.939 95.5945C99.5524 96.7013 98.5098 98.1799 97.9333 99.8572C97.6263 101.668 97.6263 103.517 97.9333 105.328Z" fill="#151717"/>
<path d="M143.972 110.298C144.076 116.373 142.003 121.343 139.325 121.378C136.647 121.412 134.384 116.546 134.281 110.454C134.177 104.361 136.267 99.4084 138.945 99.3567C141.623 99.3049 143.868 104.206 143.972 110.298Z" fill="#1A1A1A"/>
<path d="M138.945 99.3567L132.847 99.4602L133.123 121.757L139.325 121.378L138.945 99.3567Z" fill="#1A1A1A"/>
<path d="M127.889 110.695C127.889 111.092 127.889 111.506 127.889 111.886V112.266C128 114.869 128.735 117.408 130.031 119.669C130.309 120.248 130.732 120.746 131.258 121.115C131.785 121.483 132.397 121.711 133.037 121.775C134.263 121.775 135.369 120.756 136.216 119.134C137.224 116.968 137.777 114.619 137.839 112.231C137.839 111.679 137.839 111.109 137.839 110.505C137.879 107.505 137.179 104.542 135.801 101.876C135.444 101.265 134.996 100.712 134.471 100.237C134.003 99.7926 133.388 99.5348 132.743 99.512H132.622C129.962 99.512 127.733 104.551 127.889 110.695Z" fill="#1A1A1A"/>
<path d="M136.371 110.557C136.371 115.268 134.851 119.186 132.795 119.186C130.739 119.186 129.029 115.441 128.943 110.73C128.856 106.018 130.463 102.101 132.501 102.101C134.54 102.101 136.233 105.846 136.371 110.557Z" fill="#F0F1F7"/>
<path d="M134.212 110.592C134.212 111.955 133.78 113.077 133.192 113.077C132.605 113.077 132.104 111.989 132.069 110.626C132.035 109.263 132.519 108.158 133.106 108.141C133.693 108.124 134.194 109.228 134.212 110.592Z" fill="#A6B2C5"/>
<path d="M134.073 110.592C134.073 111.247 133.849 111.782 133.572 111.782C133.296 111.782 133.054 111.265 133.037 110.609C133.02 109.953 133.244 109.435 133.538 109.435C133.831 109.435 134.056 109.953 134.073 110.592Z" fill="#F0F1F7"/>
<path d="M108.99 106.346C108.99 110.937 107.642 114.699 105.811 114.733C103.98 114.768 102.356 111.058 102.356 106.467C102.356 101.876 103.703 98.1141 105.535 98.0796C107.366 98.0451 108.92 101.738 108.99 106.346Z" fill="#1A1A1A"/>
<path d="M105.534 98.0623L101.354 98.1486L101.578 115.01L105.811 114.733L105.534 98.0623Z" fill="#1A1A1A"/>
<path d="M104.878 106.519C104.878 111.178 103.479 114.975 101.578 115.01C99.6781 115.044 98.1234 111.299 97.9679 106.64C97.8124 101.98 99.3672 98.1831 101.285 98.1486C103.202 98.1141 104.792 101.859 104.878 106.519Z" fill="#1A1A1A"/>
<path d="M103.738 106.536C103.738 110.108 102.719 113.008 101.319 113.042C99.92 113.077 98.728 110.195 98.6589 106.622C98.5898 103.05 99.6954 100.151 101.095 100.133C102.494 100.116 103.686 102.981 103.738 106.536Z" fill="#F0F1F7"/>
<path d="M103.392 106.536C103.392 109.746 102.477 112.369 101.25 112.386C100.024 112.404 98.9699 109.832 98.918 106.622C98.8662 103.412 99.8164 100.789 101.043 100.772C102.269 100.755 103.323 103.343 103.392 106.536Z" fill="#F0F1F7"/>
<path d="M100.732 100.34L101.267 105.587L98.9353 103.723L98.7798 104.827L101.198 106.795L99.3326 110.402L99.6608 111.368L101.596 107.658L102.459 112.162L102.857 111.334L102.045 106.76L103.634 105.431L103.479 104.137L101.924 105.483L101.388 100.254L100.732 100.34Z" fill="#F0F1F7"/>
<path d="M102.304 106.57C102.304 107.589 102.01 108.434 101.613 108.434C101.216 108.434 100.853 107.623 100.836 106.588C100.818 105.552 101.129 104.707 101.544 104.707C101.958 104.707 102.287 105.535 102.304 106.57Z" fill="#A6B2C5"/>
<path d="M102.2 106.57C102.2 107.054 102.062 107.451 101.872 107.468C101.682 107.485 101.509 107.071 101.509 106.57C101.509 106.07 101.648 105.673 101.82 105.673C101.993 105.673 102.2 106.07 102.2 106.57Z" fill="#F0F1F7"/>
<path d="M181.635 118.736C184.563 118.656 186.814 114.096 186.663 108.551C186.512 103.006 184.016 98.5752 181.088 98.6549C178.16 98.7346 175.909 103.294 176.06 108.84C176.211 114.385 178.707 118.815 181.635 118.736Z" fill="#1A1A1A"/>
<path d="M181.183 98.6491L174.515 98.58L174.74 118.927L181.529 118.737L181.183 98.6491Z" fill="#1A1A1A"/>
<path d="M180.078 108.814C180.181 114.423 177.78 118.962 174.739 118.927C171.699 118.893 169.194 114.302 169.056 108.71C168.918 103.119 171.354 98.5628 174.394 98.5801C177.434 98.5973 179.991 103.188 180.078 108.814Z" fill="#1A1A1A"/>
<path d="M178.281 108.797C178.281 113.094 176.553 116.563 174.342 116.546C172.131 116.528 170.213 113.094 170.144 108.71C170.075 104.327 171.872 100.944 174.083 100.962C176.294 100.979 178.195 104.482 178.281 108.797Z" fill="#1A1A1A"/>
<path d="M177.694 108.779C177.694 112.663 176.225 115.786 174.239 115.769C172.252 115.752 170.611 112.593 170.542 108.728C170.472 104.862 172.027 101.721 173.997 101.738C175.966 101.756 177.642 104.914 177.694 108.779Z" fill="#1A1A1A"/>
<path d="M173.496 101.203L174.325 107.554L170.611 105.224L170.352 106.57L174.221 109.004L171.198 113.301L171.699 114.475L174.826 110.074L176.173 115.527L176.83 114.544L175.551 109.004L178.108 107.468L177.866 105.88L175.379 107.451L174.567 101.134L173.496 101.203Z" fill="#1A1A1A"/>
<path d="M175.983 108.762C175.983 110.022 175.5 111.023 174.843 111.006C174.187 110.988 173.651 109.988 173.634 108.745C173.617 107.502 174.118 106.501 174.774 106.501C175.431 106.501 175.966 107.52 175.983 108.762Z" fill="#A6B2C5"/>
<path d="M175.811 108.762C175.811 109.366 175.586 109.832 175.275 109.832C174.964 109.832 174.705 109.349 174.688 108.762C174.67 108.175 174.93 107.692 175.241 107.692C175.551 107.692 175.811 108.175 175.811 108.762Z" fill="#F0F1F7"/>
<path d="M97.9334 105.328V103.378C97.9334 103.378 98.5725 97.2339 101.008 96.8197C104.014 96.302 105.103 100.03 105.586 102.843C106.07 105.656 106.675 109.642 108.212 109.867C111.218 110.264 114.639 110.661 117.8 110.954H118.785C122.24 111.213 127.543 111.834 127.543 111.834C127.106 110.993 126.848 110.07 126.783 109.125C126.645 107.261 125.574 96.5609 132.398 95.8706C133.291 95.7658 134.195 95.9154 135.006 96.302C138.289 97.8897 139.55 103.205 140.189 105.639C140.897 108.762 141.916 111.886 142.867 112.438C143.817 112.99 149.034 112.956 153.232 112.645C157.43 112.335 183.792 110.919 186.452 110.505C189.113 110.091 191.635 109.142 192.326 106.001C193.017 102.86 194.053 98.6491 193.224 97.1304C192.395 95.6117 189.285 83.652 189.285 83.652L190.097 81.8054C190.097 81.8054 187.506 80.1831 186.642 79.5446C183.74 77.5082 173.409 73.815 170.835 72.5379C165.653 69.9837 164.772 69.5005 157.43 69.3106C150.076 69.1176 142.717 69.3308 135.386 69.9492H134.747C128.86 70.7076 123.23 72.8227 118.301 76.1275C117.547 76.6513 116.831 77.228 116.159 77.8533C112.594 81.5628 109.281 85.5064 106.243 89.6577C104.214 90.4122 102.301 91.4462 100.559 92.7296C99.3026 93.7025 98.4479 95.1029 98.1579 96.6644C97.2125 99.4639 97.1342 102.483 97.9334 105.328Z" fill="#744A9D"/>
<path d="M107.003 89.5024C107.003 89.5024 129.599 82.2196 134.488 80.8734C139.377 79.5273 140.534 78.5781 138.479 76.7488C134.246 72.883 131.828 71.9166 127.077 72.883C123.036 73.6943 119.274 75.5374 116.159 78.233C112.851 81.7742 109.791 85.5396 107.003 89.5024Z" fill="#6C8093"/>
<path d="M107.003 89.5024L107.694 89.278L108.108 89.1572L117.368 86.1716C124.002 84.0489 131.828 81.581 134.453 80.8217L135.542 80.4938C139.411 79.3202 140.327 78.371 138.461 76.697C138.047 76.3173 137.667 75.9894 137.287 75.6788C136.628 75.1115 135.93 74.5924 135.196 74.1256C134.267 73.5191 133.237 73.0809 132.156 72.8312C131.461 72.6585 130.746 72.583 130.031 72.6069C129.06 72.6374 128.094 72.7587 127.146 72.9693C123.971 73.6475 120.953 74.918 118.249 76.7143C117.538 77.1926 116.867 77.7294 116.245 78.3193C113.161 81.5665 110.309 85.0266 107.711 88.674L107.417 89.1055C107.003 89.3471 107.003 89.5024 107.003 89.5024ZM109.024 88.0527C109.508 87.3969 110.095 86.6031 110.752 85.7574C112.582 83.3209 114.579 81.0143 116.729 78.8543C117.153 78.4443 117.609 78.0692 118.094 77.7325C120.836 75.7546 123.969 74.3838 127.284 73.7114C128.18 73.5073 129.095 73.3917 130.014 73.3662C131.923 73.3093 133.793 73.9196 135.3 75.092C135.905 75.5235 136.561 76.0412 137.287 76.6625C137.494 76.8696 137.718 77.0594 137.943 77.2493C138.686 77.9223 138.634 78.1812 138.634 78.1985C138.634 78.2157 138.548 78.4918 137.667 78.906C136.986 79.2299 136.281 79.501 135.559 79.7172L134.263 80.0796C131.672 80.8217 124.002 83.2378 117.42 85.3605L109.024 88.0527Z" fill="#0C2635"/>
<path d="M107.003 89.5024C107.003 89.5024 129.599 82.2195 134.488 80.8734C139.377 79.5273 140.534 78.5781 138.479 76.7488C132.777 76.4506 127.082 77.4294 121.808 79.6136C110.631 83.9799 107.003 89.5024 107.003 89.5024Z" fill="#2E1D43"/>
<path d="M185.606 83.4276C185.606 83.4276 185.848 84.9463 186.159 87C187.886 87.2589 189.182 87.5005 190.356 87.7766L189.268 83.6002C189.268 83.6002 188.422 83.6002 186.349 83.4621L185.606 83.4276Z" fill="#ED262E"/>
<path d="M152.765 87.6731C148.452 88.0893 144.189 88.9157 140.033 90.141C142.279 87.0518 144.318 84.4113 148.205 83.9454C149.656 83.7555 151.176 83.6175 152.696 83.5139L152.765 87.6731Z" fill="#ED262E"/>
<path d="M166.983 91.2627L181.114 91.0211L180.268 87.3969L166.309 87.3797L166.983 91.2627Z" fill="white"/>
<path d="M117.057 106.415C121.186 106.415 126.835 107.071 125.695 107.692C124.555 108.314 118.007 108.279 114.846 108.262C111.684 108.244 105.69 107.899 108.126 107.399C111.066 106.795 114.056 106.466 117.057 106.415Z" fill="#7E56A3"/>
<path d="M186.59 79.4928C186.59 79.4928 180.907 79.2167 173.202 79.0614C164.564 78.8888 156.549 78.906 150.744 79.0614C145.752 75.3682 139.636 69.5523 135.283 69.8974C135.283 69.8974 146.46 68.8965 152.783 69.0173C158.673 69.1208 162.319 69.4142 164.34 69.604C170.006 70.139 176.484 73.8322 186.59 79.4928Z" fill="#6C8093"/>
<path opacity="0.1" d="M180.268 87.3969L183.204 86.6031C180.267 86.1981 177.307 85.9848 174.342 85.9645C170.399 85.9867 166.46 86.2287 162.543 86.6894L166.309 87.3797L180.268 87.3969Z" fill="#221F1F"/>
<path d="M142.78 112.818C142.098 112.073 141.638 111.152 141.45 110.16C141.45 110.16 151.47 109.66 151.988 109.107C153.083 107.902 154.312 106.825 155.65 105.897C157.327 105.142 159.149 104.759 160.988 104.776C163.39 104.638 187.489 103.412 189.596 103.464C191.704 103.516 191.324 107.485 191.41 108.158C191.497 108.831 189.13 110.246 187.126 110.574C181.46 111.506 164.132 112.524 159.727 112.783C155.322 113.042 142.78 112.818 142.78 112.818Z" fill="#1A1A1A"/>
<path d="M107.003 108.59C107 108.618 107 108.647 107.003 108.676C107.055 108.971 107.136 109.26 107.245 109.539C107.338 109.885 107.503 110.209 107.728 110.488C107.884 110.643 108.143 110.678 108.627 110.678C111.246 110.62 113.867 110.741 116.47 111.04L117.852 111.196C121.549 111.627 128.044 112.559 128.044 112.559V112.266V111.886C127.801 111.81 127.597 111.643 127.474 111.42C127.474 111.265 127.06 109.936 126.973 109.694C126.973 109.694 122.067 109.798 117.748 109.591C117.334 109.591 116.902 109.591 116.504 109.591C113.74 109.435 110.838 109.176 109.007 109.004L107.003 108.59Z" fill="#1A1A1A"/>
<path opacity="0.1" d="M187.541 96.6989C187.385 94.9732 185.606 83.4276 185.606 83.4276C174.549 82.8897 163.472 82.9357 152.42 83.5657C152.42 83.5657 153.145 94.9041 153.664 96.9923C154.182 99.0805 156.98 98.7181 156.773 100.841C156.546 103.468 155.923 106.045 154.925 108.486C154.053 109.634 152.935 110.573 151.652 111.233C150.37 111.893 148.956 112.258 147.514 112.3C143.765 112.3 142.849 112.3 142.849 112.3L143.765 112.749C146.805 112.749 156.065 112.921 159.727 112.749C164.132 112.49 181.46 111.472 187.126 110.54C187.769 110.438 188.397 110.253 188.992 109.988C190.961 108.797 191.134 102.86 191.082 100.22C191.047 98.3557 187.696 98.511 187.541 96.6989Z" fill="#0E1B24"/>
<path d="M175.171 84.325C175.249 84.5632 175.232 84.8222 175.122 85.0476C175.012 85.273 174.82 85.4471 174.584 85.5331C174.345 85.556 174.106 85.4941 173.909 85.3584C173.712 85.2227 173.568 85.0219 173.504 84.7911C173.44 84.5604 173.46 84.3145 173.559 84.0967C173.659 83.8789 173.832 83.7031 174.048 83.6002C174.293 83.5534 174.546 83.6027 174.755 83.7377C174.965 83.8727 175.114 84.0831 175.171 84.325Z" fill="#0C2635"/>
<path d="M176.104 97.3548C186.694 97.1994 190.408 97.1477 192.671 97.5446C195.643 98.0623 184.535 98.8907 176.415 99.0805C162.595 99.4084 154.286 99.7191 151.297 98.7527C148.015 97.6827 166.845 97.4756 176.104 97.3548Z" fill="#7E56A3"/>
<path d="M152.575 81.5983C159.658 81.2186 190.063 81.7536 190.063 81.7536L186.608 79.4928C186.608 79.4928 173.254 79.0096 169.799 79.0096C165.031 79.0096 150.537 78.6817 146.633 79.4238C143.972 79.907 129.668 84.0834 124.952 85.4123C120.65 86.6203 109.024 90.0892 102.753 92.3154C101.316 92.716 99.9991 93.4626 98.918 94.4899C98.918 94.4899 102.874 92.6606 104.101 93.558C104.101 93.558 125.85 87.673 133.745 85.5848C141.64 83.4966 145.199 82.0125 152.575 81.5983Z" fill="#7E56A3"/>
<path fill-rule="evenodd" clip-rule="evenodd" d="M132.225 86.0508L128.39 87.1035L128.58 86.3097L132.415 85.2742L132.225 86.0508Z" fill="#0C2635"/>
<path fill-rule="evenodd" clip-rule="evenodd" d="M132.208 85.93L128.355 86.9655L128.545 86.1889L132.398 85.1534L132.208 85.93Z" fill="#F0F1F7"/>
<path fill-rule="evenodd" clip-rule="evenodd" d="M116.798 90.2272L113.326 91.1592L113.516 90.4171L116.971 89.4679L116.798 90.2272Z" fill="#0C2635"/>
<path fill-rule="evenodd" clip-rule="evenodd" d="M116.763 90.1064L113.308 91.0384L113.481 90.2963L116.953 89.3471L116.763 90.1064Z" fill="#F0F1F7"/>
<path d="M107.815 86.1716C107.869 86.0678 107.898 85.9523 107.898 85.8351C107.898 85.7179 107.869 85.6024 107.815 85.4986C107.743 85.4011 107.65 85.3221 107.542 85.268C107.433 85.214 107.314 85.1865 107.193 85.1879C105.737 85.168 104.286 85.3717 102.891 85.7919C102.339 86.1889 101.164 87.2071 101.976 87.8284C103.296 88.3607 104.687 88.6979 106.105 88.8293L107.314 90.1064C107.314 90.1064 108.022 90.2617 108.229 89.6577C108.437 89.0537 107.227 88.0182 107.227 88.0182L107.815 86.1716Z" fill="#CBCBCA"/>
<path opacity="0.1" d="M107.642 86.1026C107.684 86.0229 107.707 85.934 107.707 85.8437C107.707 85.7535 107.684 85.6646 107.642 85.5849C107.592 85.5086 107.522 85.4474 107.44 85.4078C107.358 85.3683 107.266 85.3519 107.176 85.3605C105.763 85.2974 104.35 85.4724 102.995 85.8782C102.442 86.2752 101.267 87.2071 102.079 87.8284C103.354 88.355 104.698 88.6922 106.07 88.8293L107.279 90.1064C107.279 90.1064 107.988 90.2618 108.195 89.6577C107.695 89.306 107.217 88.9257 106.761 88.5187L107.642 86.1026Z" fill="#221F1F"/>
<path d="M106.433 88.4151L107.452 86.0163C107.482 85.9607 107.498 85.8984 107.498 85.8351C107.498 85.7718 107.482 85.7095 107.452 85.6539C107.416 85.6006 107.367 85.557 107.309 85.527C107.252 85.4969 107.188 85.4812 107.124 85.4813C105.691 85.4303 104.262 85.6469 102.909 86.1198C102.028 86.7756 101.527 87.604 102.909 87.8456C104.291 88.0872 106.433 88.4151 106.433 88.4151Z" fill="#0C2635"/>
<path d="M186.59 79.4928C186.59 79.4928 180.907 79.2167 173.202 79.0614C164.564 78.8888 156.549 78.906 150.744 79.0614C145.06 74.488 139.498 70.7603 135.334 69.8974C140.673 69.4315 170.041 70.2253 186.59 79.4928Z" fill="#2E1D43"/>
</g>
</g>
<defs>
<linearGradient id="paint0_linear_5128_32622" x1="0" y1="67.5" x2="201" y2="67.5" gradientUnits="userSpaceOnUse">
<stop offset="0.05" stop-color="#F1F2F2" stop-opacity="0"/>
<stop offset="1" stop-color="#E0E0E0"/>
</linearGradient>
<linearGradient id="paint1_linear_5128_32622" x1="0" y1="94.5" x2="203" y2="94.5" gradientUnits="userSpaceOnUse">
<stop stop-color="white" stop-opacity="0"/>
<stop offset="0.51" stop-color="#EEEFEF"/>
<stop offset="0.83" stop-color="#E2E2E2"/>
<stop offset="0.87" stop-color="#E0E0E0"/>
</linearGradient>
<linearGradient id="paint2_linear_5128_32622" x1="0.0845356" y1="15.3515" x2="65.7172" y2="15.3515" gradientUnits="userSpaceOnUse">
<stop stop-color="#F4F5F5"/>
<stop offset="0.26" stop-color="#F0F1F1"/>
<stop offset="0.53" stop-color="#E4E4E5"/>
<stop offset="0.8" stop-color="#D0D0D0"/>
<stop offset="1" stop-color="#BDBCBD"/>
</linearGradient>
<linearGradient id="paint3_linear_5128_32622" x1="132.396" y1="50.5822" x2="108.429" y2="50.5822" gradientUnits="userSpaceOnUse">
<stop stop-color="#C5C5C6"/>
<stop offset="0.67" stop-color="#C1C1C2"/>
<stop offset="1" stop-color="#BDBCBD"/>
</linearGradient>
<linearGradient id="paint4_linear_5128_32622" x1="455.591" y1="106.832" x2="44.4018" y2="-7.37677" gradientUnits="userSpaceOnUse">
<stop offset="0.09" stop-color="#FCFDFF" stop-opacity="0"/>
<stop offset="0.13" stop-color="#FCFDFF" stop-opacity="0.01"/>
<stop offset="0.17" stop-color="#FBFCFD" stop-opacity="0.06"/>
<stop offset="0.2" stop-color="#F9FAFC" stop-opacity="0.14"/>
<stop offset="0.23" stop-color="#F7F7F9" stop-opacity="0.25"/>
<stop offset="0.26" stop-color="#F4F4F5" stop-opacity="0.39"/>
<stop offset="0.29" stop-color="#F0F0F1" stop-opacity="0.56"/>
<stop offset="0.32" stop-color="#EBEBEC" stop-opacity="0.76"/>
<stop offset="0.34" stop-color="#E6E5E6" stop-opacity="0.99"/>
<stop offset="0.35" stop-color="#E6E5E6"/>
<stop offset="0.5" stop-color="#EBE9EA"/>
<stop offset="0.64" stop-color="#E5E3E4"/>
<stop offset="0.82" stop-color="#D5D3D4"/>
<stop offset="1" stop-color="#BDBCBD"/>
</linearGradient>
<linearGradient id="paint5_linear_5128_32622" x1="104.96" y1="634.684" x2="110.98" y2="634.684" gradientUnits="userSpaceOnUse">
<stop stop-color="#C5C5C6"/>
<stop offset="0.67" stop-color="#C1C1C2"/>
<stop offset="1" stop-color="#BDBCBD"/>
</linearGradient>
<linearGradient id="paint6_linear_5128_32622" x1="190.588" y1="15.396" x2="179.315" y2="15.396" gradientUnits="userSpaceOnUse">
<stop stop-color="#DEDEDE"/>
<stop offset="0.34" stop-color="#DADADA"/>
<stop offset="0.69" stop-color="#CECDCE"/>
<stop offset="1" stop-color="#BDBCBD"/>
</linearGradient>
<linearGradient id="paint7_linear_5128_32622" x1="-77.3734" y1="-3047.54" x2="-111.058" y2="-3042.45" gradientUnits="userSpaceOnUse">
<stop stop-color="#C5C5C6"/>
<stop offset="0.67" stop-color="#C1C1C2"/>
<stop offset="1" stop-color="#BDBCBD"/>
</linearGradient>
<linearGradient id="paint8_linear_5128_32622" x1="15837.3" y1="812.131" x2="438.108" y2="812.131" gradientUnits="userSpaceOnUse">
<stop stop-color="#F4F5F5"/>
<stop offset="0.26" stop-color="#F0F1F1"/>
<stop offset="0.53" stop-color="#E4E4E5"/>
<stop offset="0.8" stop-color="#D0D0D0"/>
<stop offset="1" stop-color="#BDBCBD"/>
</linearGradient>
<linearGradient id="paint9_linear_5128_32622" x1="-264.379" y1="-3478.19" x2="-298.375" y2="-3473.05" gradientUnits="userSpaceOnUse">
<stop stop-color="#C5C5C6"/>
<stop offset="0.67" stop-color="#C1C1C2"/>
<stop offset="1" stop-color="#BDBCBD"/>
</linearGradient>
<linearGradient id="paint10_linear_5128_32622" x1="134.811" y1="-1200.99" x2="64.2188" y2="-1190.33" gradientUnits="userSpaceOnUse">
<stop stop-color="#DEDEDE"/>
<stop offset="0.34" stop-color="#DADADA"/>
<stop offset="0.69" stop-color="#CECDCE"/>
<stop offset="1" stop-color="#BDBCBD"/>
</linearGradient>
<linearGradient id="paint11_linear_5128_32622" x1="-8057.64" y1="8871.17" x2="-8056.85" y2="8792.85" gradientUnits="userSpaceOnUse">
<stop stop-color="#DEDEDE"/>
<stop offset="0.34" stop-color="#DADADA"/>
<stop offset="0.69" stop-color="#CECDCE"/>
<stop offset="1" stop-color="#BDBCBD"/>
</linearGradient>
<linearGradient id="paint12_linear_5128_32622" x1="1509.94" y1="93.943" x2="2861.26" y2="93.943" gradientUnits="userSpaceOnUse">
<stop stop-color="#F4F5F5"/>
<stop offset="0.26" stop-color="#F0F1F1"/>
<stop offset="0.53" stop-color="#E4E4E5"/>
<stop offset="0.8" stop-color="#D0D0D0"/>
<stop offset="1" stop-color="#BDBCBD"/>
</linearGradient>
<linearGradient id="paint13_linear_5128_32622" x1="-26.5345" y1="81.0074" x2="140.966" y2="81.0074" gradientUnits="userSpaceOnUse">
<stop offset="0.19" stop-color="#F4F5F5" stop-opacity="0.03"/>
<stop offset="0.25" stop-color="#F1F2F2" stop-opacity="0.23"/>
<stop offset="0.3" stop-color="#EEEFF0" stop-opacity="0.42"/>
<stop offset="0.36" stop-color="#ECEDEE" stop-opacity="0.57"/>
<stop offset="0.43" stop-color="#EAEBEC" stop-opacity="0.71"/>
<stop offset="0.5" stop-color="#E9EAEA" stop-opacity="0.81"/>
<stop offset="0.58" stop-color="#E7E8E9" stop-opacity="0.9"/>
<stop offset="0.67" stop-color="#E7E8E9" stop-opacity="0.96"/>
<stop offset="0.78" stop-color="#E6E7E8" stop-opacity="0.99"/>
<stop offset="1" stop-color="#E6E7E8"/>
</linearGradient>
<clipPath id="clip0_5128_32622">
<path d="M0 0H185C193.837 0 201 7.16344 201 16V119C201 127.837 193.837 135 185 135H0V0Z" fill="white"/>
</clipPath>
<clipPath id="clip1_5128_32622">
<rect width="118" height="81" fill="white" transform="translate(3 54)"/>
</clipPath>
<clipPath id="clip2_5128_32622">
<rect width="184" height="29" fill="white" transform="translate(30 105)"/>
</clipPath>
<clipPath id="clip3_5128_32622">
<rect width="114" height="54" fill="white" transform="translate(88 69)"/>
</clipPath>
</defs>
</svg>
